<?xml version="1.0" standalone="no"?>
<!DOCTYPE svg PUBLIC "-//W3C//DTD SVG 1.1//EN" "http://www.w3.org/Graphics/SVG/1.1/DTD/svg11.dtd" >
<svg xmlns="http://www.w3.org/2000/svg" xmlns:xlink="http://www.w3.org/1999/xlink" version="1.1">
<metadata>
Created by FontForge 20190801 at Wed Mar 22 19:03:16 2017
 By Jimmy Wärting
Copyright (c) 2017 by Alit Design. All rights reserved.
</metadata>
<defs>
<font id="BillyOhio" horiz-adv-x="208" >
  <font-face 
    font-family="Billy Ohio"
    font-weight="400"
    font-stretch="normal"
    units-per-em="1000"
    panose-1="2 0 5 6 0 0 0 2 0 4"
    ascent="800"
    descent="-200"
    x-height="330"
    cap-height="656"
    bbox="-135 -449 875 877"
    underline-thickness="50"
    underline-position="-100"
    unicode-range="U+000D-007A"
  />
<missing-glyph 
 />
    <glyph glyph-name=".notdef" 
 />
    <glyph glyph-name="NULL" horiz-adv-x="0" 
 />
    <glyph glyph-name="NULL" horiz-adv-x="0" 
 />
    <glyph glyph-name="nonmarkingreturn" unicode="&#xd;" 
 />
    <glyph glyph-name="space" unicode=" " 
 />
    <glyph glyph-name="o" unicode="o" horiz-adv-x="318" 
d="M90 266l18 -8q9 12 20.5 27t25 29t28.5 23.5t32 9.5q16 0 33 -9t30.5 -23t22 -31t8.5 -33q0 -30 -11 -62t-28 -62.5t-39 -57t-43 -46.5q-13 -12 -26 -21t-31 -12q-5 -1 -10.5 -1.5t-10.5 -0.5q-24 0 -44 9t-34.5 24.5t-22.5 36.5t-8 44v12q0 15 7.5 41t19.5 50.5
t28.5 42.5t34.5 18zM72 35q34 9 64 33.5t53 56.5t39 68.5t22 69.5l2 10t1 10q0 7 -3 13q-12 0 -29.5 -13.5t-33.5 -32t-27.5 -38t-11.5 -31.5q0 -14 14 -24q-4 -6 -10 -6q-21 0 -33 13.5t-23 27.5q-11 -28 -20 -56.5t-9 -58.5q0 -11 1 -21t4 -21zM262 161
q-14 -27 -31.5 -51.5t-36.5 -48.5q-2 -2 -3.5 -4.5t-2.5 -5.5q7 9 20 22.5t25 29.5t20.5 31t8.5 27zM141 218q15 20 29.5 39t31.5 36v1h-1q-1 0 -1 -0.5t-1 -0.5q-8 -6 -17.5 -14.5t-17.5 -19t-14.5 -21t-8.5 -20.5zM95 228l1 2q-10 -10 -16 -22t-11 -25l6 9t8.5 13.5
t8 13.5t3.5 9zM134 265q1 3 7 10t13.5 14.5l14.5 14.5l10 10h-2q-26 -22 -46 -51zM190 101q7 6 12 14t10 17q-4 -5 -13 -16.5t-9 -14.5zM206 95q5 8 11 16t11 16l-23 -31v-1h1zM56 225l16 18q-6 -3 -9.5 -8t-6.5 -10zM147 257q4 6 8.5 11t8.5 10q-3 -3 -10 -10.5t-7 -10.5z
M73 221q7 5 9 14zM65 169h-2v-2zM229 130q-1 -1 -1 -3zM244 105h1v1zM195 83l-1 1q0 -1 1 -1z" />
    <glyph glyph-name="f" unicode="f" horiz-adv-x="245" 
d="M213 535q17 0 30 -7t21.5 -19t13 -26.5t4.5 -29.5q0 -13 -2.5 -23t-6.5 -22q-2 -5 -2.5 -10.5t-1.5 -10.5q-9 -32 -25 -66q-20 -40 -49.5 -72t-60.5 -64q-10 -10 -14.5 -19t-6.5 -23q-1 -6 -2 -12.5t-3 -12.5q13 0 27 5t27 11t22.5 11t13.5 5l4.5 -1t10 -2.5t10.5 -3
t7 -1.5q-1 -9 -14 -17.5t-29.5 -15t-33 -11t-24.5 -6.5q1 -6 4 -11q15 -32 22 -73t7 -76q0 -38 -7 -81t-23 -78q-17 -38 -55 -38q-14 0 -25 4q-18 5 -26.5 19t-12.5 31q-6 26 -8.5 53.5t-2.5 54.5q0 12 0.5 24t1.5 24q2 15 1.5 30t1.5 30q5 58 16.5 122.5t29.5 129t42 125
t56 109.5q10 16 26 30t36 14zM242 502q-11 -7 -19 -17.5t-14 -21.5q-26 -51 -43 -107t-32 -111h2q10 10 20 19.5t19 20.5q13 16 26.5 39t24.5 48.5t17.5 51t6.5 46.5q0 8 -1 17.5t-7 14.5zM89 -171q10 27 14.5 64t4.5 66q0 20 -2 39.5t-7 38.5q-4 -18 -6 -41t-3.5 -46.5
t-2 -46.5t-0.5 -42v-16t2 -16zM261 383q1 0 1 -1l3 8h-1l5 15l4 3q-1 3 -1 9q3 7 4 14t1 15v10t-1 10h-10q-2 -7 -1.5 -13.5t-1.5 -13.5q-12 -64 -40 -116q-5 -8 -9.5 -15.5t-9.5 -15.5l-6 -12q7 7 13.5 15.5t11.5 16.5v-5l5 3v5l-5 -3l5 8v-5h3v-5l2 5h-2l2 3l1 -2l2 2h-2
l2 5v-4l2 4l-2 1v5l-5 -2l15 33v-1l8 20q0 -4 -0.5 -7t-1.5 -7l4 2l1 -1q2 6 2 8l3 8zM63 -199q1 37 1.5 74t2.5 74t5.5 74t6.5 74q-5 -15 -9 -46.5t-6.5 -66.5t-4 -67.5t-1.5 -49.5t0.5 -33.5t4.5 -32.5zM101 207q14 65 36 130t52 125q2 4 3 7.5t3 7.5q-18 -28 -32.5 -61.5
t-26.5 -69t-21.5 -71t-16.5 -67.5zM130 226q20 17 42.5 44.5t41.5 59.5t31.5 64.5t12.5 59.5q0 9 -1 13q-2 -4 -2 -5q-5 -38 -17 -73t-31 -68q-16 -26 -36.5 -49t-40.5 -46zM137 -157q2 11 4 21t3 21q2 17 2.5 33.5t1.5 33.5l-15 -114zM144 444q-14 -16 -19 -40q5 10 9.5 20
t9.5 20zM120 -38q-1 -11 -1.5 -21.5t-0.5 -21.5q4 7 4 16q0 6 -1 12t-1 12v3zM83 121q2 7 4 17q-2 0 -3 1l-4 -17q2 0 3 -1zM252 365q-2 -2 -3 -2.5t-2 -2.5v-9q4 2 4.5 6t0.5 8zM118 -84q-1 -5 -1.5 -11t-0.5 -11q3 4 3 9q0 4 -0.5 7t-0.5 6zM112 -125q4 3 4 7
q0 2 -0.5 4.5t-0.5 4.5zM42 -126q1 5 1 10v10h-2q0 -5 0.5 -10t0.5 -10zM112 -125v-6.5t-1 -6.5l3 3zM191 262q7 4 9 9q-2 -2 -4.5 -4t-4.5 -5zM236 329h3v-5l2 5h-2v5zM81 284q2 2 2 4q-3 0 -5 -1zM101 343l6 13l-7 -12v-2zM45 -43h-1v-9h1v9zM107 360q0 2 0.5 3t0.5 3l3 5
v1l-4 -6v-6zM27 -7h-1v-8h1v8zM203 273q1 2 1 5l-3 -7l2 1h2q-1 0 -1 0.5t-1 0.5zM121 396q0 -2 -1 -3l5 8v2zM151 460l2 2l2 7l1 1h-2q0 -2 -0.5 -3.5t-0.5 -3.5zM48 -12v6h-1v-6h1zM56 183l-1 1q-2 -4 -2 -6zM249 347q2 2 2 4h-2v-4zM35 68h-1v-5h1v5zM133 -168h1
q0 4 -1 6v-6zM207 282q2 0 4 2l-1 1zM188 269q2 1 4 5q-1 -1 -2.5 -2t-1.5 -3zM192 274q2 1 6 5h-1zM247 346q0 -3 1 -4q0 3 1 4h-2zM246 350l-2 -4h2v4zM60 204h1v4h-1v-4zM86 299h1v4h-1v-4zM91 312q1 1 1 4l-2 -3v-1h1zM255 365v-4l2 4h-2zM53 172v5q-1 -2 -1 -5h1z
M111 372l3 2q-1 1 -2 1zM32 43l-1 1v-4h1v3zM222 301q0 2 0.5 2.5t0.5 2.5q-2 -4 -2 -5h1zM72 247l-1 1l-3 -3zM211 284q1 2 1 5q-1 -2 -1 -5zM77 267l-1 1l-2 -4zM42 118h1v3h-1v-3zM40 99v3h-1v-3h1zM109 -150h1v3h-1v-3zM207 282l-3 -3v-1zM159 473q-2 -3 -3 -3h3v3z
M217 298q0 1 1.5 1.5t2.5 1.5h-1l-3 -2v-1zM217 292v4q-1 -1 -1 -3zM196 478l4 3l-3 -1zM212 291q2 0 4 2h-1zM24 -70h-1q0 -2 1 -3v3zM120 341h-2l2 -2v2zM168 492l3 1l1 1h-1zM74 258v3q-1 -1 -1 -2zM166 485q-1 -1 -2 -1h2q0 1 0.5 1.5t0.5 1.5q0 -1 -0.5 -1t-0.5 -1z
M201 484q0 3 1 4l1 1l-2 -1v-4zM99 340l1 -1v3zM83 289l1 3h-1v-3zM147 451l3 6l-3 -5v-1zM185 266h-1l-2 -3zM96 328l1 3h-1v-3zM201 484q0 -1 -0.5 -1.5t-0.5 -1.5h1v3zM86 231v-1h1v1h-1zM208 272h1v1h-1v-1zM65 227v-1h1v1h-1zM143 402l-1 -1v-1l1 1v1zM57 196
q0 -1 1 -1v1h-1zM79 198h-1v-1h1v1zM162 483l2 1h-2v-1zM126 358q0 1 -1 1v-1h1zM270 410l-1 -2v2h1zM214 284q1 -1 3 -1zM242 329h-1v-1zM64 215h-1v1q0 -1 1 -1zM116 -107v1l-1 -1h1zM133 380v-1l1 1h-1zM120 339l-2 -2zM58 87h-1l1 -1v1zM130 -178h1v1zM171 463v1l-1 -1
h1zM102 289v-1l1 1h-1zM161 477l-1 -1q1 1 1 2v-1zM161 480l1 2q0 -1 -0.5 -1t-0.5 -1z" />
    <glyph glyph-name="g" unicode="g" horiz-adv-x="304" 
d="M204 85q-12 -10 -23.5 -22t-23.5 -23t-26 -18.5t-31 -7.5q-18 0 -34.5 7.5t-29 20t-20 29t-7.5 34.5q0 33 13 69.5t36.5 67.5t54.5 51t67 20q32 0 60 -16t46 -42q4 -6 4 -9t-1 -6l-2 -6q-5 3 -12 7.5t-14.5 9t-15 8t-12.5 3.5q-33 0 -62 -20t-50 -50t-33 -65t-12 -65
q0 -2 0.5 -4t0.5 -4h5q6 0 11 2.5t10 5.5q42 26 70 71q9 14 18 30t22 27l39 -23q14 -8 14 -24q0 -60 -6.5 -118.5t-23.5 -115.5q-23 -74 -55 -141.5t-86 -124.5q-11 -11 -24 -22t-28 -20t-31 -15t-32 -6q-12 0 -26 4.5t-25 12.5t-18.5 19t-7.5 25q0 31 16 71.5t40 82
t51 77.5t48 58q22 23 45 41.5t52 32.5l4 -8q7 -2 13 -6t8 -11q12 19 17 51t7 55zM180 -44q-17 -12 -39.5 -35t-46.5 -52t-47 -62t-41 -65t-29.5 -61t-11.5 -50h3l7 3q39 22 71 59.5t57.5 82t44.5 92t32 88.5zM214 -92q-2 -2 -4 -8q-30 -90 -78 -170q-7 -11 -14.5 -22.5
t-12.5 -23.5q31 35 55 81.5t39 91.5q5 13 7.5 25.5t7.5 25.5zM29 -178q-15 -27 -30.5 -54t-29.5 -55q-7 -14 -11 -28.5t-9 -28.5q9 11 13 24.5t9 26.5q10 23 22 45t25 44q5 8 9 15.5t8 15.5zM71 150q5 8 8.5 14.5t7.5 14.5q8 16 19.5 30.5t23.5 26.5q-4 0 -7 -3
q-19 -16 -33 -37.5t-19 -45.5zM143 -184q-10 -17 -19.5 -35t-18.5 -36q12 15 21 34.5t17 36.5zM-65 -291q6 8 6 13l34 68q-2 -2 -8 -13t-13 -25t-12.5 -26.5t-6.5 -16.5zM55 206q2 1 5.5 5t7 9t6.5 10t4 7q-6 -7 -12 -15t-11 -16zM164 61l12 17q-4 -3 -8 -6.5t-4 -8.5v-2z
M209 163l-2 1l-12 -21q3 5 8 11t6 9zM190 135l-31 -40q8 10 15.5 19.5t15.5 20.5zM187 91q7 4 11 14q-7 -7 -11 -14zM220 -76h-3l-2 -13q4 8 5 13zM220 -68h3v5zM146 -179q0 3 1 4q-2 -2 -4 -8zM223 -62q1 1 1 2.5t1 2.5l-2 1v-6zM-53 -351h2v5zM66 138l2 -1q0 3 1 4z
M160 61v-1q3 0 4 1h-4zM174 -114l2 6q-2 -4 -2 -6zM100 257h-1l-2 -3zM99 231l-1 1v-3zM109 -280h1v2q-1 0 -1 -2zM121 -262q2 0 4 2zM194 108h-1q0 -1 -0.5 -1t-0.5 -1zM190 84l2 2l-3 -2h1zM204 122l-1 -1q1 0 2 1h-1zM-30 -255l2 2q-2 0 -2 -2zM43 -109l-1 -1q1 0 1 1z
M75 -118q1 0 1 1zM180 -94l1 1h-1v-1zM189 -68h-1v-1zM182 -205h1v1z" />
    <glyph glyph-name="h" unicode="h" horiz-adv-x="308" 
d="M305 285q0 -26 -6.5 -53t-11.5 -53q-11 -62 -24 -124.5t-13 -125.5q0 -10 1 -19.5t4 -19.5q0 -1 0.5 -1.5t0.5 -1.5q0 -2 -0.5 -3t-0.5 -3q-4 -1 -12 -1q-21 0 -39 15t-20 36q-1 9 -1 18.5v18.5q0 17 0.5 34.5t2.5 34.5q8 68 17.5 130t29.5 128l-2 2l-31 -26
q-14 -12 -28 -31.5t-23 -35.5q-28 -48 -47.5 -98t-30.5 -104q-2 -10 -4 -17q-26 3 -41 12t-22.5 24t-9.5 34t-2 41q0 79 15 156.5t32 154.5l14 62t17 61q9 29 20.5 57t22.5 56q3 7 6 14.5t8 13.5q5 -3 8 -4.5t8 -1.5q7 0 16 -6.5t14 -11.5t6.5 -8t2.5 -10v-8q0 -14 -4 -34
t-10 -41.5t-12.5 -42t-10.5 -35.5q-11 -41 -21 -80.5t-20 -80.5q-2 -8 -5.5 -21.5t-7.5 -28t-6.5 -27.5t-2.5 -20q0 -1 0.5 -2t0.5 -2q15 22 28 40t28 33.5t32 29.5t40 29q6 4 11 6t12 2q14 0 27.5 -7.5t24.5 -15.5t15 -16t4 -22zM106 188q0 1 1 2h-1v-2zM73 157h2l9 19z
M108 379l-1 -1h1v1zM118 418q0 1 1 2h-1v-2zM130 459h-1v-1zM134 475h-1v-1zM136 482q-1 0 -1 -1h1v1zM157 607h1q0 3 -1 4l3 4l-1 1q0 -1 -2 -5v-4zM154 600q-2 -8 -4 -20q2 5 4 9.5t2 9.5zM111 525h1v1zM109 516h1v2h-1v-2zM107 507l1 3h-1v-3zM96 545h1v1zM91 530
q1 0 2 1v1zM102 491q-7 -23 -13 -46.5t-11 -46.5q2 2 5.5 15t7.5 29t7 30t4 19l2 6l1 4q-1 -1 -1 -4q-2 -4 -2 -6zM71 372q-1 -2 -1 -5l2 -1q-1 2 -1 6zM55 391l2 -1q0 4 0.5 8t0.5 8l2 1q3 11 5.5 20.5t4.5 20.5q-5 -10 -7.5 -20.5t-4.5 -21.5zM68 359q0 -1 1 -2v2h-1z
M66 351q0 -2 -0.5 -3t-0.5 -3l-2 -7h2l3 12zM59 323v-4h1v4h-1zM52 377q2 2 2 4l-2 1v-5zM52 376q-1 -1 -1 -4h1v4zM45 348q-1 -2 -1 -5h2q-1 1 -1 5zM39 314h-1v-2h1v2zM41 322q0 2 0.5 3t0.5 3l-3 -5zM42 329q1 2 1 5h-1v-5zM46 125q0 2 -0.5 2.5t-0.5 2.5q-1 -2 -1 -5h2z
M48 152q-2 -8 -2 -12h2v12zM70 285q-7 -33 -13 -66t-9 -66q4 12 7 26.5t5.5 30.5t5 31t5.5 28q17 78 38 155t41 155l-2 -1q-11 -34 -21.5 -67t-19.5 -67q-11 -40 -20 -79.5t-17 -79.5zM68 107h1v1zM91 101l-1 1v-1h1zM99 125h-1l1 -1v1zM131 207q-9 -9 -19 -28t-19.5 -40.5
t-16.5 -42.5t-10 -33q-1 -2 -0.5 -5t-0.5 -5q3 3 5 9q8 24 16.5 48t19.5 47l25 48v2zM133 209q1 2 2 3t1 3q-1 -2 -2 -3t-1 -3zM240 51h-1v-4l1 1v3zM244 81h-1q0 -1 0.5 -1t0.5 -1v2zM249 113l-2 -7h2v7zM264 180q5 21 9 41.5t7 41.5q-10 -34 -16.5 -67.5t-12.5 -68.5
q5 12 7.5 26.5t5.5 26.5zM282 271h-2v-5z" />
    <glyph glyph-name="i" unicode="i" horiz-adv-x="182" 
d="M241 207l8 8l-1 -6l3 6h-2l2 3v-3l2 4h1l4 7l2 -1q-14 -35 -34.5 -67t-40.5 -64q-11 -18 -22 -36.5t-23 -35.5q-15 -22 -36.5 -50.5t-38.5 -47.5q-5 -5 -9.5 -6t-10.5 -1q-22 0 -36 11.5t-14 34.5q0 41 8 82.5t19 79.5q8 30 15 60t9 61v4q0 4 -1.5 7.5t-1.5 7.5
q0 3 3.5 4.5t5.5 2.5q33 -5 56.5 -23t23.5 -54q0 -29 -8 -55t-16 -53l-22 -74q0 -1 -0.5 -1t-0.5 -1v-1l1 -2q21 26 39.5 54.5t37.5 56.5q11 17 24 32t25 31q7 8 12.5 18t13.5 18l-5 -9l7 8q-12 -20 -25.5 -39.5t-23.5 -41.5l10 12t9 13q8 13 14.5 27t17.5 25zM112 421l5 -1
v-7q3 1 7 5l10 -5l-2 -7l12 -2v-10l5 1q10 -7 10 -17q0 -18 -5.5 -34.5t-5.5 -34.5q0 -10 2 -20t2 -20q-5 -3 -9 -3q-5 0 -9.5 3t-9.5 2q-9 5 -17 15.5t-14.5 23t-10 25t-3.5 23.5q0 6 2 17t6 22t9.5 19.5t12.5 8.5zM81 -11q2 2 5 4.5t5 4.5q30 45 60 88.5t61 88.5l-24 -26
t-20 -27q-13 -21 -26.5 -41.5t-26.5 -41.5q-8 -13 -17.5 -24.5t-16.5 -25.5zM43 -41h2q11 44 23.5 87t24.5 87q-9 -16 -13 -33.5t-9 -34.5q-8 -26 -16 -52.5t-12 -53.5zM195 119l3 3q-2 0 -3 1q2 4 3.5 7.5t3.5 7.5l-12 -17l5 2v-4zM216 154h-2l3 5v4q-6 -8 -9 -15l4 2l2 4
q1 -1 1 -4q1 1 1 4zM225 171q0 3 1 5.5t1 5.5l-9 -17l4 2v-3l2 3h-2zM140 48q-9 -2 -9 -9v-2zM169 87l4 3q2 4 4 7.5t4 8.5q-2 -5 -5.5 -9.5t-6.5 -9.5zM242 213q2 4 3 7t2 7l2 -1q-1 -5 -7 -13zM128 31q-4 -1 -5.5 -4t-3.5 -6zM241 207q0 -4 -4 -8l4 1l1 4zM96 144h-2v-6
q1 1 1 2.5t1 3.5zM225 171v-3l2 3q0 3 1 4h-1v-4h-2zM212 147l3 3h-2q-1 -1 -1 -3zM244 201l-2 -1l-1 -3zM253 223v-3h-1zM252 219v1h-1v-2zM218 158h-1v-2q1 1 1 2zM254 220h-1v-1z" />
    <glyph glyph-name="j" unicode="j" horiz-adv-x="154" 
d="M58 85q8 38 13.5 75.5t13.5 75.5q2 8 5 15t11 10l11 -9l7 3q9 -11 22 -21.5t13 -26.5q0 -13 -2.5 -25t-4.5 -24l-11 -89q-5 -43 -17 -97t-28.5 -109t-37 -106t-43.5 -87q-8 -12 -19.5 -28t-24.5 -24t-33 -8q-18 0 -33.5 10.5t-25.5 25.5q-7 10 -8 22t-1 23q0 96 32 187.5
t93 164.5q14 17 27.5 28.5t35.5 17.5l-4 -8zM-83 -323l5 -1q30 43 49.5 87.5t34.5 95.5q8 26 15 51t14 51q2 8 4 15.5t4 15.5q2 10 2.5 19.5t3.5 19.5h-3q-64 -77 -94.5 -165.5t-34.5 -188.5zM133 430l39 -22q8 -4 8 -13q0 -11 -6.5 -32t-6.5 -41q0 -4 0.5 -8t0.5 -8
q0 -5 -1.5 -10t-3.5 -10q-17 4 -30.5 10.5t-21.5 23.5q-3 6 -5.5 12t-2.5 13q0 5 2.5 15t5.5 21t6 21t5 15q2 4 5 7zM16 -269l-3 -2q-8 -16 -16.5 -32t-19.5 -30q-4 -5 -8.5 -10.5t-8.5 -10.5v-5q21 18 33.5 41.5t22.5 48.5zM-53 -320q-2 -2 -3.5 -5.5t-3.5 -5.5
q6 7 11 13.5t10 13.5q-6 -2 -9 -6.5t-5 -9.5zM10 13q-8 -11 -14.5 -23t-13.5 -23q11 16 18 31q2 4 5 7t5 8zM26 -248q-6 -4 -7.5 -9.5t-2.5 -11.5q2 5 4.5 10.5t5.5 10.5zM-30 -317l-1 -3q-3 -3 -5.5 -6.5t-4.5 -7.5q3 3 7 8t4 9zM-22 -311l-1 2q-2 -1 -3.5 -2.5l-3.5 -3.5z
M-17 -298l-1 -1v-1q1 0 1 1v1zM-41 -77h-1v-2q1 1 1 2zM27 -243h-1l1 -1v1zM54 90v1l-1 -2zM32 -234h-1v-1zM-34 -289l1 -1v1h-1z" />
    <glyph glyph-name="k" unicode="k" horiz-adv-x="305" 
d="M159 65q10 -22 29.5 -50t44.5 -53t52.5 -42.5t53.5 -17.5q13 0 25.5 2.5t25.5 2.5q11 0 22.5 -2t22.5 -4q-7 -11 -19 -18.5t-26.5 -12.5t-29 -7t-26.5 -2q-36 0 -72 11.5t-68 31t-59.5 45.5t-46.5 56q-2 3 -3.5 4.5t-5.5 2.5v-19q0 -17 2 -32.5t2 -32.5q0 -5 -0.5 -10.5
t-0.5 -10.5q-7 1 -13.5 0.5t-13.5 1.5q-8 1 -15 6q-26 17 -33 41.5t-7 53.5q0 60 12.5 119t26.5 117q28 118 60 237q4 15 10.5 37t13 45.5t11 45.5t4.5 36q0 11 -1.5 20.5t-1.5 20.5q3 0 5.5 0.5t5.5 0.5q2 0 6 -2t5 -3q20 -11 30 -35t10 -47q0 -45 -11 -88t-22 -87
q-15 -63 -31 -126t-27 -127q31 48 65.5 81.5t85.5 61.5q8 5 15 5t14.5 -4t14.5 -10t11.5 -13.5t4.5 -14.5q0 -21 -16 -43t-29 -37q-29 -34 -57 -67.5t-56 -67.5zM111 89l6 6l80 94q21 25 42 50.5t40 52.5l-3 2q-61 -34 -101.5 -85t-68.5 -114zM149 78q12 11 23 23l114 138
q3 4 5.5 10t4.5 11q-4 -7 -8.5 -13.5t-9.5 -12.5l-125 -150zM100 147l2 1q8 14 16 27.5t18 26.5l8 10t7 10q4 3 7 7q17 20 37.5 36t40.5 33q-35 -17 -60.5 -46.5t-48.5 -59.5q-8 -11 -15 -21.5t-12 -23.5zM93 97q12 12 19 27.5t15 30.5t17 27.5t19 26.5l1 2q-11 -9 -21 -24
t-19 -31t-17 -32t-14 -27zM255 239q2 5 6.5 9t6.5 9q-17 -17 -31 -39q5 5 9 10.5t9 10.5zM138 192l-2 -4q0 -2 -1 -3v-4q2 2 2 5q2 1 2.5 2t2.5 3l-1 1h-3zM206 181q-7 -6 -10 -12q3 2 5.5 5.5t4.5 6.5zM146 198h-3v-6q2 2 2 4q1 1 4 1q-1 1 -3 1zM161 218h-2v-8l2 6
q2 0 3 1q-2 0 -3 1zM156 211l-1 1l-1 -1v-7l2 5q1 1 3 1q-1 1 -3 1zM151 205h-2v-7q1 2 1 5q3 0 4 1q-2 0 -3 1zM119 155q-4 0 -4 -3v-1l1 -2zM169 226q-1 1 -3 1v-5l2 3q3 0 4 1h-3zM125 168v-5q2 2 2 4zM120 160q-1 -2 -1 -5q2 2 2 4zM122 164v-4l3 3q-2 0 -3 1zM212 187
v1h-1l-3 -5zM130 172q2 2 2 4h-1q-1 -1 -1 -4zM217 264l-1 1l-4 -3zM133 181v-3l2 3h-2zM114 148v-3l2 3h-2zM222 201l-5 -7q4 4 5 7zM113 144h-2v-3zM105 133l1 -2l2 2h-3zM128 172v-3l2 3h-2zM275 266q-4 -4 -5 -7zM230 209h-1l-4 -5zM303 271h-1v-3q1 1 1 3zM92 92h1v1z
M101 99l1 -1v1h-1zM114 123h-1l1 -1v1zM188 159q-1 0 -1 -1zM146 90l-1 1v-1h1z" />
    <glyph glyph-name="l" unicode="l" horiz-adv-x="147" 
d="M179 704q2 6 7 6q11 0 22 -7.5t19.5 -19t14 -24.5t5.5 -23q0 -15 -7.5 -46t-17.5 -65.5t-20 -66t-15 -49.5q-6 -20 -13 -40.5t-13 -40.5l-54 -193q-14 -48 -23 -98t-9 -100q0 -14 2.5 -28t6.5 -28q2 -9 5 -18.5t4 -18.5q-2 0 -4.5 -0.5t-4.5 -0.5q-20 0 -36.5 12
t-27.5 28q-14 19 -17 42t-3 46q0 46 11 110t27 131.5t34 131t33 109.5q4 14 17.5 49t27.5 73t25 69.5t11 39.5q0 9 -7 20zM55 -1q2 5 3 10.5t2 10.5l8 46t10 46q9 36 17.5 72t18.5 72q14 51 30.5 100.5t28.5 100.5q-3 -5 -9 -22.5t-13.5 -41.5t-15.5 -52t-15.5 -53.5
t-13 -46.5t-8.5 -30q-15 -52 -26.5 -105t-16.5 -107zM181 479q-5 -4 -5 -11zM184 488l-2 1q-1 -3 -1 -10zM189 505l-1 1v-1h1z" />
    <glyph glyph-name="m" unicode="m" horiz-adv-x="591" 
d="M55 13q-20 0 -37.5 13t-17.5 35q0 17 3 32.5t6 31.5q8 43 18 86.5t10 87.5q0 5 -0.5 9.5t-4.5 8.5q-2 2 -3.5 4.5t-4.5 3.5l1 3q-3 2 -8 5t-5 7q0 6 9.5 9t14.5 3q8 0 18.5 -3t17.5 -8q26 -17 36 -35.5t10 -49.5q0 -10 -4.5 -33.5t-9.5 -47.5t-9.5 -42.5l-4.5 -18.5l1 -4
q42 62 87 122.5t104 108.5q7 6 14.5 10t17.5 4q8 0 22 -5.5t19 -12.5q4 -5 5 -11.5t1 -12.5q0 -9 -2 -18t-4 -17q-3 -11 -6.5 -24.5t-7.5 -27.5t-7.5 -27.5t-7.5 -22.5l1 -4q4 5 8 8.5t9 8.5l64.5 64.5t69.5 60.5l59 44q7 6 18 6q10 0 28 -9t24 -17q5 -6 5 -15t-11 -41.5
t-25 -70.5t-27 -73.5t-18 -51.5q-7 -23 -13 -46t-13 -46q-1 -3 -1 -7q0 -8 5 -9.5t5 -8.5q0 -10 -10 -11.5t-17 -1.5q-8 0 -17.5 3.5t-18 9t-14.5 13.5t-7 17q-1 5 -1 15q0 21 3.5 45t9.5 49t13 48.5t14 43.5q8 23 17.5 44t19.5 43q-29 -18 -55.5 -45t-51.5 -57t-48.5 -60.5
t-46.5 -55.5q-7 -8 -12 -9.5t-9.5 -1.5t-9 0.5t-11.5 -1.5l-29 18q-7 5 -8.5 11.5t-1.5 14.5q0 15 3 33t7.5 36.5t10 36t10.5 31.5q3 8 7 16.5t6 16.5q1 2 1 5t2 5h-1q-8 -11 -18 -19.5t-18 -18.5q-21 -26 -39.5 -53.5t-36.5 -55t-37 -55.5t-40 -53q-11 -13 -25 -13zM481 3
l2 -1q6 17 9.5 34.5t8.5 34.5q9 34 20.5 67.5t24.5 66.5l40 105q2 4 2 7.5t1 7.5h-2q-20 -48 -39.5 -94.5t-34.5 -96.5q-10 -32 -19.5 -65t-12.5 -66zM279 124l4 -1q3 4 7 14q11 38 22.5 74.5t22.5 74.5q2 8 3.5 15t3.5 14l-3 1zM569 321l-2 1q-18 -45 -38.5 -88.5
t-32.5 -90.5q-3 -11 -5.5 -24t-7.5 -24q5 8 7.5 18t5.5 18q10 28 19.5 55.5t20.5 55.5q8 20 17 39.5t16 39.5zM542 308l-2 1q-21 -42 -39 -84.5t-29 -87.5q5 8 8 17l6 18q8 20 15 40.5t16 40.5q6 14 13 27.5t12 27.5zM47 65h4q21 88 39 177l-3 1q-10 -45 -19.5 -89
t-20.5 -89zM278 238q6 16 14 33.5t10 34.5q-8 -17 -15 -34.5t-12 -36.5zM294 232q8 12 11 25t8 26q-6 -11 -11 -25t-8 -26zM464 105q8 12 8 31zM464 105l-3 -13h2q0 3 0.5 6.5t0.5 6.5zM273 153l-2 1l-3 -9zM283 197h2v10zM290 214l-1 1q-1 -2 -2 -3.5t-2 -3.5q4 4 5 6z
M267 138h1v5q-1 -2 -1 -5zM251 154l-2 -4h1l2 4h-1zM474 60l3 4h-2zM558 197l-2 2q-1 -1 -1 -2h3zM549 177l-2 1v-3zM319 298h-2l1 -3zM276 171h-1v-3h1v3zM460 85h-1v-3h1v3zM513 73h-1q0 -2 1 -3h1q-1 1 -1 3zM533 133h-1v-2h1v2zM553 191q-1 -1 -1 -3h1v3zM277 178h1v3
q-1 -1 -1 -3zM258 183q-1 0 -1 -1t1 -1v2zM477 71l1 -1v3q-1 -1 -1 -2zM182 224q-2 -2 -2 -4zM172 177l2 4q-2 -2 -2 -4zM527 115l-1 1q0 -2 -1 -3zM259 189h1l1 3zM281 189h-1q0 -1 1 -2v2zM529 125q1 0 1 0.5t1 0.5v1zM566 221h-1q0 -2 -1 -3zM583 269q0 -1 1 -1v1h-1z
M534 137h1v1q-1 0 -1 -1zM533 210q-1 0 -1 -1q1 0 1 1zM529 200h-1v-1q1 0 1 1zM262 200q1 0 1 0.5t1 0.5v1zM590 284h-1v-2q0 1 1 2zM569 235l1 -1v1h-1zM264 126l-1 -1h1v1zM517 85h-1l1 -1v1zM458 70l-1 1q0 -1 1 -1zM254 165v1h-1zM572 240l-1 -1h1v1zM573 244h1v1z
M516 167l1 -1v1h-1zM568 230l-1 -1h1v1zM273 163v-1l1 1h-1zM526 195v-1l1 1h-1zM577 251l-1 -1h1v1zM326 221l1 1h-1v-1zM473 57h1v1zM514 162l1 -1v1h-1zM525 108q0 -1 -0.5 -1t-0.5 -1q1 1 1 2z" />
    <glyph glyph-name="n" unicode="n" horiz-adv-x="381" 
d="M59 -28q-22 0 -40.5 17t-18.5 40q0 20 5.5 50.5t14 63t17 63t14.5 51.5q6 19 11.5 40.5t5.5 41.5q0 4 -1 7.5t-2 7.5q2 5 10 5q2 0 7 -2.5l7 -3.5q18 -9 29.5 -27t11.5 -39q0 -22 -6.5 -54t-15.5 -65.5t-19.5 -65.5t-17.5 -54l2 -1q42 58 83 115.5t88 111.5l36 42t37 41
q6 6 12 11.5t14 7.5q7 -1 16.5 -5t18.5 -10.5t15 -14t6 -16.5q0 -5 -2.5 -14t-6 -19.5t-7 -20t-5.5 -14.5q-10 -26 -27 -73t-33 -98t-27.5 -97.5t-11.5 -71.5q0 -17 12 -24q0 -10 -10 -10q-21 0 -34.5 8t-21 21.5t-10 30.5t-2.5 35q0 24 5 51t12.5 54.5t16.5 54.5t16 50
t16 44t17 43q-2 -2 -4.5 -3t-4.5 -3q-33 -34 -61 -73.5t-53 -79.5q-8 -13 -20.5 -33.5t-26.5 -42t-27.5 -40t-23.5 -27.5q-7 -6 -16 -6zM380 328l-3 1q-16 -32 -31 -70.5t-28.5 -79t-25 -81t-20.5 -74.5q2 2 4 6q13 34 22 69t21 69q14 41 30.5 80t30.5 80zM216 197l4 6h2
l5 5q1 2 6 8.5t7 8.5q1 2 5 8t9.5 12t10.5 11.5t7 6.5l-2 1v4q-8 -9 -15.5 -18t-17.5 -16q2 4 11 15t19.5 23.5t20.5 24t14 16.5q-38 -38 -71 -78.5t-63 -84.5v-3l1 -4q7 11 13 18.5l14 17.5q-2 -6 -4 -10l7 4h2q3 4 5.5 7.5t4.5 8.5l3 2q2 4 4 5zM132 112q2 5 4.5 7t5.5 6
q6 7 10.5 14.5t9.5 15.5q34 51 75 95t79 92l3 4l-2 2q-38 -41 -74.5 -83t-68.5 -88q-12 -17 -24.5 -34t-21.5 -36zM308 261l3 2q7 15 14.5 30t15.5 30v5q-10 -16 -17.5 -33t-15.5 -34zM281 275q3 3 5 6t6 5q2 4 5 6t3 7l11 15l-39 -43q2 2 4 3t5 1zM272 22l-7 -25l3 -1
q2 7 2.5 13t1.5 13zM353 310q-5 -8 -8.5 -16t-6.5 -17q4 8 8 16.5t7 16.5zM132 79q5 6 9 12t8 13q-12 -14 -17 -25zM162 126q-3 -5 -7 -10t-6 -11q9 11 13 21zM123 100q-5 -5 -8.5 -10.5t-6.5 -10.5q5 5 8 10.5t7 10.5zM185 159l-8 -12q2 2 6 4v1q2 2 2 7zM147 115h-3
q0 -2 -2 -4h5l1 3zM115 53l4 5q1 2 2 3.5t2 3.5q-2 -2 -4.5 -5.5t-3.5 -6.5zM162 136l-2 1v-3q0 -3 1 -4q0 5 4 5q-1 1 -3 1zM308 261l-3 -7l3 -1v8zM153 123l-2 1v-3q0 -2 1 -3q1 1 1 4h4q-1 1 -4 1zM157 130h-2v-2q0 -2 1 -3v-2q0 -1 1 -1v6q2 0 3 1h-2q-1 0 -1 1z
M165 143h-1v-2q1 -2 1 -6q1 2 1 6l2 1h-2q-1 0 -1 1zM169 134l1 4l-3 -6zM264 -13h1v3h-1v-3zM360 326l-1 1v-4zM90 18l2 4q-2 -2 -2 -4zM185 152l-1 -1v-2q1 1 1 3zM151 98v-2l1 1zM304 248q0 -1 -0.5 -1t-0.5 -1h1v2zM297 229l1 1h-1v-1zM130 84v1l-1 -1h1zM121 72l-1 -1
q1 0 1 1z" />
    <glyph glyph-name="p" unicode="p" horiz-adv-x="325" 
d="M104 51q-5 0 -5.5 -4t-1.5 -8l-6 -35q-10 -57 -19 -116t-9 -117q0 -7 2 -12.5t2 -12.5q0 -5 -11.5 -8t-15.5 -3t-14 3.5t-15 5.5q-18 8 -21.5 22t-3.5 31q0 45 7 90.5t13 90.5l29 211q4 28 9 55.5t5 55.5q0 15 -6.5 20.5t-6.5 13.5q0 6 4.5 7.5t9.5 1.5q9 0 19 -5
t19 -12.5t16.5 -16t10.5 -16.5q5 -12 5 -24.5t5 -24.5q2 2 4 6q10 17 21.5 33.5t24.5 31.5q8 9 21.5 20t29 21t31 17t27.5 7t25 -5.5t23 -14.5t16.5 -21t6.5 -25q0 -7 -2 -17q-8 -33 -28.5 -69.5t-48.5 -70t-61 -60t-64 -38.5q-6 -2 -19.5 -6t-19.5 -4q-2 0 -4 1t-4 1z
M113 88l1 -1q28 14 55.5 35.5t51.5 47.5t44 54.5t33 57.5q5 12 10.5 27.5t5.5 29.5q0 10 -7 16q-24 -5 -44.5 -18.5t-37.5 -30.5q-38 -37 -58.5 -84t-39.5 -95q-4 -10 -7.5 -19.5t-6.5 -19.5zM79 86h-2q-2 -4 -4 -18t-4.5 -30.5t-4.5 -32t-3 -22.5q-3 -17 -6.5 -41
t-7.5 -49.5t-6.5 -50.5t-2.5 -43q0 -5 0.5 -11t0.5 -11h2q0 14 1.5 28t3.5 28q4 27 6.5 54.5t6.5 54.5l13 92q2 11 4 21.5t3 21.5v9zM111 124q5 10 9 20t8 21q11 29 24 54t28 52q-2 -2 -3 -2.5t-2 -2.5q-21 -32 -38 -68t-26 -74zM336 287l-3 -4q-5 -10 -9.5 -20t-9.5 -20
q-10 -18 -20.5 -34.5t-21.5 -33.5q17 20 32 42.5t24 46.5zM126 221q2 2 7 11.5t6 12.5zM282 228q-2 -1 -5.5 -7t-4.5 -8q3 4 5.5 7t4.5 8zM90 171q2 0 3 -1v8zM96 188q-3 -2 -3 -4v-5zM282 229q5 5 8 13zM21 -55l-3 -5l2 -1q0 2 0.5 3t0.5 3zM18 -75h-1v-6h1v6zM304 268
q-3 -5 -6 -10.5t-5 -10.5zM28 0h1v4h-1v-4zM34 -91h1v4h-1v-4zM26 -148h1v4h-1v-4zM293 247q-2 -2 -2 -4q2 2 2 4zM48 3h-1v-3h1v3zM96 188l-1 4h-1zM39 -58h-2q0 -1 1 -2q0 1 1 2zM82 105h1v2h-1v-2zM264 165l1 2l-3 -3zM14 -99h-1q0 -1 1 -2v2zM315 292q0 1 -0.5 1t-0.5 1
v-2h1zM339 297h-1v-2q0 1 0.5 1t0.5 1zM35 43h-1v-2q0 1 1 2zM160 258h-1v-2q0 1 1 2zM81 101l-1 -1h1v1zM16 -87l-1 -1h1v1zM45 -11v-1h1zM32 29l1 1h-1v-1z" />
    <glyph glyph-name="q" unicode="q" horiz-adv-x="260" 
d="M230 234l2 -3l3 4l3 -1l-5 -14l11 8l10 -6q0 -10 -5.5 -30t-13 -43t-15 -45t-10.5 -34l-32 -114q-1 -2 -0.5 -5t-0.5 -5q5 -3 8.5 -3.5t8.5 -0.5q21 0 37 -13t27.5 -31.5t17 -40t5.5 -39.5q0 -19 -7.5 -37t-20.5 -32t-30.5 -22.5t-37.5 -8.5q-30 0 -47.5 14t-27 35
t-12.5 46.5t-3 48.5q0 47 8.5 91.5t19.5 89.5q2 6 3 12t3 12q-14 -11 -28.5 -22t-34.5 -11q-14 0 -26.5 7t-22.5 15q-13 11 -15 27.5t-2 32.5q0 21 5 49t14.5 58.5t23.5 60t32.5 52.5t40.5 37.5t48 14.5q27 0 55.5 -15t45.5 -36q3 -4 5.5 -8.5t2.5 -9.5q0 -8 -7 -17l-8 8
l-4 -5v1q-3 4 -9 7t-11 5q-1 11 -6 19t-17 8q-8 0 -16 -5q-26 -14 -46 -41t-35 -59.5t-25.5 -66t-17.5 -60.5q-2 -5 -2 -10t-1 -10q30 26 57 54.5t50 60.5q2 3 5.5 9t7 12.5t8 11.5t7.5 5t5 -4l3 -6l4 6l10 -3l-2 -10zM183 -254q16 16 27.5 34.5t11.5 41.5q0 33 -12.5 62
t-35.5 53q-6 -26 -11 -52.5t-5 -53.5q0 -22 4.5 -45t20.5 -40zM141 -164q0 30 8.5 75t21 93.5t26.5 94t24 75.5l-1 1q-6 -6 -13.5 -26t-15.5 -47t-16 -57.5t-15 -59t-11.5 -51.5t-6.5 -34q-2 -14 -3.5 -28.5t-1.5 -28.5q0 -12 0.5 -24t5.5 -23q0 10 -1 20t-1 20zM48 117
q3 7 5 14t4 15q13 45 30 85t43 79q2 2 2 5q-15 -13 -29.5 -38t-26 -54t-19 -57.5t-9.5 -48.5zM156 93q-5 -9 -10.5 -27t-11 -41t-10 -48.5t-8 -49.5t-5.5 -43.5t-2 -30.5q5 30 8.5 60t9.5 59q6 31 13.5 61t15.5 60zM141 -35l2 2l12 48t13 47q3 13 6.5 25t5.5 25
q-4 -7 -10 -27.5t-12 -43.5t-10.5 -44.5t-6.5 -31.5zM89 322q-4 -5 -10 -14t-12 -19t-10 -19.5t-4 -15.5l20 34t18 35zM141 -36q-3 -4 -6 -19.5t-5.5 -34.5t-4 -37.5t-2.5 -28.5zM68 241l30 59q-3 -3 -8 -11t-10 -17t-8.5 -17t-3.5 -12v-2zM260 -201q5 10 5 18q0 10 -5 22
v-40zM234 -193h2v22h-2v-22zM111 -181h1v16h-1v-16zM44 229l-2 1l-2 -5l1 -1zM151 -134l-1 1v-5h1v4zM251 -184h-1v-5q1 2 1 5zM135 -113h1v2h-1v-2zM154 -118h-2q0 -1 1 -2q0 1 1 2zM186 25q-1 0 -1 -1t1 -1v2zM200 77q1 0 1 1h-1v-1zM145 -209q-1 1 -1 2v-2h1zM196 62l1 1
h-1v-1zM173 -26v1h-1zM206 98l1 -1v1h-1zM187 32h1v1zM27 182l1 1h-1v-1zM116 268h1l-1 1v-1zM166 -52v1l-1 -1h1zM161 -71h1v1zM134 -130l-1 -1h1v1z" />
    <glyph glyph-name="s" unicode="s" horiz-adv-x="225" 
d="M194 335l-6 -6q-7 1 -13 3t-13 2q-8 0 -15 -6.5t-13 -16t-10.5 -19t-7.5 -15.5q-5 -13 -6.5 -24.5t-1.5 -25.5q17 14 34.5 30.5t42.5 16.5q10 0 21 -5.5t20 -10.5q-15 -13 -31.5 -24t-29.5 -27q-17 -21 -34 -46q22 -43 38 -82t16 -88q0 -23 -10 -42.5t-26.5 -34
t-37.5 -23t-43 -8.5q-14 0 -28.5 4t-26.5 12.5t-20 20.5t-8 28q0 24 8.5 52.5t20.5 58t25.5 57t24.5 48.5q-10 23 -20.5 48t-10.5 51q0 15 6 35.5t17.5 39t26.5 31t33 12.5q10 0 21.5 -4t22.5 -10t20 -14.5t14 -17.5zM97 90l-3 -1q-6 -12 -14 -32t-15.5 -41t-13 -41
t-5.5 -33q0 -9 5 -19q2 2 5 2t5 2q24 13 36 38t12 51q0 19 -4 37.5t-8 36.5zM26 -54l2 -1q8 45 24.5 87t34.5 84q-5 -1 -13.5 -19t-17 -41.5t-16 -44.5t-8.5 -28q-2 -9 -3 -18.5t-3 -18.5zM89 277q8 8 15 23.5t14 26.5q-13 -5 -19.5 -21.5t-9.5 -28.5zM147 -57
q6 9 10.5 18.5t4.5 20.5q0 2 -0.5 4t-0.5 4q-3 -9 -9 -22.5t-5 -23.5h-1zM12 9l2 6q8 15 13.5 31t10.5 32q5 6 7 13.5t6 14.5q-3 -3 -9 -17t-12.5 -30.5t-12 -31t-5.5 -18.5zM78 336q-5 -5 -8.5 -12.5t-5.5 -12.5q4 5 8 12t6 13zM81 304q5 5 8.5 10.5t3.5 13.5zM134 -37
q6 2 6 10v6zM122 -22q-2 -4 -3.5 -8t-3.5 -8q7 5 7 16zM51 106q2 6 4 9q-4 -4 -4 -9zM19 -20h1v7q-1 -2 -1 -7zM124 -17l-2 1v-5zM5 -21v4l-2 -4h2zM2 -31h1v4h-1v-4zM169 -35h-1q0 -1 1 -1v1zM18 -31v1h-1v-1h1zM74 65l-1 -1h1v1zM115 302l-1 1v-1h1zM166 -42l1 1h-1v-1z
M117 307l-1 -1h1v1zM75 120v-1l1 1h-1z" />
    <glyph glyph-name="t" unicode="t" horiz-adv-x="172" 
d="M317 458q0 -6 4.5 -8t9.5 -3q-9 -11 -28 -18t-41 -11.5t-44 -7.5t-35 -5q-27 -88 -44.5 -178t-32.5 -181q-8 -48 -13 -97t-5 -98q0 -20 2.5 -39.5t7.5 -38.5q1 -3 1 -8q0 -7 -7.5 -9.5t-12.5 -2.5q-3 0 -5 5l-6 -9q-9 5 -18.5 7.5t-18.5 7.5q-14 7 -21.5 22t-11 33t-4 36
t-0.5 31q0 79 9 158.5t21 157.5q3 18 5 36.5t6 36.5q4 21 8.5 42t7.5 42q1 5 2.5 10t1.5 10q0 4 -5 4.5t-7 0.5q-8 0 -15.5 -0.5t-15.5 -0.5l1 1q-8 2 -16.5 8.5t-13.5 13.5l1 6l-9 5q2 8 4 11t10 5q17 5 33.5 7t33.5 6q17 22 31 44.5t25 48.5q8 20 19 38.5t22 36.5
q3 5 6.5 9t10.5 4l12 -6l-7 -16q5 5 8 9t7 9l4 -6l8 1l-5 -14l8 7l11 -4v-10l8 2q5 -4 10.5 -8t5.5 -11q0 -2 -5.5 -18.5t-12.5 -36.5l-18 -52q5 1 11 0.5t11 1.5q13 3 25.5 3.5t26.5 0.5q16 0 22.5 -4t16.5 -17zM60 -161q6 143 29 282.5t59 277.5l-9 -1q-19 -62 -31 -125.5
t-23 -126.5q-10 -65 -18.5 -130t-8.5 -131v-23t2 -23zM116 395q-4 -6 -10.5 -30.5t-14 -59t-14.5 -74.5t-12.5 -75.5t-9 -63.5t-3.5 -38v-5q7 44 13.5 87t14.5 86q8 44 17.5 86.5t18.5 86.5zM41 140q11 63 21 125t26 124q-3 -6 -8 -23.5t-10.5 -42t-10.5 -52.5t-9 -53.5
t-6.5 -45t-2.5 -27.5v-5zM172 473q8 20 14 39.5t14 39.5q-2 -4 -5 -7t-5 -6t-6.5 -14t-9.5 -23.5t-8.5 -23t-3.5 -13.5h2q6 0 8 8zM29 49q2 20 5 41t6 41l-3 1l-10 -83h2zM147 490q-6 -6 -7.5 -13.5t-3.5 -15.5q6 6 7.5 13.5t3.5 15.5zM146 334q4 9 5 16q-4 -3 -4.5 -7
t-0.5 -9zM152 351q2 10 4 17q-5 -5 -5 -11q0 -4 1 -6zM50 37h-1q0 -4 -0.5 -7t-0.5 -7h2v14zM47 13h-1l-1 -19h1zM137 288q-4 -2 -4 -5q0 -2 0.5 -2.5t0.5 -2.5zM134 277q-4 0 -4 -4q0 -2 0.5 -2.5t0.5 -2.5zM160 390q4 1 4 7v4zM22 -10h-1v-13h1v13zM26 32h-1v-12h1v12z
M106 133v6h-2v-6h2zM136 298q0 -6 1 -9q0 2 0.5 4.5t0.5 4.5h-2zM117 193q0 4 -1 6h-1v-6h2zM114 178v7h-1l-1 -7h2zM120 221q1 -1 2 -1v7h-1zM43 -52v10h-1v-10h1zM159 383q-2 -3 -2 -5.5t-1 -5.5l3 7v4zM109 149q0 3 -1 5h-1v-5h2zM77 455q-4 0 -4 -4v-2zM103 116v8h-1v-8
h1zM119 214h-1v-8h1v8zM173 602q-2 -3 -3 -5.5t-2 -5.5l5 9v2zM124 240h-1v-7h1v7zM97 87h-1v-7h1v7zM121 363l2 5l-2 1v-6zM127 247v6h-1v-6h1zM140 304v5q-2 -4 -2 -5h2zM130 265l-2 -5l2 -1v6zM146 334l-1 -1q0 -2 -0.5 -4t-0.5 -4l2 8v1zM82 -33v5q-1 -1 -1 -5h1z
M111 166v4h-1v-4h1zM95 63q-1 1 -1 4h-1q0 -3 1 -4h1zM100 104h-1v-4h1v4zM89 27h-1v-4h1v4zM104 294q0 -3 -1 -5h1l1 5h-1zM101 281v-3h1v3h-1zM115 339l-2 -3h2v3zM167 543l3 2h-3v-2zM79 -60h-1v-3h1v3zM86 0v3h-1v-3h1zM116 348l1 -1l2 4zM109 317v-3h1v3h-1zM166 587
q2 2 2 4q-2 -2 -2 -4zM92 48h-1v-4zM43 -27h1v2h-1v-2zM154 568q2 2 2 5zM141 315q-1 -1 -1 -3l1 1v2zM124 378v-2q1 1 1 2h-1zM156 573l2 4q0 -2 -2 -4zM106 302h1v2zM115 472q-1 0 -1 -1zM144 325q-1 -1 -1 -3zM151 350h1v1zM147 490q0 1 0.5 1t0.5 1q-1 -1 -1 -2z
M154 566q0 -1 -0.5 -1t-0.5 -1q1 1 1 2z" />
    <glyph glyph-name="u" unicode="u" horiz-adv-x="330" 
d="M340 126l3 -2q-2 -3 -5 -5l-6 -4v-2h1v1q3 2 7.5 1.5t6.5 1.5q-4 -8 -9.5 -15t-10.5 -15q9 6 15 15l1 -1v1h-1l4 7q0 7 5 12l4 -3q-5 -11 -11 -20.5t-12 -19.5q-8 -14 -19 -31.5t-24 -33t-28.5 -26.5t-33.5 -11q-26 0 -41 15.5t-15 41.5q0 16 1 32t1 32
q-17 -25 -35.5 -49t-40.5 -44q-11 -11 -28 -11q-24 0 -44 14q-17 12 -21 28.5t-4 36.5q0 25 5.5 60.5t16 71.5t25 68.5t32.5 51.5q6 6 10 6q2 0 8 -2.5t12 -3.5v-9q2 3 6 3t6 1l-3 -11l9 4l8 -4q2 -4 2 -7t-4.5 -16t-10 -29t-10.5 -30.5t-7 -19.5q-12 -37 -18.5 -75.5
t-11.5 -76.5q33 32 60.5 67t54.5 71q9 12 16 26.5t13.5 29t13.5 29t17 26.5q3 4 10 8.5t12 4.5q6 0 13 -4t14 -6l-3 -11l7 7h2q1 -3 5 -3l3 4v-2q0 -1 1 -1q0 -12 -7 -28t-12 -28q-17 -47 -27.5 -95t-23.5 -96q0 -1 -1.5 -5.5t-1.5 -5.5q0 -3 0.5 -6.5t5.5 -3.5q7 0 19 10
t24.5 23.5t23 27t15.5 19.5v-1l3 4l-1 -1zM275 247q-8 -11 -17.5 -38.5t-18 -60t-14.5 -62.5t-7 -45q5 15 8 30t8 30q11 37 21.5 73t19.5 73zM58 119q2 2 2 4q9 46 24 88t33 85q2 3 1.5 6t-0.5 6q-10 -19 -20 -42.5t-18.5 -49t-14 -51t-7.5 -46.5zM60 260l20 39
q-14 -17 -20 -39zM196 183q-6 -1 -8 -5t-4 -9zM282 274q7 5 8 5.5t4 8.5zM95 292q4 4 5 6h-1q-4 0 -4 -6zM80 299q2 2 2.5 3t2.5 2l-2 1q-2 0 -2 -2t-1 -4zM56 107l2 -1q0 7 -1 11q0 -7 -1 -10zM236 183q-1 1 -2 1v-4zM203 137q-1 0 -2 -1l1 -2zM74 246h1v3q-1 -1 -1 -3z
M220 130h-1v-2h1v2zM231 169h-1v-3zM47 221v1h-1v-1h1zM281 269v2q0 -1 -0.5 -1t-0.5 -1h1zM276 249h-1v-2q0 1 1 2zM147 117l1 -1v1h-1zM299 280l1 1h-1v-1zM113 265h1v1zM318 72v1l-1 -1h1zM124 292v-1h1z" />
    <glyph glyph-name="v" unicode="v" horiz-adv-x="309" 
d="M260 515l9 -8q16 -3 27 -17t18 -32t10 -37.5t3 -32.5q0 -43 -16 -95.5t-41.5 -104t-56 -97.5t-60.5 -76q-11 -11 -23 -14.5t-26 -3.5q-19 0 -37 11t-29 26q-7 10 -8.5 19.5t-1.5 20.5q0 51 5.5 102t5.5 102q0 26 -7 48q4 3 9 3q13 0 29 -12.5t22 -23.5q7 -14 8 -34t1 -35
q0 -32 -2.5 -63.5t-2.5 -63.5q0 -9 2 -14q30 34 58.5 76t51.5 88t37 94.5t14 94.5q0 20 -0.5 39t-0.5 39zM289 304q-19 -51 -42.5 -98.5t-52.5 -92.5q-8 -13 -18.5 -26t-15.5 -28q38 50 69 102.5t53 111.5q4 10 5.5 15t1.5 16zM236 264l-15 -30t-19 -37t-20.5 -36t-17.5 -27
q24 29 41.5 62t30.5 68zM246 239q-13 -23 -24.5 -47.5t-28.5 -46.5q6 2 7.5 6.5t4.5 9.5t6.5 9t5.5 9q8 15 15 30zM294 314h-2q0 -3 -1 -5zM153 53l3 2v1zM243 279v1h-1v-1h1zM258 191h-1q0 -1 1 -1v1zM243 163q-1 0 -1 -1h1v1zM244 167l1 -1v1h-1zM241 274l-1 -1h1v1z
M228 136l-1 1v-1h1z" />
    <glyph glyph-name="w" unicode="w" horiz-adv-x="401" 
d="M339 446q23 -5 37.5 -19.5t22.5 -34t11 -41t3 -41.5t-4 -53t-12.5 -71t-21 -76t-29.5 -69t-39 -50.5t-48 -19.5q-7 0 -10 1q-35 8 -43.5 28.5t-8.5 52.5q0 26 2 52t2 52q-20 -29 -41.5 -58.5t-44.5 -56.5q-19 -24 -47 -24q-12 0 -24 4.5t-21.5 12.5t-16 18.5t-6.5 23.5
q0 16 7 41t16.5 53t19.5 54t15 43q3 9 4 18.5t1 18.5q0 4 -1.5 9t-2.5 9q2 0 5 0.5t5 0.5q9 0 20.5 -8.5t18.5 -14.5q11 -11 16 -22t5 -27q0 -36 -14 -69t-24 -67q-2 -8 -4 -12v-2q11 11 22.5 24t21.5 25q3 4 14.5 19.5t24.5 33.5t23.5 32.5t11.5 16.5l-11 14q0 5 3.5 6
t7.5 1q23 0 41.5 -18t21.5 -40q2 -14 2.5 -28.5t0.5 -28.5q0 -40 -6 -79q-2 -16 -4.5 -31t-2.5 -31v-6q24 18 44 60.5t34.5 92t22.5 97.5t8 78q0 47 -21 88q-2 4 -3.5 7.5t-3.5 7.5v3zM54 89q4 4 9 16t9.5 25.5t8.5 26.5t7 20l-3 1q-8 -23 -15.5 -45t-15.5 -44zM172 163h1v1
zM169 181q-3 -3 -3 -4zM162 153q-1 -1 -1 -4q1 1 1 4zM149 131q0 1 -1 1zM195 160l-1 -1h1v1zM131 88q5 6 16.5 20.5t23.5 31t21.5 30.5t11.5 19h-1q-19 -25 -36.5 -50.5t-35.5 -50.5zM199 222q1 2 2.5 3.5l3.5 3.5l-2 1q-1 -2 -2.5 -4t-1.5 -4zM248 102h-2l-6 -45
q0 -10 -1 -15h3l-2 15l3 2zM314 67l-1 1v-3zM369 260q1 -1 1 -3h1l-1 3h-1zM367 246q0 -4 1 -6v6h-1zM366 227q-5 -3 -5 -7.5t-1 -9.5l6 17l2 11q-3 -2 -3 -4t0.5 -3.5t0.5 -3.5zM363 172v-1q1 0 1 1h-1zM359 157h1v4l2 1v1l-3 -2v-4zM357 196q-2 -6 -2 -8zM350 127h1
q0 1 -1 1v-1zM328 101q-2 -3 -4 -9zM349 167q-3 -11 -7.5 -22.5t-6.5 -22.5q4 9 6.5 18.5t6.5 18.5zM373 127l-1 1v-1h1zM377 143l-1 -1h1v1zM370 145q8 26 14.5 52t8.5 53l-2 -2q-9 -49 -22.5 -96.5t-32.5 -94.5q4 4 9 16t10 25.5t9 26.5t6 20zM393 253q1 3 1.5 5.5
t0.5 5.5h-2v-11zM397 274v5h-2q1 -1 1 -5h1z" />
    <glyph glyph-name="x" unicode="x" horiz-adv-x="277" 
d="M135 221q23 30 47.5 59.5t50.5 55.5q6 6 12.5 10.5t15.5 4.5q2 0 3 -0.5t3 -0.5q6 -5 12.5 -10.5t12.5 -11.5l-3 -7l7 1q2 -4 8 -10q-45 -38 -82 -84t-71 -94q6 -16 12.5 -38.5t15 -45t19 -42t23.5 -30.5q5 -5 8 -7.5t4 -10.5q-4 0 -7.5 -0.5t-7.5 -0.5q-23 0 -40.5 10
t-31 25t-24 33.5t-18.5 36.5q-17 -25 -31.5 -51t-25.5 -54t-19 -56.5t-18 -56.5q-2 9 -7 10t-12 3q-14 5 -16 18t-2 24q0 29 11 61.5t27.5 64.5t35 62t33.5 54q-12 48 -22.5 95t-14.5 96l-9.5 9.5l-9.5 9.5q0 12 12 12q15 0 29 -7q23 -12 35 -26.5t18.5 -31.5t9.5 -37t7 -42
zM273 310l-1 2q-18 -12 -32 -29q-3 -4 -17.5 -21.5t-30.5 -37.5t-29 -36.5t-14 -18.5l-3 -8l2 -1q30 39 60 77.5t65 72.5zM95 88q-5 -5 -12 -15.5t-13.5 -23t-12.5 -25t-10 -21.5l10.5 17.5t16 26t15 25.5t6.5 16zM246 327q-13 -7 -22.5 -19t-17.5 -23q10 11 19.5 21
t20.5 21zM255 314q-11 -4 -17.5 -13.5t-13.5 -17.5l15.5 15.5zM142 205q4 3 8 9t7 11q-5 -5 -9 -10t-6 -10zM26 -43h1q0 2 -1 2v-2zM181 256l2 2z" />
    <glyph glyph-name="y" unicode="y" horiz-adv-x="324" 
d="M295 337q6 -8 12.5 -15t12.5 -15l-8 -42q-2 -10 -4 -19.5t-4 -19.5q-5 -27 -8 -54.5t-5 -54.5q-3 -33 -5.5 -65.5t-6.5 -65.5q-3 -32 -7 -63.5t-10 -62.5q-7 -35 -18 -73.5t-27.5 -76t-38.5 -71t-49 -57.5q-14 -13 -31 -22t-37 -9q-16 0 -31.5 6t-28.5 14
q-20 13 -26 32.5t-6 41.5q0 17 1.5 34.5t6.5 33.5q2 9 9 27t16 40.5t20.5 45.5t23 42.5t23.5 31.5t22 12q7 0 19.5 -6t17.5 -11q-22 -14 -33.5 -34t-21.5 -43q-15 -34 -26.5 -64t-19.5 -66q0 -1 -0.5 -1.5t-0.5 -1.5q-2 -10 -3.5 -19t-1.5 -19q0 -17 5 -29.5t9 -27.5l22 18
q10 9 20 22t18.5 28t16 30t12.5 27q34 81 49 165.5t30 170.5q6 31 6 63q-7 -12 -21.5 -33.5t-32 -42.5t-35.5 -36.5t-32 -15.5q-5 0 -7.5 1.5t-7.5 3.5l-10 5q-24 12 -39.5 25.5t-15.5 46.5q0 31 11 66.5t20 65.5q8 25 16.5 52t8.5 53q0 9 -1.5 18.5t-1.5 18.5
q17 -3 29.5 -14t20.5 -25.5t11.5 -31t3.5 -32.5q0 -44 -11 -85t-21 -83v-11q48 51 82 106.5t63 117.5q6 14 14.5 28t18.5 25l12 11l2 -16q-3 -1 -3 -4q1 2 1.5 2.5l1.5 1.5q7 2 9 5zM128 75q-2 -2 -2 -3zM92 -121q-2 0 -3 -2q2 0 2 -2v3q0 1 1 1zM76 -148q-1 -1 -2 -1t-2 -2
q2 0 2.5 1t2.5 1q0 2 1 4t1 4zM-14 -307q1 1 1 3q0 3 -1 4v-7zM-12 -292q0 1 0.5 1.5t0.5 1.5t-0.5 1t-0.5 2v-6zM29 -248q1 1 1 4q-1 -1 -1 -4zM37 -222l-2 -5q0 -5 -4 -13l3 3zM42 -215l-2 -1zM50 -200q0 1 -0.5 1.5t-0.5 1.5v-4zM61 -124l2 1q0 2 2 2q-2 0 -4 -2v-1z
M61 -127q-1 -1 -1 -3zM55 -140q-2 -2 -3 -4t-4 -4q2 0 2.5 0.5t2.5 0.5zM43 -162q-7 0 -7 -7q0 -3 1 -4zM37 -174q-3 0 -4 -1q3 0 4 1zM30 -183q-1 -1 -1 -5q0 2 0.5 3t0.5 2q2 4 2 7q-2 -4 -2 -7zM29 -194q-8 -2 -10 -5.5t-2 -11.5q2 5 5.5 8.5t6.5 8.5zM-2 -266q2 4 2 6
q0 -1 -1 -2.5t-2 -3.5q-2 0 -2 -4q2 1 2 4h1zM0 -250q0 -4 1 -6q0 5 -1 6zM5 -245q1 1 1 5zM7 -239q1 3 1 8zM14 -296q0 1 -0.5 1.5t-0.5 1.5v-4zM16 -218q1 2 1 5q-1 -2 -2 -4.5t-3 -4.5zM17 -276q3 0 3 3q0 1 -0.5 2t-0.5 3q-2 -4 -2 -8zM232 241q0 -5 -3.5 -9.5
t-3.5 -10.5q2 8 6 11q0 2 0.5 4.5t0.5 4.5zM225 220q-3 -1 -6 -4zM213 206q0 -2 -0.5 -4t-0.5 -4q1 2 1 4t2 4v4zM155 115q-1 -1 -1 -4zM136 43q3 0 5 2q-1 -1 -2 -1t-3 -1zM157 65q2 4 2 8q-1 -2 -2.5 -4.5t-7.5 -7.5l-1 -1q-2 -2 -2 -3q0 1 1.5 2t2.5 2q3 0 4 1zM167 81
q0 1 0.5 2t0.5 3q-1 -2 -1 -5zM170 129q0 2 0.5 3.5t0.5 3.5l4 2q-3 0 -4 -1l-2 -7l-4 -2q-3 -3 -5 -11q1 3 4 7.5t6 4.5zM172 88q3 2 4 3q-1 0 -4 -3zM178 98q1 1 2.5 1t2.5 2l-5 -2q-2 -4 -2 -7q0 1 1 2.5t1 3.5zM182 148q1 2 1 3.5t2 3.5l3 2q-1 -1 -2 -1t-3 -1
q0 -2 -0.5 -3.5t-0.5 -3.5q-2 0 -3 -0.5t-3 -0.5q-1 -2 -1 -6q0 1 0.5 2t0.5 3q2 1 3.5 1t2.5 1zM192 117q0 -1 -0.5 -1.5t-0.5 -2.5q-4 0 -4 -2v-1q1 2 2 2t2 1zM197 124q4 2 4 6q-2 -2 -2.5 -3zM196 173q2 1 3.5 1t2.5 2q-3 0 -4 -1l-2 -2l-1.5 -3t-2.5 -3h3q0 2 0.5 3
t0.5 3zM206 189l1.5 3t2.5 3l-6 -5q0 -2 -0.5 -3.5t-0.5 -3.5zM208 144q2 2 4 3l1 1l2 7q-2 -4 -2 -7l-5 -1v-3zM195 -208l-3 -9l3 4v5zM184 -174q0 -1 -0.5 -1t-0.5 -1v-1q0 -1 1 -1v4zM181 -185q-2 -2 -2 -3q0 -2 1 -3q1 2 1 6zM140 -300q0 2 1 3q-2 -2 -2 -4zM154 -265
q2 4 3.5 7.5t3.5 7.5q-2 -2 -4 -6t-3 -9zM165 -332q1 2 1 6q-1 -2 -1 -6zM166 -238q2 8 3.5 16.5t3.5 16.5l-10 -33q-2 -2 -2 -5q0 2 2 4zM174 -313q9 5 18.5 27.5t17.5 49t13.5 51t7.5 32.5q-2 -3 -8.5 -21.5t-13.5 -40t-13.5 -42t-9.5 -28.5q-3 -7 -5.5 -14t-6.5 -14z
M231 -151q2 6 4 10q-5 0 -5 -4q0 -2 0.5 -3t0.5 -3zM233 -130q0 -7 2 -10z" />
    <glyph glyph-name="z" unicode="z" horiz-adv-x="370" 
d="M358 59q3 -12 3 -25q0 -26 -13 -59.5t-34 -68.5t-49 -68.5t-57.5 -60t-59 -42.5t-54.5 -16q-17 0 -34 6.5t-30.5 17.5t-21.5 27t-8 34q0 21 11 42t27.5 40t36.5 34t37 23q6 3 12.5 5.5t13.5 5.5l3 -5l17 -11v-7l6 3l2 -4l7 4l2 -2q-4 -5 -7 -10.5t-8 -10.5
q-15 -16 -31.5 -30.5t-30 -30t-22 -34.5t-8.5 -44q21 6 46.5 23.5t51 42.5t49 55t42 60.5t29.5 59t11 51.5q0 6 -0.5 12.5t-1.5 12.5q-8 2 -12 2q-23 0 -50.5 -10t-55.5 -24.5t-54 -30t-46 -27.5l-8 7l-5 -1v2q0 5 -5 5.5t-8 1.5l3 8l2 2l-1 1l-1 -2l-10 -5q-1 2 -1 6
q0 8 10 29t25.5 48.5t34 59t36 60t31.5 51t20 32.5q-24 -9 -54.5 -18.5t-55.5 -9.5q-15 0 -26 3t-19.5 9t-16 14.5t-16.5 19.5q0 11 9 11q11 0 20.5 -2t20.5 -2q50 0 102 19t97 39q12 6 24 9q16 -6 26 -18t21 -25q-6 -12 -16 -26.5t-21.5 -29l-23 -29t-20.5 -26.5l-83 -123
l-2 -4q22 5 39 13t42 8t44 -9.5t37 -25.5q11 -9 19 -18.5t11 -23.5zM170 141h-1v-1zM236 317q-3 -2 -8.5 -8.5t-11.5 -15t-11 -16t-8 -11.5q11 9 20 24.5t19 26.5zM268 327q-7 -4 -20.5 -21t-27.5 -37t-26.5 -39.5t-16.5 -27.5q6 10 18 28.5t25.5 38t26.5 36t22 22.5h-1z
M148 188q-2 -2 -2 -4zM140 175l1 1v2l-1 -2v-1zM134 165q-2 -2 -2 -4zM130 126q-3 -1 -3.5 -2.5t-1.5 -3.5q4 4 5 6zM126 96q4 2 10 8q11 15 20.5 31.5t20.5 32.5q22 33 44.5 65.5t45.5 64.5q16 21 35 41q-9 -2 -14 -7q-16 -16 -39 -47t-46 -66t-44 -68.5t-33 -54.5z
M155 117h-1v-1zM75 -167l-1 1v-1h1zM41 -140q-12 -8 -15 -25zM42 -167q5 2 6.5 5.5t2.5 8.5q-3 -3 -5 -6.5t-4 -7.5v-3h1zM79 -142q-12 -7 -19 -22t-9 -28q6 12 13 25.5t15 24.5zM224 -176l-1 -1h1v1zM301 -41l1 3l-1 1v-4zM298 -44q-5 -11 -11.5 -22.5t-14.5 -20.5l3 1
q1 2 4.5 8t7.5 13t7.5 13t3.5 8zM284 -33q-8 -14 -16.5 -28.5t-16.5 -28.5q10 14 19 27.5t14 29.5zM259 -106q-1 0 -1 -1h1v1zM246 -96l-2 -2q2 0 2 2zM307 -87l-1 -1h1v1zM324 -58h-1v-1zM332 -7q-1 -1 -1 -3q-11 -14 -18 -31t-16 -33t-18.5 -32.5t-21.5 -30.5
q-5 -5 -9 -10.5t-8 -11.5q22 23 41 49t33 55q5 11 8.5 22.5t8.5 22.5z" />
    <glyph glyph-name="b" unicode="b" horiz-adv-x="312" 
d="M87 165q11 8 17.5 19t14.5 21q10 12 24.5 26.5t31.5 27.5t35 21.5t34 8.5t28 -9t20.5 -22t13 -29t4.5 -29q0 -3 -0.5 -6t-0.5 -6q-3 -35 -13.5 -69t-27.5 -64.5t-42 -56t-56 -42.5q-14 -8 -29 -8q-10 0 -20.5 5t-19.5 13t-14.5 18t-5.5 20t4.5 20.5t12 20t17 17
t18.5 10.5l-5 -8v-2l-6 -11q7 4 14 11q4 -2 4 -6q0 -2 -1.5 -4.5t-2.5 -4.5l13 5l-7 -16q25 15 48 39t40.5 53t29 60.5t14.5 60.5q-4 2 -8 2.5t-9 0.5q-9 0 -19 -3.5t-18 -7.5q-30 -14 -56.5 -42.5t-47.5 -63t-36 -71.5t-21 -68h-6l-5 -8q-23 8 -35.5 24t-12.5 40
q0 29 6.5 57t14.5 55q4 16 15.5 54.5t27 87t33 101t35 96t33.5 71.5t27 28q3 0 7 -2q2 -6 3.5 -8t5.5 -7q8 -9 10.5 -23t2.5 -25q0 -7 -7 -26.5t-16 -42t-17.5 -42.5t-11.5 -29q-23 -57 -43 -115t-40 -117l1 -1v1zM165 -20h2q26 15 45 34.5t33 46.5q-17 -23 -37.5 -43
t-42.5 -38zM211 271l-3 -1q-10 -5 -22 -13.5t-24 -18.5t-22 -20.5t-16 -19.5l44 43q3 3 9.5 7.5t13.5 9t12.5 8t7.5 5.5zM205 67q-7 -11 -22.5 -26.5t-26.5 -23.5q13 8 21 16.5t19 19.5q3 3 6 5t3 7v2zM206 246q-20 -13 -33.5 -24.5t-28.5 -29.5l16 16l16 16q7 6 14.5 11.5
t15.5 10.5zM180 235q2 2 3.5 2.5t3.5 1.5l2 3q3 0 5 1h-5l-1 2l-1 -2q-5 0 -6 -4l-3 -2v-2q1 -1 1 -3q1 1 1 3zM179 232q-3 0 -5 1h-2l-7 -7v-4q3 3 6.5 5.5t7.5 4.5zM161 217q-10 -1 -12 -13zM225 275q-1 1 -1 3l-11 -6zM207 38v1l-18 -18zM181 14l8 7q-6 -2 -8 -7z
M224 255l-18 -9q9 3 18 9zM200 247h-5l1 -1q3 0 4 1zM113 185q-2 -2 -2 -4zM207 252q2 0 4 2zM161 -22l1 -1l1 2q0 -1 -2 -1zM230 19h-1v-1zM200 19h-1v-1z" />
    <glyph glyph-name="C" unicode="C" horiz-adv-x="448" 
d="M446 334q-2 2 -4.5 3t-5.5 3q-18 8 -25.5 16t-16.5 25q-11 23 -13.5 47.5t-2.5 49.5v31.5t1.5 33.5t5 33t11.5 29q-13 8 -28 8q-29 0 -55.5 -16.5t-46.5 -35.5q-37 -36 -66.5 -79.5t-50 -91.5t-31.5 -99.5t-11 -102.5q0 -19 2 -48t10.5 -56t24 -46.5t42.5 -19.5
q19 0 45.5 13.5t51 34t41.5 44t17 43.5q0 14 -6.5 27l-12.5 25l2 3q4 0 12 -2q14 -5 28 -13t25.5 -19.5t18.5 -25.5t7 -30t-6 -31.5t-15.5 -30t-21 -27t-22.5 -22.5q-29 -26 -66 -42t-77 -16q-44 0 -78.5 17.5t-60 46t-41.5 65.5t-23 76q-6 37 -6 76q0 58 15 118.5t43 116
t68 102.5t90 79q18 11 38.5 19.5t42.5 8.5q36 0 68 -9.5t61 -32.5q11 -8 21.5 -17t18.5 -20q3 -5 7 -12.5t4 -12.5q0 -3 -1 -5q-12 -36 -17.5 -73t-5.5 -75q0 -14 1.5 -28t1.5 -28q0 -16 -8 -27zM88 315q2 5 3.5 9t3.5 9q10 30 20.5 55t22.5 47.5t26 45t32 48.5q2 2 2.5 5
t1.5 5q-46 -47 -73 -103.5t-39 -120.5zM129 534q-20 -23 -35 -49.5t-25 -55.5q3 3 12.5 18.5t20 33t19 33.5t10.5 21zM95 416l48 89q-4 -2 -11.5 -12.5t-15 -23.5t-13.5 -25t-7 -17q-1 -3 -0.5 -5.5t-0.5 -5.5zM357 55q6 0 11.5 6.5t9.5 14.5t6.5 16.5t2.5 13.5l-27 -49z
M350 113q-3 -4 -5.5 -8t-4.5 -8v-2q2 4 6 7t4 11zM63 411q4 3 4.5 6.5t0.5 8.5q-2 -4 -3 -7.5t-2 -7.5zM358 87l8 11q-5 -1 -6 -4t-2 -7zM84 397l3 -1l3 10zM80 382h1l2 3q-1 1 -2 1q-1 -1 -1 -4zM368 103h-2q0 -3 1 -4q0 3 1 4zM140 407q0 1 -1 1h-1q0 -1 1 -1h1zM352 118
h-1v-2q1 1 1 2zM115 431l2 2zM141 413l1 -1v1h-1zM136 402v-1l1 1h-1z" />
    <glyph glyph-name="D" unicode="D" horiz-adv-x="626" 
d="M247 278q17 3 33 5.5t33 2.5q35 0 63.5 -6.5t52.5 -35.5q3 -3 8 -9.5t10 -13.5t8.5 -14t3.5 -10q0 -4 -4 -12q-6 -1 -11.5 2t-11 7t-10 9t-8.5 8q-9 8 -19.5 9.5t-21.5 1.5q-15 0 -35 -2.5t-40.5 -7.5t-39 -12t-30.5 -15q-2 0 -5 -3v-13q0 -13 1.5 -28.5t8.5 -26.5
q3 -5 11 -15t8 -15q0 -3 -3 -5.5t-6 -2.5h-1l-2 1q-15 4 -24.5 8.5t-16 10.5t-12.5 14t-15 21q-8 -11 -11 -25t-3 -28q0 -5 0.5 -10t2.5 -9q3 -8 13.5 -13t23 -8t24.5 -4t19 -1q27 0 54.5 7.5t51.5 18.5q79 38 135.5 99.5t82.5 145.5q7 22 11 45t4 46q0 38 -8.5 74t-28.5 68
q-14 22 -34.5 41t-45 33.5t-51 24t-51.5 12.5q-12 2 -24.5 3.5t-25.5 1.5q-25 0 -50 -3.5t-49 -8.5q-27 -6 -56 -20.5t-53 -36t-39 -49t-15 -57.5q0 -23 11.5 -35.5t23.5 -29.5q-2 -4 -5 -4t-5 1q-16 6 -29.5 17t-23.5 25.5t-15.5 31.5t-5.5 34q0 13 5 30q8 27 26 52t39 44
q22 19 49 33t56.5 22t59.5 12t59 4q42 0 84.5 -12.5t81 -35t70.5 -53t54 -66.5q26 -43 45 -92.5t19 -100.5q0 -26 -2 -46.5t-6.5 -39t-10.5 -38t-15 -43.5q-8 -20 -20 -38t-24 -35q-18 -24 -44.5 -49t-57.5 -46t-64 -36t-62 -20q-14 -2 -28 -3.5t-28 -1.5q-21 0 -41.5 5
t-40.5 12q-29 11 -51 30t-39 45q-11 18 -19 37.5t-8 40.5q0 23 9.5 41.5t20.5 33t20.5 23.5t9.5 13v11q0 18 5 39t12 42.5t15 42t14 37.5q3 10 7.5 23.5t8.5 28t7 28.5t3 23q0 13 -4 22t-9.5 16t-9.5 13.5t-4 15.5q0 7 7 7q5 0 8 -0.5t8 -3.5q15 -9 27.5 -26.5t21 -37.5
t13.5 -41t5 -38q0 -44 -12 -83t-23 -81zM559 149q-5 -2 -14.5 -13.5t-13.5 -16.5q-23 -26 -49.5 -47.5t-54.5 -41.5q-2 -1 -4 -5q42 20 77.5 51.5t58.5 72.5zM410 66q25 15 48.5 34t39.5 43q-9 -10 -18.5 -18.5t-19.5 -16.5q-13 -11 -26 -20t-24 -22zM443 64h2
q21 15 36.5 29t31.5 35q-17 -10 -35.5 -30t-34.5 -34zM63 568q11 13 23 25t25 22q4 3 12 7.5t10 9.5q-12 -8 -22 -13.5t-18.5 -12.5t-16.5 -16t-15 -23zM104 650q-10 -5 -23.5 -15t-18.5 -19q-1 -1 -0.5 -1.5t-0.5 -1.5zM70 603h1q5 2 5 3q8 6 15 12t14 13q-2 0 -7 -3.5
t-10.5 -8t-10.5 -9.5zM508 69q6 2 14 10t11 14zM149 208q-1 1 -2 1l-13 -15l1 -1zM159 160h-1q-2 -3 -3 -5.5t-2 -5.5q6 3 6 11zM496 59q-3 -3 -6 -5t-6 -5q5 2 12 9v1zM149 178l1 -1l3 5l-3 1v-5h-1zM438 61l-5 -2l2 -1q3 0 3 3zM506 68l-5 -5l4 2l2 3h-1zM521 136l-1 1
q-1 -1 -1 -4zM407 18q1 -1 3 -1l3 2q-2 -1 -6 -1zM151 146h1v1q-1 0 -1 -1zM52 602l-1 -1q1 0 1 0.5t1 0.5h-1zM59 611l-2 -2z" />
    <glyph glyph-name="E" unicode="E" horiz-adv-x="401" 
d="M329 297l6 -1l-5 -6q-9 -9 -26 -12.5t-29 -5.5q-33 -4 -66.5 -8t-66.5 -7q-8 -31 -15 -61.5t-12 -61.5q-8 -46 -17.5 -92.5t-9.5 -93.5q0 -10 0.5 -20t5.5 -19q33 0 60 5.5t52 14.5t49 21.5t53 27.5q14 7 27.5 14t29.5 9l17 -8l4 -8h10l-8 -16l15 11v-11l8 11l2 -2
q-7 -34 -33 -56.5t-55 -36.5q-13 -6 -26 -13t-27 -12q-25 -9 -54.5 -14t-55.5 -5q-44 0 -81 7.5t-68 42.5q-12 14 -22 30q-3 5 -4 14t-1.5 19.5t-0.5 20.5v16q0 21 3 42q15 103 41 203.5t60 199.5q9 27 20 52.5t23 51.5q5 11 11 21.5t11 21.5q4 8 4.5 17t0.5 18q8 2 14.5 4
t13.5 7t12 6l7 -9l51 2q29 1 58.5 3.5t58.5 2.5h20t23 -1.5t22.5 -4.5t17.5 -8l-5 -5l7 -7l-5 -10l8 -2v-2l-43 -6h42l-2 -3l5 -2l-1 -3q-8 -6 -17 -8t-19 -2q-49 -1 -97.5 -3.5t-97.5 -7.5q-18 -57 -37 -112.5t-34 -112.5q27 2 53.5 5.5t53.5 3.5q28 0 57 -6v-3l-9 -5
l13 -8l-9 -6l5 -2l-1 -4l6 1l1 -3l-64 -14q16 0 31.5 2.5t31.5 6.5zM350 587h-17q-23 0 -47 -2t-47 -4v-2zM148 280l1 -3q17 3 32.5 5.5t32.5 4.5l-1 2q-17 -2 -33 -3.5t-32 -5.5zM221 290v-2h14l-1 2h-13zM243 291v-1h14v1h-14zM397 588v1h-14v-1h14zM184 317v2h-5l1 -2h4z
M359 589v-1h5v1h-5zM91 175l-1 1v-5h1v4zM165 316v-1h3v1h-3zM409 588v1h-3v-1h3zM84 143h1q0 3 -1 4v-4zM94 191h1v2h-1v-2zM105 238l-1 -1q0 -1 1 -2v3zM97 201h-1v-2zM202 321h-1v-1h1v1zM373 589h-1q0 -1 1 -1v1zM301 616q-1 0 -1 -0.5t-1 -0.5h2v1zM311 289h-1v-1
q1 0 1 1zM87 156l-1 -2v-1q1 1 1 3zM81 115h-1v-2q0 1 1 2zM106 244h1v1zM98 208l1 1h-1v-1z" />
    <glyph glyph-name="F" unicode="F" horiz-adv-x="450" 
d="M698 528q-3 6 -7 12.5t-4 14.5q0 6 3.5 13t7.5 11q-11 4 -23 5t-23 1q-60 0 -117.5 -12t-115.5 -23l-35 -7q-2 -1 -3.5 -2t-3.5 -1q5 -17 5 -31q0 -5 -8.5 -32t-19 -59t-21 -61t-13.5 -39q35 4 69.5 9.5t69.5 5.5q8 0 16.5 -0.5t16.5 -1.5v-4q-5 -1 -8 -2.5t-8 -2.5
q-16 -4 -32.5 -4t-32.5 -2l-30 -4t-30 -6q32 3 64 7.5t64 4.5h12q0 -5 -3.5 -7.5t-8.5 -2.5l7 -4h7q-5 -5 -31.5 -9.5t-57.5 -8.5t-58.5 -7t-34.5 -6v-2q44 5 86.5 11t86.5 11v2l9 -5q-3 -6 -10 -9.5t-15 -6t-16.5 -3.5t-13.5 -2l-136 -16q-14 -66 -30.5 -132t-16.5 -133
q0 -9 0.5 -18.5t1.5 -18.5q2 -14 6.5 -27t4.5 -27q0 -2 -2 -8q-7 2 -12 7l-10 10q-26 27 -36.5 66t-10.5 76q0 49 11 95.5t20 94.5q-17 0 -34 -4t-34 -4l-6 13q20 4 39 7.5t39 6.5v5l-80 -15l-1 2l4 5l-8 14l6 4l-4 11q7 4 19 7.5t26 6t27 4.5t21 4q17 55 35 110l36 110
q-85 -21 -169 -36q-10 -2 -20 -3t-20 -1q-17 0 -35 3.5t-32.5 12t-23.5 22.5t-9 34q0 10 1.5 18t11.5 14q2 -4 6.5 -14t6.5 -12q8 -8 27 -10.5t30 -2.5q19 0 37.5 2.5t36.5 6.5q59 12 116.5 26t116.5 27q66 14 130.5 23.5t131.5 9.5q38 0 56.5 -15.5t18.5 -55.5
q0 -17 -8.5 -34.5t-28.5 -17.5zM655 604h-25q-10 0 -30.5 -2t-47 -5.5t-55.5 -8t-54.5 -9.5t-44.5 -9.5t-26 -8.5l1 -4q70 16 140 30t142 17zM561 625q-18 -2 -36 -3.5t-36 -5.5q-35 -7 -70 -13.5t-69 -17.5q20 1 48.5 8.5t50.5 12.5q28 5 56 9t56 10zM322 548
q-54 -11 -107 -23t-108 -19q55 2 108 15t107 27zM325 578h-8q-4 0 -23.5 -4t-42.5 -9.5t-43.5 -10.5t-26.5 -7l86 19q14 3 29 5t29 7zM225 288q-24 -2 -44 -10q8 1 23 3t21 7zM500 601q10 2 20.5 3t19.5 5q-10 -2 -20 -3t-20 -5zM474 597l26 4q-2 1 -7 1q-9 0 -19 -5z
M589 627v4l-21 -4h21zM393 581l-1 -1h4q10 0 16 6zM364 574h6q5 0 10.5 1t10.5 5q-7 -2 -13.5 -3t-13.5 -3zM293 555l-20 -2q2 -1 7 -1q7 0 13 3zM601 631v-1h25v1h-25zM330 304h13v3zM179 277q-2 0 -3.5 0.5t-3.5 0.5q-3 0 -4 -3q3 0 5.5 0.5t5.5 1.5zM273 553l-15 -6
q4 1 8 1.5t7 4.5zM203 534l9 2q-2 0 -3 0.5t-3 0.5q-3 0 -3 -3zM127 537q3 0 9 2h-9v-2zM559 610q5 0 13 2l-1 1zM427 301v2l-11 -4zM395 298q8 0 12 1h-12v-1zM449 303l-1 1h-9v-1h10zM385 295v1h-9v-1h9zM357 294v-1h9v1h-9zM320 302l8 2h-9zM324 290v-1h6v1h-6zM117 536
v1h-6v-1h6zM461 306v-1h5v1h-5zM178 263v1h-5v-1h5zM145 524q3 0 5 1h-6zM161 527v2l-4 -2h4zM170 531v-2q3 0 4 1q-3 0 -4 1zM238 289l-1 2l-3 -2h4zM211 271l-1 -1l2 -1l2 1q-2 0 -3 1zM191 265v1h-3v-1h3zM345 291v1h-3v-1h3zM223 273q0 -1 1 -2l2 1zM404 274v1h-3l1 -1
h2zM449 279v1h-2v-1h2zM128 522v-1h3zM452 568h-2q0 -1 2 -1v1zM314 264v-1q1 0 2 1h-2zM464 569v1h-2q1 -1 2 -1zM201 268h-1v-1h1v1zM379 551l-2 -1h2v1zM269 524v1h-2zM439 565h1v1zM183 531l-3 -1q2 0 3 1zM529 582h-1l1 -1v1zM310 534l-1 1v-1h1zM206 510v1h-1z
M280 528h-1l1 -1v1zM381 570h-1l1 -1v1zM545 584h-1l1 -1v1zM183 507v-1h1zM442 296l1 -1v1h-1z" />
    <glyph glyph-name="G" unicode="G" horiz-adv-x="454" 
d="M369 310q-16 0 -34.5 0.5t-35.5 4.5t-32 13t-24 24q-2 4 -2 7q0 5 3.5 6t7.5 1q8 0 14.5 -2t14.5 -3q5 -1 10.5 -1h10.5q25 0 49 4.5t49 4.5q5 0 13.5 -2.5t17.5 -6.5t15.5 -9t8.5 -10q5 -5 12.5 -10.5t7.5 -14.5q0 -5 -3 -13.5t-7 -18t-8 -18t-6 -13.5l-49 -111
q-9 -20 -17.5 -39.5t-15.5 -39.5l-36 -105q-11 -32 -13.5 -63.5t-3.5 -65.5q-5 1 -11 1t-11 2q-26 8 -36.5 31t-10.5 47q0 43 11.5 82t21.5 81q-22 -6 -43.5 -11t-44.5 -5q-54 0 -99 26t-77 68q-17 22 -21 49t-4 54q0 14 2 27l4 26q11 58 39 116t70.5 104t97.5 75t120 29
q54 0 92.5 -20t67.5 -66q3 -5 3 -8q0 -2 -2 -6l-9 -3q-5 -14 -8 -37t-3 -38q0 -8 1 -16t1 -16t-4 -15q-29 10 -39.5 33t-10.5 51q0 17 4.5 33t4.5 33v3q-9 2 -18.5 3t-18.5 1q-49 0 -92 -17.5t-79 -47t-64 -68t-46 -81.5q-13 -30 -21.5 -63.5t-8.5 -66.5q0 -19 4 -39.5
t14 -37.5t25 -28t38 -11t44.5 7t41.5 18q5 3 17.5 10t25 15t23 16t12.5 13l49 122q0 1 0.5 3t0.5 3zM56 299q4 2 5 5.5t1 7.5l1 2q15 38 28.5 66t29.5 52t37 46.5t51 50.5q-22 -11 -44 -32.5t-41.5 -47.5t-34 -54t-20.5 -51q-3 -11 -5.5 -22.5t-7.5 -22.5zM299 -81l2 3
q11 50 27.5 97t34.5 94q3 8 7 16.5t6 17.5h-1l-13 -21q-8 -14 -18.5 -42.5t-20.5 -60t-17 -60.5t-7 -44zM391 182l57 130h-5l-57 -126zM56 414q4 3 11 16t10 18q16 26 36.5 48.5t40.5 44.5q-14 -7 -28 -22.5t-27.5 -34.5t-24.5 -38t-18 -32zM72 401l2 -1q2 5 5.5 10t6.5 10
q15 25 32 46.5t35 44.5q-11 -6 -22.5 -20t-22.5 -30.5t-20.5 -32.5t-15.5 -27zM370 196q7 8 10 16.5t5 17.5zM354 212q10 13 12 30zM319 65l3 -1q1 4 1 8t2 9zM375 260l-2 2l-3 -8zM332 97q2 4 4 6l-3 1q0 -2 -0.5 -3.5t-0.5 -3.5zM305 78l-4 -4l1 -1zM293 46h3l-3 2v-2z
M408 283h-1q-1 -1 -1 -4zM419 211v2h-1v-3zM305 23l1 -1l2 2zM302 6v3h-1zM165 523h1l-1 1l-2 -2zM401 176l-1 -3h1v3zM363 84v-2h1q0 1 -1 2zM366 88v1q-1 0 -1 -1h1zM359 73v-1h1q0 1 -1 1zM291 42h1v1q-1 0 -1 -1zM134 471q0 1 -1 1zM189 494q0 1 -1 1zM357 68v-1h1z
M137 434h1v1zM408 193v-1h1zM410 196l1 1h-1v-1zM181 486h-1v-1zM434 250l1 1h-1v-1z" />
    <glyph glyph-name="H" unicode="H" horiz-adv-x="396" 
d="M66 14q-12 9 -21 24.5t-14.5 34t-8 37t-2.5 32.5q0 23 4.5 47.5t9.5 47.5q6 26 11.5 52t12.5 52q15 57 36.5 112t39.5 112q-5 -3 -19 -10.5t-29.5 -15.5t-29 -14t-17.5 -6q-9 0 -17.5 10t-13.5 17l2 4l-10 7q3 3 5.5 6t6.5 5q11 6 22.5 11t22.5 12q31 17 60 37t58 42
q4 3 8 5.5t9 2.5q14 -11 27.5 -28t13.5 -36q0 -4 -2.5 -11.5t-6 -16t-7 -16.5t-4.5 -12l-31 -88q-11 -29 -20.5 -58.5t-18.5 -59.5q3 -1 15 -1h26.5t27.5 0.5t19 0.5q20 0 39 -1t39 -4q2 4 4 12q8 28 20 71.5t27 89t31.5 85.5t32.5 61q5 7 11 7q3 0 5 -1l6 -11l5 1
q3 -3 7 -11l-2 -1l7 -4q2 -5 5.5 -12t3.5 -12q0 -9 -3.5 -23t-8.5 -28.5t-10.5 -28.5t-8.5 -24q-14 -42 -26.5 -85t-23.5 -87q-21 -77 -38.5 -150t-30.5 -146t-20.5 -147t-7.5 -154q0 -6 -0.5 -12.5t-3.5 -11.5q-11 5 -20.5 9.5t-16.5 14.5q-17 25 -23 56.5t-6 60.5
q0 49 5.5 98t14.5 97.5t20 96.5t21 96q2 12 5.5 23.5t6.5 22.5q-43 -1 -85 -4t-85 -4q-3 -12 -7 -24t-6 -24q-11 -54 -16 -102t-5 -102q0 -9 -0.5 -19.5t-2.5 -19.5l-21 13v-1h-3v1zM147 595q-9 -3 -22 -10t-27 -15.5t-27.5 -17t-22.5 -13.5q4 1 19.5 9t33 17.5t31.5 18.5
t15 11zM169 644l-1 1q-3 -2 -11.5 -8t-17.5 -12t-17 -11.5t-11 -6.5l-4 -4q16 10 32 19.5t30 21.5zM95 595l6 5q-7 -3 -14 -8l4 2t4 1zM130 603l-6 -5h2q4 0 4 4v1zM75 585l-4 -2t-2 -3v-1zM156 616l-1 2l-2 -3z" />
    <glyph glyph-name="I" unicode="I" horiz-adv-x="197" 
d="M108 616v1q-2 0 -5 1t-3 3q0 3 2 5l-5 2q2 8 6.5 13.5t13.5 6.5l49 6q13 2 25 2h25q30 0 41.5 -4.5t15 -11.5t4.5 -14t10 -13q-13 -5 -25.5 -4.5t-25.5 0.5q-6 0 -16 -2q1 -5 1 -9.5v-9.5q0 -18 -3.5 -35.5t-8.5 -34.5q-22 -72 -39 -149q-5 -20 -8 -40.5t-8 -40.5
l-18 -85q-4 -17 -6 -34.5t-4 -34.5q-4 -26 -7 -51t-3 -51v-35h28q8 -5 12 -14.5t15 -10.5q-6 -12 -17 -14q-17 -5 -31.5 -7.5t-28 -3t-27.5 -0.5h-32q-12 0 -23.5 6.5t-18.5 16.5q-2 4 -3 8t-3 8q1 4 4.5 4.5t6.5 0.5h61q-10 24 -15 45.5t-5 47.5q0 5 0.5 9.5t0.5 9.5
q5 66 15.5 130.5t27.5 128.5q16 60 31 119.5t33 119.5h-37l1 8l-5 1l3 5zM112 632l-2 2q-2 -1 -2.5 -2t-2.5 -3z" />
    <glyph glyph-name="J" unicode="J" horiz-adv-x="418" 
d="M241 542q54 0 88.5 -24.5t53.5 -62.5t26 -84t7 -90q0 -98 -31.5 -191.5t-75.5 -180.5q-11 -22 -29 -53.5t-41 -66t-49.5 -68.5t-55 -61.5t-57 -44.5t-55.5 -17q-5 0 -9.5 0.5t-9.5 0.5q-17 0 -35 7.5t-32 20t-23 29t-9 34.5q0 25 14.5 60.5t38 75.5t52.5 81.5t58.5 80
t55.5 70t44 51.5q26 30 54.5 58t61.5 51q14 10 29 16.5t31 11.5q6 26 8.5 52t2.5 52q0 22 -2.5 45t-11 42t-25 31t-44.5 12q-34 0 -70 -20.5t-67.5 -51t-55.5 -66t-34 -65.5q-2 -7 -5.5 -19t-3.5 -19q0 -5 0.5 -8.5t1.5 -8.5h-7q-38 21 -38 64q0 28 8.5 50.5t22.5 45.5
q31 50 69 84.5t90 60.5q15 8 28.5 11.5t30.5 3.5zM128 454q-3 -2 -7 -8q5 0 7 8zM97 450q-2 -3 -4.5 -6t-4.5 -5l3 1l7 9q7 5 13.5 10.5t11.5 11.5q-7 -5 -13 -10.5t-13 -10.5zM47 332q-2 -4 -2 -6q1 1 1 2.5t1 2.5v1zM167 460q5 3 9.5 5.5t6.5 8.5l-18 -13q-2 -2 -5.5 -2.5
t-5.5 -2.5q-26 -16 -48 -41.5t-39 -50.5q-2 -2 -5.5 -8t-5.5 -9q3 2 5 6t4 7l4.5 4.5l4.5 4.5q23 23 44 48.5t49 42.5zM192 477l-1 -1h1v1zM247 118q-5 -1 -8.5 -4.5t-5.5 -7.5zM209 128h1v2zM164 75q4 6 7 9q-7 -2 -7 -7v-2zM162 73q-14 -5 -15 -18zM139 46l5 6h-2
q-3 0 -3 -4v-2zM98 -4q-8 -7 -14.5 -16t-12.5 -19q6 9 14 19.5t13 13.5v2zM59 -57q-5 -3 -12 -14.5t-13 -22.5q1 2 5 7.5t8.5 11.5t8 11t3.5 7zM-48 -222q-3 -5 -5 -11t-5 -12q14 20 25 42t24 43q8 14 17 26t17 25l3 7l-4 -6q-18 -22 -38 -55t-34 -59zM28 -133
q-2 -4 -4 -7.5t-4 -7.5q5 5 5.5 7t2.5 8zM-44 -267q11 29 26.5 56.5t32.5 53.5q-6 -5 -15 -20t-18.5 -32.5t-18 -34t-11.5 -24.5zM-39 -314l-2 -4h2v4zM146 3q-11 -14 -29.5 -38t-39 -53.5t-41 -61.5t-37 -62.5t-27 -56.5t-10.5 -42q38 95 94.5 179t118.5 165q14 17 27 35
t29 33v2q-21 -20 -43.5 -48.5t-41.5 -51.5zM132 -42q0 -1 -1 -1zM93 -96h1v1zM88 -100v-1l1 1h-1zM14 -219q0 -1 -1 -1zM73 -281q39 42 76 95t69 110.5t58 117t43 114.5q-2 -2 -3.5 -2t-3.5 -2q-20 -15 -46.5 -44t-56 -65.5t-59.5 -77.5t-56.5 -80.5t-47.5 -74t-32 -57.5
t-19 -47t-13 -50q27 8 49.5 25.5t41.5 37.5zM254 -55q4 6 11 20t14 29t12.5 29t6.5 20q-12 -24 -22.5 -48.5t-22.5 -48.5q-2 -4 -4.5 -7t-4.5 -7l-17 -36q5 6 8 13l6 14q3 6 6.5 11.5t6.5 10.5zM276 -52q-1 -2 -2 -3t-2 -3h1q3 0 3 4v2zM264 -79q-1 0 -2 -1q1 0 1 0.5t1 0.5
zM319 40q-10 -20 -19 -39t-18 -39l3 1q9 19 18.5 38t15.5 39zM203 -217q2 2 5 4t3 5q-1 0 -1 1v2zM236 -170q38 61 69.5 126.5t53.5 134.5l-2 1q-11 -21 -19 -43.5t-17 -44.5q-16 -38 -34.5 -73.5t-38.5 -71.5q-5 -10 -9.5 -21t-12.5 -19q4 2 6 5zM315 -52h-1q0 -1 1 -1v1z
M326 -27q1 0 1 1l-1 1v-2zM329 -22l-1 1v-1h1zM336 -4l-1 -1h1v1z" />
    <glyph glyph-name="K" unicode="K" horiz-adv-x="563" 
d="M822 -231q-21 -14 -37 -18.5t-42 -4.5q-42 0 -90.5 19t-99 50.5t-100 71t-94 81t-81.5 81t-62 69.5q-2 1 -3 3t-3 4l-27 -14q-5 -21 -6 -42l-2 -42t-2.5 -42t-6.5 -41q-9 3 -17 4t-15 2.5t-13 6t-12 14.5q-11 20 -15.5 43t-4.5 45q0 40 7.5 82.5t19 85t26 83.5t28.5 79
q20 53 43 103.5t43 103.5l-21 -5q-36 -13 -69 -29q-17 -8 -34.5 -20t-31.5 -27t-23.5 -32.5t-9.5 -38.5q0 -18 11 -34q0 -8 -8 -8q-2 0 -2.5 0.5t-2.5 0.5q-11 2 -19 4.5t-17 10.5q-16 13 -25.5 30t-9.5 38q0 22 10 42t25.5 37t34.5 30t38 21q50 21 95.5 36t98.5 28
q11 3 21.5 8t21.5 8q13 -5 24 -11t21 -16l-4 -9l8 1q7 -8 12 -15q2 1 3 2t3 1q-8 -13 -18.5 -24.5t-18.5 -24.5q-6 -11 -11.5 -22t-10.5 -22q-13 -24 -25 -48.5t-23 -49.5q-25 -53 -45.5 -107t-37.5 -110q-2 -7 -4 -13.5t-5 -12.5l4 -2q50 37 99 73t97 75q39 32 76 65.5
t74 68.5q23 21 39 42t29 50q9 21 15.5 42.5t6.5 44.5q0 8 -0.5 15t8.5 12q15 -23 21 -42.5t6 -48.5q0 -33 -9 -66q-11 -43 -36 -78.5t-57 -65.5q-43 -40 -93 -82t-98 -75l-112 -76q11 -14 22 -27.5t24 -26.5q78 -78 159 -151.5t177 -128.5q26 -15 53 -27.5t56 -18.5
q14 -3 26.5 -7t26.5 -8zM24 522q1 1 1 6q-1 -2 -1 -6zM28 529q5 0 5 5q-3 -1 -7 -5h2zM55 493q6 10 15.5 21.5t17.5 22.5q-6 -5 -12.5 -10t-11.5 -12q-4 -5 -5.5 -10.5t-3.5 -11.5zM154 94l-1 1l-2 -6zM172 187q5 15 9.5 30t9.5 29q19 51 35.5 98.5t35 93.5t40 92t50.5 93
q-8 0 -10.5 -4t-5.5 -9q-27 -49 -50 -99.5t-44 -102.5q-38 -95 -66 -192l-4 -16v-13zM190 140q5 0 7 1l-1 3q-4 -2 -6 -4zM469 361h1l2 3zM456 351q-1 -1 -3 -4h1q0 2 5 7h-1zM443 364q1 1 1 1.5t2 1.5l1 3l4 2q-2 0 -4 -2l-3 -3zM443 342q-2 -2 -2 -3q2 2 2 3zM428 352l1 2
q4 0 4 4v2q-2 -4 -4 -6h-1v-2zM424 347q-2 -2 -4 -2q4 0 6 4zM414 318l10 4l2 4v1q-1 -1 -3 -4zM411 312q-2 0 -3 -0.5t-2 -0.5q3 0 5 1zM403 335q0 -2 -3 -5l2 1l2 4h-1zM400 307q-2 -4 -4.5 -5t-5.5 -4l9 5q2 3 3 4q0 2 2 4h-1zM380 315q2 1 3.5 1t2.5 2h-1zM388 296
q-3 -3 -5.5 -4.5t-5.5 -3.5l-1 -2q-3 -2 -5 -3t-6 -2l-1 -4q-2 -1 -4 -2.5t-4 -2.5q1 0 8 5q4 2 7.5 5t4.5 4q3 3 4.5 4t6.5 2zM374 308q3 3 3 5q-2 -1 -2 -1.5t-1 -1.5v-2zM341 285q2 2 6 3.5t6 4.5q3 3 9 5v2q1 0 1 0.5t1 0.5l4 3q-3 -1 -6 -4q-2 -2 -4.5 -3.5t-4.5 -3.5
l-3 -2q-2 -3 -9 -5v-1zM339 282q-5 -2 -8 -5q2 1 4 2.5t4 2.5zM328 273l1 1v2l-1 -2v-1zM355 272q-5 -3 -15.5 -11t-13.5 -12q6 6 15 11t14 12zM317 265q-6 -2 -8 -4zM324 247q-3 -1 -9 -5q6 2 9 5zM301 254q-2 -1 -3 -2t-3 -2q5 3 6 4zM305 233q-5 0 -7 -1h7v1zM290 225
q-5 -2 -5 -6q2 3 2.5 3.5zM276 214q-1 -1 -2 -1q2 0 3 1l2 4l5 1q-3 0 -5 -1t-2 -2t-1 -2zM261 185q1 0 2 -0.5t2 -0.5q3 0 19.5 11t40 28.5t50 38t51 39t42 32.5t23.5 19q18 14 34.5 30t33.5 32q1 0 1 1l2 3v1q-2 -2 -2 -4q-1 0 -1 -1q-4 -1 -11.5 -7t-16 -13t-16.5 -14
t-12 -10q-29 -23 -57.5 -46.5t-57.5 -46.5q-30 -23 -61 -43.5t-61 -43.5q-3 -2 -5 -5z" />
    <glyph glyph-name="L" unicode="L" horiz-adv-x="344" 
d="M601 -108q2 -7 3.5 -14t-3.5 -15q-8 -4 -14 3q-3 4 -5.5 8t-7.5 7q-6 7 -12 9q-28 8 -54 5q-24 -3 -48 -5.5t-47 -6.5q-26 -5 -51.5 -10.5t-51.5 -12.5q-32 -8 -63 -16t-63 -16q-24 -6 -48.5 -11.5t-50.5 -10.5q-19 -3 -36.5 -2.5t-34.5 6.5q-22 8 -36 24t-14 43
q5 12 13 6q7 -7 14.5 -8.5t15.5 -3.5q14 -2 27 -1.5t27 3.5v13.5t2 12.5q0 26 6 66t15.5 86t20 93t21 88t18.5 70.5t11 39.5q2 4 1 7l-10 -6q-17 -14 -33.5 -28.5t-27.5 -34.5q-8 -15 -13.5 -31t0.5 -35q-4 0 -6 -0.5t-4 -0.5q-11 1 -21 8t-16.5 17.5t-8.5 24t3 28.5
q6 17 15.5 31t20.5 27q33 33 69.5 59.5t74.5 49.5q14 8 19 18q18 33 38.5 63.5t45.5 59.5q17 21 37 39.5t44 32.5q13 8 27.5 12.5t29.5 -0.5q16 -5 27 -16q6 -6 11.5 -13t9.5 -15q8 -15 5 -29.5t-13 -28.5q-14 -20 -32.5 -36t-38.5 -30q-30 -23 -61 -42t-62 -39
q-7 -4 -9 -11q-33 -59 -57 -120q-16 -38 -27.5 -77t-22.5 -79q-5 -20 -12 -49.5t-14.5 -61.5t-14.5 -62t-12 -49l-8 -41h8l142 40q36 10 71.5 18.5t72.5 13.5q24 4 49 7.5t48 1.5q17 -2 32.5 -6t30.5 -12q30 -18 38 -55zM369 582q2 2 3 2zM389 526q1 0 2.5 0.5t2.5 0.5
q-3 0 -5 -1l-2 -2l-2 -4q-3 0 -4 -1l-3 -2q-1 0 3 2q2 0 2.5 0.5t2.5 0.5q0 1 2 3q0 2 1 3zM387 559v1q-1 0 -1 -1h1zM405 534q0 2 1 3q-2 -2 -1 -3q-5 -1 -8 -4zM398 569l2 2zM462 591l-44 -45l-2 -2q1 0 1.5 0.5t1.5 0.5q26 17 45 45q0 2 2 6zM423 568l1 -1v1h-1zM439 587
l-6 -10l-2 -2l-3 -3q0 -1 -1 -1h-2q2 0 4 1q0 1 2 3q2 0 2 2q2 2 3.5 5t3.5 5l3 2q1 0 1.5 0.5t1.5 0.5l-1 1h-1l-2 -2zM435 605q-2 -2 -3 -4.5t-3 -5.5q-1 0 -3 -2l-2 -2q0 -2 -2 -2q-1 -1 -1 -1.5t-2 -1.5q-2 0 -2 -2l-3 -2q0 -1 -0.5 -1.5t-0.5 -1.5q-1 0 -3 -2l3 2l2 3
l2 2l2 2q1 0 1 0.5t1 0.5l1 1q2 2 2 3l2 2l3 2q2 2 3 5t3 5q2 0 2.5 0.5t1.5 0.5v1h-1zM430 623q-17 -9 -29 -22.5t-24 -27.5q7 5 13.5 9.5t12.5 10.5l28 29v2h1l1 1h-1l-1 -1q-1 0 -1 -1zM392 606l1 1h-1v-1zM396 609l2 2zM401 613q0 1 -1 1v-1h1zM400 628q-5 -4 -9 -6.5
t-9 -6.5q-20 -17 -35.5 -37.5t-30.5 -40.5l-7 -10l2 -2q3 4 6 7t5 7l25 32l54 56l7 5zM332 579l2 2q-2 0 -2 -2zM340 591q2 0 2 2zM381 628q2 2 2 3v1zM380 628q-2 -1 -3 -1t-2 -1q-10 -7 -16 -14l-16 -18q3 2 5 3.5t4 3.5zM358 632q-2 -2 -2 -3q0 2 2 2l3 3q0 1 0.5 1
t0.5 1l3 2v1l8 3q2 2 2 3q3 0 1 2q1 1 2 1h-1q-2 -1 -1.5 -1.5t-0.5 -1.5l-2 -3q-5 1 -8 -3q0 -1 -1 -1l-2 -2q-1 0 -1 -2q-1 -1 -2 -1t-1 -1zM329 605l-2 -4t-3 -4l6 7l2 3q2 0 2 2l4 2q0 1 0.5 1t0.5 1l11 11q3 1 3 3q-1 0 -3 -2l-12 -11q-2 -2 -1 -2q-1 -1 -1 -1.5
t-2 -1.5l-2 -2q-2 -2 -3 -2zM321 569q0 -2 -2 -2q-2 -4 -2 -5q-2 -2 -3 -2q1 0 1.5 0.5t1.5 0.5q2 4 2 6q1 0 1.5 0.5t1.5 0.5l2 2q-1 -1 -3 -1zM311 582l5 7q1 0 1.5 0.5t1.5 0.5q-2 0 -4 -1zM310 552q0 1 -1 1q1 0 1 -1zM293 562q-1 -2 -1.5 -3.5t-2.5 -3.5q2 2 2.5 3.5
t1.5 3.5q2 0 2.5 0.5t1.5 0.5q2 4 2 5q0 2 2 2l4 2q0 4 1 6q1 0 1.5 0.5t1.5 0.5q-1 0 -2 -0.5t-2 -0.5v-6q-3 0 -5 -2q-1 0 -2 -1q0 -4 -1 -6q-2 0 -2.5 -0.5t-1.5 -0.5zM274 535l1 -1h1zM243 407q-3 -3 -7.5 -11t-9.5 -17.5t-9.5 -19.5t-7.5 -17q3 2 7 8q5 10 9.5 19.5
t9.5 19.5zM209 338h1q0 1 -0.5 1.5t-0.5 1.5v-3zM202 323q0 -1 -0.5 -2t-0.5 -3h2q-1 2 -0.5 3t-0.5 2q5 1 4.5 3.5t0.5 5.5q-3 -3 -5 -9zM193 297h1v1h-1v-1zM49 314q1 0 1 1h-1v-1zM61 274l-1 1q-1 0 -1 -1h2zM61 331q-1 0 -3 -2q-1 0 -1 -2q-3 -2 -3 -4q-2 -2 -2 -3l3 2
q0 3 2 5q0 1 1 2zM75 322l-4 -2l-2 -2q-4 -6 -4 -8h1l3 8q2 0 2 2q1 0 5 2h-1zM63 333l2 2q2 2 4 2l1 1q-1 0 -1 -1q-1 0 -2 -0.5t-2 -0.5zM62 279v1q1 -1 0 -1zM89 301l-1 -1h1v1zM103 334l-10 -9q-10 -10 -18 -20.5t-13 -23.5q3 0 3 2l18 22t17 23zM112 337q0 1 0.5 1.5
t0.5 2.5q0 -1 -0.5 -2t-0.5 -2zM118 345q-2 -2 -2 -3zM120 347q2 2 2 3l-2 -3q-1 0 -1 -0.5t-1 -0.5q2 0 2 1zM209 -144h-1v-1h1v1zM232 -137l-1 -1h1v1zM242 -136q0 1 -1 1v-1h1zM250 -132q-1 -1 -2 -1h-1v-1q1 0 1 0.5t1 0.5zM259 -130q-1 0 -1 -1h1v1zM264 -129q3 0 5 1
h-5v-1zM275 -124l-5 -4q2 1 5 1v3zM291 -121l-4 -2q2 1 4 1v1zM309 -118q0 1 -1 1v-1h1z" />
    <glyph glyph-name="M" unicode="M" horiz-adv-x="797" 
d="M875 626q0 -18 -4.5 -33t-9.5 -32l-25 -93q-20 -73 -40 -148t-36.5 -151.5t-27 -153.5t-10.5 -152q0 -29 1 -59t8 -59q2 -10 6 -19t6 -19q-5 -1 -9 -1h-9q-22 0 -37.5 12t-23.5 32q-7 20 -12.5 46.5t-9 55t-5 56t-1.5 48.5q0 23 2.5 46.5t4.5 46.5q2 20 4 41t5 41
q10 67 28 131.5t35 129.5l6 21t8.5 29t8 28.5t3.5 18.5l-11 -15q-39 -55 -76 -112t-71 -115q-23 -40 -43 -82.5t-37 -86.5q-2 -6 -2 -9q0 -6 2.5 -12t2.5 -12q0 -5 -4.5 -7.5t-9.5 -2.5q-6 0 -10 3l-4 -5l-12 4t-11 4q-17 7 -25 24t-11 37t-2.5 40.5t0.5 35.5q0 79 4.5 157
t12.5 156q-45 -84 -82.5 -170t-68.5 -176q-17 -52 -28 -110l-2 -9l-11 -1q-1 3 -1 10q0 8 1.5 16.5t3.5 16.5q12 63 37 122t49 118q5 13 11 24.5t11 25.5l2 7q8 21 19 41t19 42q-11 -20 -20 -41t-19 -41q-27 -57 -50 -115.5t-45 -118.5q-18 -47 -22 -97q0 -3 -0.5 -5.5
t-1.5 -5.5l-5 4l-10 -11q-9 5 -18.5 9t-17.5 11q-10 9 -19 22.5t-15.5 29t-10 31.5t-3.5 29q0 42 6.5 86t17.5 88t25 86.5t29 81.5q12 32 26 62t27 61q-4 0 -17.5 -5.5t-32 -14.5t-40.5 -19.5t-43.5 -19.5t-41 -15t-33.5 -6q-20 0 -33 15t-17 33q2 6 7 6q4 0 8 -2.5t10 -2.5
q18 0 51.5 12t70 28t70 33t52.5 26q20 10 38.5 20.5t38.5 19.5l8 -13h5l13 -22l-1 -4q3 -3 5.5 -7t2.5 -9q0 -4 -9 -24.5t-20 -45t-22 -47.5t-14 -32q-30 -79 -56 -159t-38 -165q-2 -11 -3.5 -23t-1.5 -23q39 101 82 198.5t96 191.5q12 22 25.5 43.5t31.5 38.5q9 8 18.5 15
t19.5 15l9 -5l-1 -7l7 6l11 -3l-17 -40h1l19 37l3 -8l7 6l-23 -77l3 -1q6 17 11 35t14 35l13 -9v-13q0 -3 -1.5 -10t-3 -14.5l-3 -15t-2.5 -11.5q-6 -29 -10.5 -58t-8.5 -58l-22 -189q-2 -11 -2 -20.5v-20.5q3 3 7 10t8.5 15t8.5 16t7 13q15 26 32 51.5t34 50.5
q33 48 65.5 94.5t67.5 92.5q12 17 25 31.5t25 31.5q6 8 11 17.5t12 17.5q4 5 7.5 7.5t9.5 2.5q7 0 13 -3t13 -4l-1 -2l12 -10l1 -7l4 3zM152 580q1 0 2 1q-1 0 -1 -0.5t-1 -0.5zM221 639l-1 1v-1h1zM263 631q-8 -2 -15 -6t-15 -8l28 12zM267 632q6 1 13 5q-1 1 -1 4
q-3 -3 -6 -5zM226 98v6.5t1 6.5q-2 -3 -2 -6t-2 -6q2 0 3 -1zM229 54q0 2 0.5 3t0.5 3q-2 -4 -2 -6h1zM236 58l-1 -1h1v1zM238 96l-1 1v-4zM233 131q3 8 7 13l-3 -1zM250 175q-4 -2 -4.5 -6t-1.5 -8zM260 164l-1 1v-1h1zM261 203q-5 -2 -5 -7v-3zM266 182h-1l1 -1v1z
M277 210h-1l1 -1v1zM307 280l-1 1v-1h1zM347 404q0 1 0.5 1t0.5 1q-1 -1 -1 -2zM351 413l3.5 7t3.5 6q-5 -2 -5.5 -5.5t-1.5 -7.5zM370 455q6 4 8 9.5t3 11.5q-2 -5 -5 -10.5t-6 -10.5zM385 483q2 0 4 2zM251 55l-1 -1h1v1zM260 93h-1v-1zM443 539h-1q-1 -1 -1 -4zM443 579
l-1 1v-1h1zM512 543l2 -1q0 2 0.5 4.5t0.5 4.5h-1zM510 528h1v6h-1v-6zM474 156h-1v-10h1v10zM474 173h-1v-7h1v7zM474 183h-1v-3h1v3zM476 198h-1v-3h1v3zM475 206q6 67 12.5 133.5t13.5 133.5l-3 -4q-5 -33 -8.5 -66t-6.5 -66q-2 -23 -5 -50t-3 -50v-31zM500 481
q0 -2 0.5 -3.5t0.5 -3.5l9 46l-3 1q-2 -9 -4.5 -20t-2.5 -20zM555 227h-1l-1 -3zM678 423h-1q0 -1 1 -1v1zM712 76h-1v-4h1v4zM714 87q0 3 1 4h-2v-4h1zM721 126q-1 1 -2 1v-4l-2 -8h2v8zM724 138q0 5 2 15h-2l-3 -14zM728 161q0 4 0.5 7t1.5 7l-5 -14h3zM732 186q1 1 1 3
l-1 1v-4zM736 201l-2 -4l2 -1v5zM739 213q0 1 1 2h-1v-2zM746 237l-6 -10q1 -1 2 -1zM757 288l-1 -1h1v1zM763 308q1 1 1 2l-1 1v-3zM773 341h-1l-2 -3zM853 619q2 2 3.5 4.5t1.5 5.5q-1 0 -1 1v2z" />
    <glyph glyph-name="N" unicode="N" horiz-adv-x="570" 
d="M459 434l1 -1h-1v1zM411 398q0 1 1 1zM576 556q10 0 20 -8.5t18 -20t13.5 -24t5.5 -21.5q0 -10 -7.5 -29.5t-17.5 -41.5t-20 -42t-15 -31l-33 -74q-29 -64 -44.5 -131.5t-26.5 -136.5q-3 -20 -6 -39t-3 -39q0 -34 12.5 -61.5t51.5 -32.5q-6 -7 -14.5 -13t-18.5 -6
q-21 0 -40.5 10t-33.5 25q-28 29 -35.5 67.5t-7.5 76.5q0 59 10.5 118t29.5 116.5t45.5 111.5t58.5 103q11 16 24.5 34.5t21.5 35.5q-11 -10 -27.5 -16t-30.5 -14q-30 -17 -58 -37.5t-54 -43.5q-72 -64 -119 -137.5t-87 -159.5q-14 -29 -26 -59t-26 -59l-4 -7q-2 2 -7 6h1
q-41 15 -61 39.5t-20 69.5q0 37 5.5 73.5t15.5 71.5t19.5 70.5t20.5 70.5q13 44 29.5 85.5t34.5 83.5q-23 -11 -45.5 -21.5t-48.5 -10.5q-16 0 -34.5 8t-29.5 19h1q-3 4 -11 14t-8 15q0 6 8 8t15 3t15 3l42 8t42 9q23 5 46.5 11.5t46.5 14.5q11 4 20 13q5 4 11.5 11t14 13.5
t15 11t14.5 4.5q4 0 7 -3l5 -5l16 -7l-1 -5l8 -5l6 -1l-10 -11l13 2l12 -12q-2 -3 -2.5 -6t-2.5 -5q-5 -8 -10.5 -15t-10.5 -15q-11 -15 -20 -29.5t-17 -31.5q-38 -78 -70 -157.5t-55 -162.5q-2 -5 -4.5 -15t-5 -21.5t-4.5 -21t-2 -13.5v-7h-1l1 -1v1q58 122 135.5 217.5
t195.5 164.5q8 5 23 13t31 15.5t31 13t24 5.5zM306 600q0 -1 1 -1zM250 585q0 -1 -1 -2l4 4zM108 133q1 2 1 7l-1 -2v-5zM116 168q-5 -5 -5 -11q0 -4 1 -6q-1 -1 -1 -5l-1 -2l1 1l1 5v1zM118 184q-1 -1 -1 -6q0 1 0.5 1t0.5 1v4zM130 8l-2 -4l2 3v1zM122 199q8 13 11 28
t8 29q8 27 17 54t18 53q23 67 52.5 133t76.5 120q-1 0 -2 0.5t-2 0.5q-5 0 -9 -5.5t-6 -8.5q-21 -30 -39 -61.5t-32 -65.5q-29 -68 -53.5 -136.5t-39.5 -140.5l-1 -1q0 -2 -0.5 -2.5t-0.5 -2.5l-2 -6v-1l1 1q0 2 0.5 3t0.5 3l2 5v1zM150 53l-1 -1l-3 -1q2 0 3 1h1v1zM159 80
q-1 -1 -1 -5l1 1v4zM165 93q-1 0 -1 -1l1 -1v2zM186 136q-1 -2 -1 -5l-3 -1q2 0 3 1h1v5zM530 529l4 3h-1zM508 519q2 0 4 2l8 4q-2 0 -4 -1.5t-4 -2.5zM503 517q-4 -3 -8 -5.5t-9 -5.5q5 2 9 5t9 6h-1zM477 501h1l3 2l-3 -1zM468 495l-4 -2q2 2 4 2zM464 477l1 1h-1v-1z
M456 475q-1 -1 -1 -2l3 2h-2zM455 466q-1 0 -2 -1q1 0 2 1zM449 470q3 0 4 1q-3 0 -4 -1zM447 482l5 4q-1 -1 -2 -1zM440 463q1 0 2 1h-2v-1zM423 450q-2 0 -3 -1zM415 445h2v2zM411 441l3 4h-2zM414 438q-1 -1 -1 -2l1 1v1zM405 438l2 2q1 0 2 1l-3 -1zM402 434h1l1 2z
M392 428q2 2 5 2l2 4l-2 -3l-4 -1zM386 439l3 2l-3 -1v-1zM387 424q-3 -2 -4 -3.5t-3 -3.5h2zM386 417q0 -2 -1 -2q1 0 1 0.5t1 0.5v1h-1zM384 414l1 -1v1h-1zM376 414l2 3h-1zM370 410q2 0 3 1h-3l-2 -3zM369 401q0 -1 -1 -2l2 2h-1zM365 423q-2 -3 -4.5 -5t-4.5 -4l3 1
l6 6l6 6zM355 394l6 7v1h-1l-4 -5zM354 393q-4 -2 -6 -4zM340 399l7 6l-3 -1zM346 386q-1 0 -2 -1q1 0 1 0.5t1 0.5zM333 392l2 2v1zM322 382l5 5l-4 -3zM285 341q1 3 4 4q0 2 3 5l4 4l2 2q0 2 3 5q1 0 1 1q4 0 8.5 4.5t6.5 7.5l3 5v1l-3 -5v-1q-6 -1 -8.5 -4.5t-6.5 -7.5
l-1 -1l-3 -2q-2 -4 -2 -5l-3 -1l-1 -3l-3 -2q0 -1 -3 -4zM275 331q3 1 4 4l5 5h-2l-3 -5zM262 312l3 3l-2 -1zM259 310q-1 -1 -1 -3l1 2l2 1h-2zM248 295q0 -3 -4 -5l3 1q1 1 1 2t2 2h-2zM193 150q1 1 1 3q-1 -1 -1 -3zM200 161l-3 -1v-1zM207 179q1 0 2 1h-2v-1zM217 193
q-2 0 -3 -1zM234 225l-3 -6l-3 -4l-3 -2v-5q-3 -2 -3 -4l1 2l3 2v5l3 2l2 4l3 4v2zM239 232l-3 -1q-1 -1 -1 -2zM239 277q0 1 -0.5 1t-0.5 1q0 -1 -1 -2h2zM246 242l3 6t4 5l-3 -1l-4 -9l-3 -2l-3 -6q1 2 2 3t2 3zM270 279l-8 -13l-3 -2l-1 -2l5 4zM271 327q1 0 1 0.5t1 0.5
q-1 0 -2 -1zM281 294l-3 -1l-3 -7zM285 298q-1 0 -1 -1zM354 365h-1q0 -1 -0.5 -1t-0.5 -1zM380 390h-1v-1zM396 403l2 2h-1q0 -1 -0.5 -1t-0.5 -1zM508 486q1 0 2 1q-1 0 -1 -0.5t-1 -0.5h-1l-1 -1q1 0 2 1zM540 509l-1 -1q-14 -5 -25.5 -11.5t-23.5 -13.5q-48 -29 -93 -65
t-82 -79q-8 -9 -15.5 -18t-12.5 -20l-2 -2q1 0 1 0.5t1 0.5v1q14 11 24.5 25.5t21.5 27.5q29 34 70 65.5t79 54.5q14 8 29.5 15.5t27.5 18.5h1v1zM404 393v-1q-1 0 -2 -1q1 1 1 2h1zM391 382v-1l-3 -3v1l2 3h1z" />
    <glyph glyph-name="O" unicode="O" horiz-adv-x="421" 
d="M157 481q4 38 12.5 74.5t23.5 71.5q22 49 68 71q22 10 42 10q24 0 49.5 -10t45.5 -23q25 -16 40 -35.5t22.5 -41.5t10 -47t2.5 -53q0 -54 -9.5 -103.5t-26.5 -100.5q-14 -41 -35 -91.5t-48 -100t-58.5 -92.5t-67.5 -69q-27 -20 -63 -20q-14 0 -27 3q-45 9 -72 30.5
t-41.5 52.5t-19.5 68.5t-5 76.5t5 81.5t15 85t26 82.5t38 72q5 7 11 14t16 7q12 0 22.5 -6.5t23.5 -6.5zM351 667l-13 -4q-31 -11 -51.5 -46t-32.5 -79t-17 -88t-5 -72q0 -42 11.5 -79.5t33.5 -72.5q3 -5 7 -10t7 -10q18 35 34.5 78t30.5 80q16 44 25 90t9 93
q0 33 -6.5 64.5t-32.5 55.5zM154 389l-2 1q0 -1 -2 -5q-7 -18 -10.5 -37t-8.5 -38q-14 -59 -16.5 -117.5t-2.5 -118.5q0 -20 6.5 -48.5t15.5 -46.5q6 3 11 8q49 43 80 97t60 111q-10 3 -19 5.5t-18 7.5q-26 15 -43 34.5t-27.5 43t-15.5 49.5t-8 54zM432 386
q-6 -19 -11.5 -37.5t-12.5 -37.5q-17 -46 -36 -89t-41 -87q-8 -15 -16.5 -30t-15.5 -30q-2 -4 -3.5 -8t-3.5 -8q6 5 11 15q42 69 76.5 143.5t51.5 155.5q1 3 1 6.5v6.5zM86 263q3 2 5.5 10.5t5 18.5t4 19.5t2.5 13.5q7 33 18.5 66t26.5 64q2 4 2 6q-3 -3 -6.5 -6t-5.5 -7
q-10 -16 -18 -40t-14.5 -50t-11.5 -51t-8 -44zM356 292q-5 -10 -17.5 -35.5t-26 -53t-24.5 -51t-11 -29.5q10 15 21.5 36.5t22 45.5t20 47t15.5 40zM278 643q-11 -3 -19.5 -17t-15.5 -31t-11.5 -34t-7.5 -27l4 6q7 13 11 26t8.5 26t11.5 25.5t19 25.5zM315 144q7 12 16 29
t17 35t15 35.5t10 31.5q-2 -5 -11 -25.5t-19.5 -44t-19.5 -42.5t-11 -20zM106 471q-7 -11 -15.5 -26t-12.5 -26q11 11 16.5 24.5t11.5 27.5zM128 460l-3 1q-7 -10 -12.5 -20.5t-7.5 -21.5zM226 643l3 2q-3 0 -6 -3.5t-5.5 -8.5t-4.5 -10t-3 -7q4 7 9 13t7 14zM82 237h5v13
t-1 13q-1 -7 -1.5 -13t-2.5 -13zM239 624q2 7 8 13h-2l-4 -5q-2 -5 -4 -7l-3 -7v-4q2 7 5 10zM76 165l3 -1v12h-2q0 -3 -0.5 -5.5t-0.5 -5.5zM438 411l-6 -15q1 -1 3 -1zM84 219h-3v-5q1 1 1 2t2 3zM78 195h2l-1 3q-1 -1 -1 -3zM434 389l-2 1v-3zM232 651h-2l2 -3v3z
M442 438l-2 -1l2 -2v3zM273 115q-3 -3 -3 -4zM438 417h-1l1 -3v3zM77 144v2h-1q0 -1 1 -2zM396 226l-1 -2h1v2zM403 241q1 0 1 1h-1v-1zM272 615q0 1 -1 1v-1h1zM219 499l-1 -1h1v1zM354 132v1h-1zM299 116h1v1zM439 430l1 -1v1h-1zM374 176l-1 -1h1v1zM225 597v1l-1 -1h1z
M380 186v1h-1zM386 306v1h-1zM88 369l-1 -1h1v1zM77 412q-1 -1 -1 -3zM265 602q0 1 -1 1z" />
    <glyph glyph-name="P" unicode="P" horiz-adv-x="531" 
d="M243 258q-13 -60 -21 -121t-8 -122q0 -23 2.5 -45.5t4.5 -45.5q-21 6 -35.5 18.5t-23 29.5t-12.5 36.5t-4 39.5q0 88 12 173.5t32 170.5q11 46 23.5 93t32.5 89q2 3 3.5 6t1.5 6q0 4 -3 7l4 6q-6 6 -8 10q3 8 10 8.5t14 0.5q17 -11 29.5 -32.5t12.5 -42.5q0 -11 -6 -40
t-14 -61t-16 -61.5t-12 -42.5h5q8 0 13.5 1.5t13.5 4.5q52 19 100.5 44.5t93.5 57.5q9 6 23 16.5t27.5 22.5t25 24t15.5 22q5 13 5 25q0 15 -7.5 26t-18.5 20q-36 28 -86 39t-95 11q-69 0 -137 -19.5t-123 -60.5q-12 -9 -25 -20.5t-23 -25t-16.5 -29t-6.5 -31.5q0 -10 1 -15
q16 -12 34 -18.5t37 -10.5q4 -10 7.5 -19t13.5 -15q-5 -2 -10 -2h-10q-32 0 -56.5 12.5t-40.5 40.5q-9 16 -15 33.5t-6 36.5q0 24 10.5 45.5t27.5 38.5q60 63 140 90t165 27q46 0 92 -8t84 -27.5t65.5 -53t37.5 -85.5q1 -5 1.5 -9.5t0.5 -9.5q0 -32 -21 -62t-51 -56.5
t-63.5 -48t-58.5 -34.5q-32 -17 -67.5 -31.5t-71.5 -21.5q-12 -2 -24.5 -3t-24.5 -2zM530 412q-36 -27 -75.5 -51.5t-81.5 -42.5q-10 -5 -29 -12t-26 -14q11 4 21 6.5t20 7.5q51 22 92 47t83 61q3 1 7 5q-8 -4 -11 -7zM215 646h-4q-21 -8 -42.5 -16.5t-40.5 -21.5
q-11 -8 -20 -16.5t-20 -16.5q4 1 7 4q24 17 49.5 30.5t52.5 26.5q5 2 9 4.5t9 5.5zM343 343l-4 -4q5 3 14.5 7.5t13.5 4.5q19 10 38 19.5t36 22.5q-11 -5 -23 -11.5t-23 -13.5q-26 -16 -52 -25zM373 335q6 2 18 7.5t25 12t23.5 13t15.5 11.5q-7 -3 -12.5 -7.5t-12.5 -7.5z
M111 632q-6 0 -6 -4v-1l1 -2zM239 651v3l-4 -3h4zM164 641l3 1l-3 2v-3zM303 290v-2l4 2h-4zM320 334l2 -2q0 2 -2 2zM296 286q-1 1 -2 1v-1h2zM197 672v1q-1 0 -2 -1h2zM205 674v1h-1q0 -1 1 -1zM164 612h1v2zM452 342l-1 -2h1v2zM316 331h-1l-1 -1q2 0 2 1zM463 348v-1
l1 1h-1zM406 316l1 -1v1h-1zM471 354l-1 -1h1v1zM150 634q1 0 1 0.5t1 0.5q-1 0 -2 -1z" />
    <glyph glyph-name="Q" unicode="Q" horiz-adv-x="498" 
d="M282 1q14 -46 38 -86q12 -21 30.5 -36.5t30.5 -35.5q-7 -1 -14 -1.5t-14 -0.5q-18 0 -35 10t-32 24.5t-27 31t-20 30.5l-6 12t-8 11q-14 -5 -24 -9.5t-19.5 -8t-20.5 -5.5t-27 -2q-32 0 -55 8.5t-46 30.5q-24 23 -30 51.5t-6 59.5q0 20 3 46t8.5 53t13 52t16.5 43l40 83
q-11 12 -16 24t-5 29q0 33 17 69t43 69.5t56.5 61.5t56.5 45q46 30 99 30q45 0 85 -19t71 -50.5t49 -72.5t18 -85q0 -36 -12 -77t-30.5 -81.5t-41 -78t-42.5 -66.5q-31 -45 -68.5 -83t-75.5 -76zM190 478q4 0 14 -7t14 -9l-3 -8q3 3 6 3t6.5 -2t5.5 -3q-2 -2 -3 -4t-3 -4
q-3 -6 -7 -11.5t-8 -11.5q-34 -51 -59 -104.5t-45 -110.5q-26 -72 -26 -148q0 -20 4.5 -37.5t9.5 -36.5q29 6 53.5 19t47.5 30q-1 4 -3.5 13t-5 18.5t-4.5 18t-2 11.5q0 11 10 16q4 -2 7 -2q5 0 8.5 1t8.5 2l3 -9l3 6l4 -3q2 1 4 5l4 -14l4 9l14 -3l6 -16l4 4t8.5 9.5t9 10
l5.5 5.5q31 33 66 80.5t65 100t49.5 106.5t19.5 99q0 26 -6.5 51t-20 44.5t-35 31t-50.5 11.5q-26 0 -53.5 -13t-53.5 -32.5t-48 -42.5t-38 -42q-8 -9 -15.5 -18t-12.5 -19q-3 -5 -5.5 -11t-6.5 -10l1 -1q3 4 9 9t13.5 9t14.5 7t12 3zM392 155q8 4 13 12.5t10 15.5
q30 46 53 89t42 96q-21 -38 -39 -78t-42 -77q-9 -14 -19 -28.5t-18 -29.5zM80 200q9 35 24.5 66t28.5 64l-2 2l-6 -6q-4 -5 -6 -11.5t-4 -12.5q-8 -20 -16.5 -39.5t-16.5 -39.5q-3 -8 -4.5 -15.5t-3.5 -15.5zM111 444q5 6 9.5 14.5t8.5 15.5q17 28 38.5 52.5t43.5 48.5
q-6 -3 -18 -14.5t-24.5 -26t-23.5 -28.5t-15 -21q-6 -10 -10 -20.5t-9 -20.5zM137 336q16 28 32 55.5t36 52.5q-8 -5 -19.5 -19t-22.5 -30.5t-18.5 -33t-7.5 -25.5zM448 316v4q-20 -39 -42 -78q-4 -6 -9 -12.5t-7 -13.5q4 5 13.5 20t19.5 31.5t17.5 31t7.5 17.5zM101 497
q8 11 18.5 28.5t20.5 25.5h-1q-11 -12 -21.5 -25t-16.5 -29zM431 247q8 12 15.5 24.5t12.5 26.5zM111 334q-5 -5 -8 -11t-4 -14q4 6 6.5 12.5t5.5 12.5zM121 392l25 35v1h-1q-6 -9 -12.5 -18t-11.5 -18zM139 384l17 25q-4 -4 -9.5 -12t-7.5 -13zM95 344l-2 2q-5 -8 -6 -15
q3 8 8 13zM123 360l2 -1q2 3 4 9zM137 518q5 5 5 7v2zM111 444q-1 -2 -2 -3.5t-2 -3.5l2 -1zM74 307l-4 -8q4 1 4 8zM66 291q2 0 3 -1v5zM201 93h1v5h-1v-5zM69 173q5 5 5 13q-2 -9 -5 -13zM421 231q3 3 5 9zM57 269h1q0 2 -1 3v-3zM476 261l-1 1v-1l-1 -1q1 0 2 1zM137 380
q2 2 2 4zM136 466l-2 -1h2v1zM119 388h1q0 2 1 3zM49 245l-1 1v-1h1zM457 230h1v1zM147 484l-1 -1h1v1zM78 264v1h-1zM466 246l1 1h-1v-1zM464 243v-1h1z" />
    <glyph glyph-name="R" unicode="R" horiz-adv-x="531" 
d="M222 487l10 -4l-5 -16l1 -1l7 10l9 -1l-4 -16l10 10l10 -8q0 -3 0.5 -6t0.5 -6q0 -11 -2 -22l-4 -22l-31 -135l-2 -15h6q6 0 21.5 6.5t33 15t33.5 16.5t23 12q13 7 37 21t51 32t55.5 38.5t51.5 41t37.5 40t14.5 35.5q0 6 -3 10.5t-7 8.5q-16 16 -41 26.5t-52.5 17
t-55.5 9t-50 2.5q-44 0 -89.5 -6.5t-89 -21.5t-82.5 -38.5t-69 -57.5q-10 -11 -20 -27.5t-10 -31.5q0 -8 6 -12t12 -7q12 -6 17.5 -10t8.5 -8t6 -8.5t12 -10.5q-8 -3 -15 -3q-18 0 -34.5 9t-29.5 23t-21 31.5t-8 34.5q0 19 10 39q22 44 66.5 74.5t97.5 49t109 27t101 8.5
q34 0 68.5 -3.5t66.5 -14t60.5 -28.5t50.5 -46q14 -19 23 -41.5t9 -46.5q0 -19 -7 -33.5t-19 -28.5q-22 -26 -61.5 -57.5t-85 -61t-90.5 -54t-77 -35.5l27 -40q14 -20 30 -38.5t32 -36.5q31 -35 69.5 -71t79.5 -59q17 -10 35.5 -18t36.5 -16l10 -4l10 -4q28 -9 57 -11.5
t58 -2.5q8 0 13 -4q-27 -19 -53 -26t-58 -7q-65 0 -128 28t-119.5 72.5t-103 98.5t-77.5 106l-3 -4q-3 -30 -3 -60q0 -18 2 -31.5t5.5 -26t9 -25t13.5 -27.5q-5 0 -9.5 -0.5t-9.5 -0.5q-11 0 -21 3q-25 7 -39.5 22t-22.5 34.5t-10.5 42t-2.5 45.5q0 18 2.5 46.5t6.5 61.5
t10 68t13.5 66.5t16 57.5t17.5 41q3 5 8 12.5t13 7.5q3 0 9 -4q-5 -6 -7.5 -12.5t-4.5 -14.5zM545 370q12 11 23 22l22 22l1 3q-14 -14 -29 -26l-30 -24q-32 -26 -65 -48.5t-68 -43.5q-11 -7 -22 -13t-22 -13q-6 -3 -13.5 -6.5t-13.5 -7.5l-3.5 -3.5l-3.5 -3.5
q59 29 116.5 63.5t107.5 78.5zM235 432l-2 1q-14 -45 -24 -90t-15 -91zM32 477q18 17 37.5 30t37.5 30q-1 0 -2 -0.5t-2 -0.5q-9 -3 -20.5 -10.5t-22.5 -16.5t-20 -19t-12 -19zM508 394q-7 -6 -13.5 -11t-14.5 -10q-15 -11 -29.5 -22t-29.5 -21l-47 -30q38 20 74 44.5
t68 52.5zM438 318q7 3 18.5 10.5t23 15.5t22 16.5t16.5 14.5q-22 -11 -41 -27t-39 -30zM64 548q-7 -5 -13 -9.5t-11 -9.5q5 3 13.5 8.5t10.5 10.5zM61 524q1 2 2 2.5t3 2.5q-8 -4 -14.5 -9.5t-12.5 -11.5q6 4 11 8t11 8zM354 289l14 8q-5 -1 -8.5 -2t-5.5 -6zM193 430l-2 1
q-2 -3 -4 -11zM237 445q1 -1 2 -1v4zM183 402l-1 -1v-2h1v3zM370 298l4 2q-2 0 -4 -2zM530 384q4 2 6 4zM181 391v2q-1 0 -1 -2h1zM186 411l-2 -2l1 -1q0 2 1 3zM113 541h-1q-1 -1 -2 -1q2 0 3 1zM379 280h-1q-1 -1 -2 -1q2 0 3 1zM355 267v1h-1zM537 350l1 1q-1 0 -1 -1z
M196 443l-1 -1h1v1zM236 439l-1 -1h1v1zM489 314q-1 0 -1 -1zM518 335q1 0 1 0.5t1 0.5q-1 0 -2 -1z" />
    <glyph glyph-name="S" unicode="S" horiz-adv-x="390" 
d="M302 432l-9 2q-1 1 -1 4q0 5 2.5 7t4.5 4q25 23 38.5 55.5t13.5 66.5q0 20 -11 40t-35 20q-7 0 -10 -1q-27 -5 -50.5 -18.5t-41 -33t-28 -44t-10.5 -51.5q0 -26 10.5 -52t26 -50t33 -46.5l31.5 -40.5q4 2 8 2q1 0 7.5 -2t13.5 -4.5t13.5 -5t8.5 -3.5q-5 -8 -11 -15
t-12 -15q1 -1 1 -2t1 -3q14 -24 24 -42.5t19 -45.5q8 -23 12.5 -48t4.5 -50v-9.5t-1 -9.5q-4 -48 -21.5 -89t-46 -73.5t-67 -55t-84.5 -32.5q-12 -3 -25 -3q-48 0 -84 24.5t-46 72.5q-1 4 -1 12q0 10 2 18t5 17q22 67 59 135t85 122q14 16 29.5 31t30.5 29l7.5 7.5t8.5 5.5
q-5 9 -10 18.5t-11 18.5q-15 23 -33.5 47.5t-35 50.5t-27.5 54t-11 57q0 35 14 67.5t38 57t56 39.5t67 15q27 0 54 -10t47 -28q13 -11 25 -23.5t23 -26.5q19 -24 19 -53q0 -35 -19 -70t-47 -55q-5 -4 -10.5 -7t-11.5 -3q-9 0 -16.5 6t-16.5 8zM239 200l-12 -11
q-26 -25 -53 -62.5t-45 -68.5q-36 -63 -60 -132q-3 -9 -5 -18t-2 -18q0 -11 2 -19.5t13 -12.5q15 -5 27 -5q7 0 17 3t20.5 7.5t20 9.5t16.5 9q22 12 38.5 34t27 48.5t15.5 54.5t5 52q0 34 -8 65.5t-17 63.5zM315 -17q7 17 11 35.5t4 37.5q0 9 -1 18t-3 17q-2 -27 -4.5 -54
t-6.5 -54zM149 541q9 15 19 30l20 30q-15 -11 -25.5 -26t-13.5 -34zM387 495q-8 -12 -15.5 -24.5t-16.5 -24.5l-2 -4q11 5 21.5 23t12.5 30zM51 -49q-1 -3 -3.5 -11t-5.5 -16t-5 -15.5t-2 -10.5q0 -2 0.5 -4.5t0.5 -5.5q5 16 9 32.5t8 32.5zM276 6q6 4 7.5 16t1.5 19
q0 3 0.5 7t-1.5 6q-2 -12 -3.5 -24t-4.5 -24zM302 22q5 7 5 20q0 5 -0.5 9t-1.5 9zM144 577q10 7 12 21q-4 -5 -6.5 -10.5t-5.5 -10.5zM6 -80q-6 -3 -6 -11q0 -2 0.5 -4.5t0.5 -4.5zM140 610l-20 -29l3 1q5 7 10 16t10 14zM22 -87q-3 -5 -4 -11q1 -1 4 -1v12zM356 468
q-5 -2 -5 -5v-3zM7 -71h-2q0 -4 1 -6q0 4 1 6zM340 29l-2 -1q1 -1 1 -4q1 1 1 4v1zM22 -87l2 4h-2v-4zM276 6v-5h1q0 3 -1 5zM60 -32q0 2 -2 2v-3q1 1 2 1zM342 54h-1v-3h1v3zM14 -47h-1v-2h1v2zM138 565v1q-1 0 -1 -1h1zM26 -73q0 1 -1 1v-1h1zM141 573q-1 -1 -1 -2
q1 1 1 2zM148 615q-1 -1 -2 -1q2 0 3 1h-1zM313 -23l-1 -1h1v1zM175 561l1 1h-1v-1z" />
    <glyph glyph-name="T" unicode="T" horiz-adv-x="308" 
d="M241 591q-20 -5 -45.5 -11t-51.5 -11t-51 -9t-45 -4q-17 0 -24 4.5t-21 11.5q-2 3 -5 8.5t-6.5 12t-6 12t-2.5 7.5q0 13 10 13h18q15 0 30 3l30 6l116 25q97 21 194 41.5t197 20.5q9 0 25 -1.5t32.5 -3.5t31 -5.5t22.5 -7.5l13 -32l9 -3l1 -2l-17 -4q-14 -3 -28.5 -3.5
t-28.5 -2.5q-35 -4 -69.5 -7t-69.5 -8q-40 -5 -79.5 -12t-78.5 -15q4 -5 4 -13q0 -6 -3 -17.5t-7.5 -23.5t-9 -23.5t-6.5 -18.5l-49 -153q-8 -23 -14 -47t-12 -47q-13 -49 -25.5 -97t-20.5 -98q-5 -31 -9 -62t-8 -63q-3 -23 -3 -45q0 -36 6.5 -67t17.5 -65l-1 -2
q-10 4 -15 5q-14 4 -20.5 8t-15.5 15q-29 33 -36.5 73t-7.5 82q0 58 9 124.5t23 134.5t31 133.5t34 121.5q3 10 9 27.5t12.5 35.5t11.5 34.5t5 24.5z" />
    <glyph glyph-name="U" unicode="U" horiz-adv-x="719" 
d="M107 464q-32 0 -60 15t-41 45q-1 2 -1 6v9q14 -4 26.5 -8.5t26.5 -4.5q22 0 46.5 7t49.5 17.5t48 23t41 23.5q25 16 49.5 32t49.5 33q12 8 24 15t24 15q5 4 10.5 6.5t11.5 5.5l18 -16t19 -15q3 -9 11 -15.5t8 -17.5q0 -4 -4.5 -13.5t-10.5 -20t-11.5 -20.5t-8.5 -16
q-27 -58 -48 -118.5t-38 -122.5q-8 -29 -15.5 -58.5t-12.5 -58.5q-5 -23 -6.5 -46t-3.5 -46q-1 -5 -1 -10v-10q0 -15 2.5 -30.5t7.5 -29.5q0 -6 8 -6q5 0 9.5 3t9.5 6q30 22 59.5 54t57.5 67t52.5 71.5t44.5 67.5q8 13 12.5 27t9.5 28q13 40 23.5 77.5t23 73.5t28.5 71
t40 71q8 11 14 19t21 10q1 -4 6 -7l-9 -12l2 -1l12 10l7 -6v-8l12 -2v-7l9 -9q2 -8 2 -12q0 -10 -3.5 -19t-6.5 -18q-23 -63 -44.5 -126t-41.5 -127q-17 -57 -32.5 -113.5t-30.5 -113.5q-9 -36 -15.5 -71.5t-11.5 -72.5q-3 -20 -5 -38.5t-2 -38.5q0 -35 5.5 -60.5
t14.5 -57.5q1 -6 4 -11q-23 1 -41.5 13t-32.5 29q-20 26 -24.5 63t-4.5 69q0 51 9 100.5t14 100.5q-25 -35 -54.5 -66.5t-61.5 -60.5q-10 -8 -19.5 -12.5t-23.5 -4.5q-4 0 -8 0.5t-8 0.5q-6 0 -14 -2q-29 6 -49 21t-32.5 36.5t-18 47.5t-5.5 53q0 22 4 55t10 67.5t13 67
t14 54.5l45 142q2 7 4.5 12.5t3.5 13.5q-10 -5 -19 -11.5t-18 -12.5q-17 -11 -39.5 -23.5t-46.5 -23t-48 -17.5t-45 -7zM532 185q-15 -23 -32 -44t-32 -44l12 15l16 17q11 12 20.5 25.5t17.5 27.5zM631 293l2 1q4 16 9 31.5t10 31.5q9 28 18.5 55.5t18.5 56.5l-21 -54
l-8 -23l-3 -10l-1 -3q-7 -20 -12 -42.5t-13 -42.5v-1zM548 260q-8 -14 -18 -27t-19 -27l-56 -76q6 6 20.5 24.5t30 40t28 40.5t14.5 25zM631 293q-2 -9 -5 -17.5t-6 -16.5q7 8 8.5 16t2.5 18zM607 206q2 2 2 3t2 3q-1 2 -4 2v-8zM603 185q4 10 4 19q-1 -2 -2.5 -9t-1.5 -9
v-1zM434 59q2 4 5 7t5 6l-7 -6zM700 504q-1 -2 -2 -4.5t-1 -4.5l-1 -2l1 1q1 2 2.5 4.5t2.5 4.5zM548 261q2 0 5 3q0 1 -0.5 1t-0.5 1zM595 157h2v4h-2v-4zM600 180l1 -1q2 4 2 6zM614 228q2 2 2 5h-2v-5zM445 124q-2 -6 -2 -10q2 6 2 10zM589 134h1v4h-1v-4zM584 112h2v2
h-2v-2zM598 168h1v4h-1v-4zM439 113q-2 -2 -2 -4l2 3l2 1h-2zM613 222v3l-2 -2zM622 251q-2 0 -2 2q0 -1 -0.5 -1t-0.5 -1h3zM407 78q1 0 4 3zM453 79q-4 0 -6 -4zM413 38q-3 0 -4 -1q3 0 4 1zM587 125h1v2h-1v-2zM436 108l-1 -2q1 1 1 2zM395 65q1 0 1 1h-1v-1zM420 45l4 2
h-1zM522 192v1q-1 0 -1 -1h1zM291 564h1q0 1 -1 1v-1zM431 103l-2 -2zM420 44l-2 -2zM692 479l-3 -10zM655 378q1 0 1 1z" />
    <glyph glyph-name="V" unicode="V" horiz-adv-x="538" 
d="M280 486q-23 -4 -47 -15.5t-46 -19.5q-26 -9 -57.5 -19.5t-58.5 -10.5q-10 0 -21 4.5t-20 11.5t-15 16.5t-7 20.5q1 1 5 1q5 0 11 -1t11 -1q21 0 46.5 6t52 15t51.5 19t44 19q4 2 15.5 8t24 12t22.5 11t13 5q6 0 15.5 -7.5t17.5 -18t14 -21t6 -16.5q0 -8 -4.5 -26
t-5.5 -27q-8 -42 -16 -83t-19 -83q-9 -36 -18 -71.5t-17 -71.5l-19 -88q-2 -11 -5.5 -23.5t-3.5 -23.5q7 5 14.5 8t14.5 8q43 29 85 86.5t77.5 126t63 137.5t42.5 122q8 30 15 60.5t7 62.5q0 23 -2.5 45.5t-10.5 45.5q-5 14 -10.5 27.5t-9.5 27.5l3 1q8 -5 15 -10t14 -12
q30 -29 48.5 -72t18.5 -85q0 -39 -5.5 -78t-16.5 -77q-15 -52 -36.5 -106.5t-48.5 -108t-57.5 -103t-63.5 -92.5q-34 -45 -86 -70q-10 -5 -20.5 -8.5t-21.5 -3.5q-15 0 -30.5 6t-29 16t-24 23t-15.5 27q-3 8 -3.5 16t-0.5 16q0 24 4 46t9 45l32 134q9 38 19.5 74.5
t21.5 73.5q5 17 11 34.5t8 34.5zM564 366v1q-1 -3 -2.5 -5t-3.5 -4q-5 -7 -8 -15l-6 -16q-8 -17 -14.5 -33.5t-14.5 -33.5q-17 -35 -37 -69t-41 -67q-18 -28 -35.5 -55t-39.5 -52q-2 -2 -4 -6q22 17 47.5 51t49.5 73.5t43.5 78t30.5 65.5zM418 159q-17 -24 -34.5 -47.5
t-32.5 -49.5q7 3 17 16.5t20.5 30.5t19.5 32.5t14 23.5q4 5 7.5 10.5t5.5 12.5q-2 -4 -9 -14.5t-8 -14.5zM396 89l-14 -18t-14 -19q5 2 11.5 9t12.5 17t11.5 20t10.5 18q-6 -10 -11 -17.5t-7 -9.5zM443 163q-1 -3 -8.5 -15t-16.5 -26l2 2q5 8 13.5 19t10.5 20l1 2zM459 226
q2 4 2 7q-3 -2 -3 -4v-1zM441 197q-2 -2 -3.5 -4.5t-2.5 -4.5q4 3 6 8l1 1h-1zM467 202q3 1 3 4v3zM451 174q1 2 2.5 4.5t3.5 4.5h-1q-3 -3 -5 -9zM449 172l2 2zM334 44q0 1 0.5 1t0.5 1l-2 -2h1zM479 265l-1 1v-1h1z" />
    <glyph glyph-name="W" unicode="W" horiz-adv-x="602" 
d="M645 778q15 -32 21 -67.5t6 -70.5q0 -53 -5 -101.5t-14 -96t-21.5 -94.5t-28.5 -97q-13 -41 -27 -77q-8 -20 -20.5 -43.5t-28 -46.5t-32.5 -44t-33 -35q-15 -14 -34 -22.5t-40 -8.5q-27 0 -49 12.5t-39 32.5q-14 17 -19 40.5t-5 45.5q-11 -14 -30 -36.5t-41.5 -44.5
t-45.5 -38t-41 -16q-6 -11 -15 -11q-16 0 -29.5 8.5t-23.5 21.5t-15.5 28.5t-5.5 29.5q0 13 1.5 31.5t4.5 37t7 36.5t8 31q25 81 62.5 155t79.5 147l1 6q-19 -8 -43.5 -16.5t-44.5 -8.5q-7 0 -16.5 3.5t-18.5 9.5t-15 13.5t-6 15.5q0 4 1 6q44 3 84 19t77 39q12 8 24 15.5
t26 12.5q7 -3 16 -8.5t17 -12t13.5 -14.5t5.5 -17q0 -4 -4 -14.5t-9.5 -22t-11 -22.5t-7.5 -16q-28 -59 -54 -115.5t-48.5 -113.5t-40.5 -116.5t-31 -124.5l3 -2q3 3 11 7q19 12 43.5 36.5t48.5 53t44.5 57t31.5 48.5q5 10 8.5 19.5t7.5 20.5q14 39 28.5 78t43.5 71
q5 5 12.5 11t15.5 6q5 0 9.5 -2.5t9.5 -4.5l2 -6h4l5 2v-5q0 -2 -4 -10t-9 -17t-9.5 -17.5t-6.5 -12.5q-12 -24 -21.5 -53.5t-18 -61t-14.5 -62.5t-10 -58v-3q0 -4 2 -6q13 66 32 138t50 132l15 29l12 -6q-2 -20 -11 -39t-15 -38q-10 -30 -20.5 -65.5t-19.5 -72t-14.5 -72.5
t-5.5 -67q0 -2 0.5 -2.5t0.5 -2.5q14 5 28 17t25 23q35 38 62 84t46 94q17 44 32.5 95.5t27.5 105.5t19 107.5t7 100.5q0 31 -2 56.5t-8 49t-18 46t-32 47.5q-3 4 -9.5 12.5t-6.5 12.5q17 -5 29.5 -13.5t25.5 -20.5q15 -14 28.5 -30t22.5 -35zM441 373q0 -1 1 -1v1h-1z
M431 353h1v1zM430 349q0 -1 1 -1v1l-1 1v-1zM428 344q1 0 1 1h-1v-1zM420 327q0 -1 -0.5 -1t-0.5 -1l1 1v1zM377 310q2 7 5 14t7 15q-3 -6 -6 -11.5t-5 -11.5q-1 -1 -1 -6zM380 363q-9 -11 -15.5 -23t-11.5 -25l2 -1q7 12 13 24.5t12 24.5zM197 367q-1 -2 -1 -7
q11 14 20.5 35t17.5 38q13 26 29.5 51.5t24.5 53.5l-2 1q-15 -21 -25 -44t-22 -46q-11 -20 -22.5 -40.5t-19.5 -41.5zM196 359q-11 -15 -17 -32t-13 -34l30 64v2zM139 233l1 -2q0 2 1 3zM137 226q-2 -4 -2 -6l4 5zM126 191h1v1zM335 172h-1q0 -1 1 -1v1zM340 189l-1 1v-1h1z
M340 198l1 -1v1h-1zM342 84h-1v-4l1 1v3zM592 336h1v1zM587 318h1v1h-1v-1zM585 313h1l-1 1v-1zM580 351h1l-1 1v-1zM579 290l1 1h-1v-1zM570 265q-1 -2 -1 -7q1 2 1 3t2 3zM559 286l2 -3q0 2 -1 3h-1zM557 227l1 1v1l-1 -1v-1zM550 210q0 -2 -2 -4q-1 -2 -2 -5t-2 -4
q0 -2 -2 -6l4 5q0 3 1.5 5t1.5 4q1 1 1 3.5t1 4.5zM547 248q0 -3 -6.5 -17.5t-14.5 -32t-15 -33t-10 -19.5q5 7 12.5 21.5t14.5 30t12.5 30t7.5 21.5zM558 158h-1l1 -1v1zM560 162q0 1 -1 1v-1h1zM562 167l-1 -1h1v1zM579 208h-1l1 -1v1zM584 220l-1 1v-1h1zM585 225h-1v-1z
M631 430q-1 -1 -3 -8q-20 -80 -44.5 -158.5t-66.5 -150.5q-5 -8 -9.5 -15.5t-8.5 -15.5q24 22 45 66t38 94.5t29.5 100t19.5 81.5v6zM635 445l-2 1q-2 -6 -2 -9l2 -1zM637 451l-2 2v-2h2zM638 461l-1 1q-1 -1 -1 -3zM639 471q-1 -1 -1 -2l1 -1v3zM640 476q0 1 1 2h-1v-2z
M644 506h-1q0 -1 1 -2v2z" />
    <glyph glyph-name="X" unicode="X" horiz-adv-x="421" 
d="M486 578l5 2l-2 -2l10 -8q-6 -11 -14.5 -20.5t-15.5 -20.5q-47 -74 -85.5 -151.5t-76.5 -155.5q-2 -4 -2 -6q0 -6 10 -32.5t23.5 -57t26 -57.5t17.5 -36q8 -14 17.5 -28t20.5 -26q10 -11 23 -16t27 -9q-1 -10 -13.5 -12t-19.5 -2q-32 0 -58 21t-47 50.5t-37.5 62.5
l-28.5 57q-4 -11 -8.5 -21.5t-9.5 -21.5q-26 -66 -50.5 -133t-35.5 -137q-5 -29 -5 -59t-2 -59h-2l-4 7q-2 2 -10.5 1.5t-13.5 0.5q-11 2 -17.5 13.5t-10.5 26t-5.5 29t-1.5 23.5q0 39 15 96t37 117.5t45.5 116.5t41.5 93q-30 82 -55 173.5t-31 179.5q-24 -15 -47 -31
t-47 -31q-5 -3 -9.5 -5t-10.5 -2q-8 0 -16 4t-16 7v5l-10 3q-1 1 -1 4t10 12t25.5 21t33.5 26t35 26.5t30.5 22t18.5 12.5q9 6 17 6q14 0 32.5 -9.5t28.5 -20.5q4 -4 6 -9.5t4 -10.5q2 -7 2 -14t1 -15q5 -64 14 -128t27 -126l2 -6q11 17 20 35t19 36q15 29 30.5 56.5
t31.5 56.5q6 10 15.5 27t21 33t24.5 28t25 14l27 -19zM255 158l-3 1q-5 -8 -8.5 -18t-7.5 -19q-11 -27 -27.5 -69.5t-32.5 -88.5t-27 -89.5t-11 -71.5q2 6 2.5 12.5t1.5 12.5q6 39 18.5 77.5t26.5 75.5q11 29 22 57l22 56q7 16 14 31.5t10 32.5zM294 246h2q41 83 82.5 164
t93.5 157q-6 -4 -17 -20t-25 -38.5t-29 -49t-28.5 -51.5t-24 -44.5t-14.5 -28.5q-2 -5 -9 -18t-14 -27.5t-12 -27t-5 -16.5zM237 199q-3 0 -4 -3l-58 -141q-3 -7 -5 -14t-5 -15l3 4q5 9 9 21.5t9 23.5l34 82q5 10 10 21t7 21zM247 176l-4 2q-11 -26 -22 -51t-19 -52z
M444 578q-11 -10 -29 -37.5t-37 -59.5t-35 -62.5t-23 -45.5q31 58 66 117q8 14 16.5 29t18.5 29zM340 377q-13 -26 -26 -52.5t-27 -52.5l3 -2q13 28 26 55t27 54zM281 291q6 14 12 27t14 26l1 3q-3 -4 -7.5 -11.5t-9 -16t-7.5 -16.5t-3 -12zM403 490q8 9 14 20.5t13 22.5z
M187 37q-3 -5 -5 -11t-5 -11q5 1 6.5 9.5t3.5 12.5zM376 442q3 3 7 11.5t6 14.5q-4 -6 -6.5 -13t-6.5 -13zM368 426q-4 -3 -6 -10q5 5 6 10zM459 571l-2 2l-4 -8zM447 558q-6 -8 -8 -12q2 4 8 12zM348 389l2 3v2q-2 -2 -2 -5zM122 -109q0 3 -1 5v-5h1zM125 -94h1v4
q-1 -1 -1 -4zM140 -44h1v4q-1 -1 -1 -4zM148 -80h-2v-3zM143 -94h-1v-3h1v3zM138 -52h1v3h-1v-3zM121 -104l3 2l-1 1zM131 -75l1 3l-1 1v-4zM139 -110h-1v-2h1v2zM366 365v1q-1 0 -1 -1h1zM329 292h-1q0 -1 1 -1v1zM217 34q0 1 -1 1v-1h1zM145 -88q0 1 0.5 1t0.5 1l-2 -2h1z
M434 539v1q0 -1 -2 -3zM159 -46q-1 1 -1 2v-2h1zM450 517h-1l1 -1v1zM353 340l-1 -1h1v1zM453 565l-2 -2zM354 401l-2 -2zM326 287l1 1h-1v-1zM247 111l-1 -1h1v1zM461 535l-1 -1h1v1zM236 84v1h-1zM248 116h1v1zM402 434l1 1h-1v-1zM404 438l1 1h-1v-1zM134 -65v1h-1z
M303 237v1h-1zM140 -103l1 -1v1h-1zM456 528v-1h1zM222 52l1 -1v1h-1zM233 80l1 -1v1h-1zM258 136l-1 1v-1h1zM355 344h-1l1 -1v1zM231 74v-1h1zM251 121h-1l1 -1v1zM323 279h-1v-1zM430 485v-1h1zM156 -54v1h-1zM119 -117h-1l1 -1v1zM237 90h1v1zM211 23h1v1zM437 543
q0 1 2 3q-2 -2 -2 -3zM430 533q0 1 2 3q-2 -2 -2 -3z" />
    <glyph glyph-name="Y" unicode="Y" horiz-adv-x="434" 
d="M486 550q6 -5 6 -13q0 -2 -2 -9t-5 -14.5l-6 -15t-4 -10.5q-15 -41 -29.5 -81.5t-25.5 -82.5l-46 -169q-6 -22 -11 -44t-11 -45q-6 -25 -13 -49t-15 -48q-11 -33 -22 -65.5t-22 -65.5q-7 -19 -13.5 -37.5t-15.5 -36.5q-11 -23 -26.5 -52t-35.5 -55t-44.5 -44t-53.5 -18
q-19 0 -35.5 7.5t-30.5 20.5q-12 11 -14.5 24.5t-2.5 29.5q0 30 9 59t24 55.5t35 50t41 43.5q13 12 30.5 26t33.5 21l-5 -11l14 5l-1 -11l9 4q-3 -3 -3 -5v-3l10 2q8 13 13 27.5t10 28.5q8 23 17 46.5t16 47.5q6 20 11 39.5t10 39.5t10.5 40.5t10.5 40.5q-4 -3 -21 -21.5
t-36.5 -41t-37 -43.5t-23.5 -27t-17.5 -19t-24.5 -25.5t-25.5 -22t-20.5 -9.5q-5 0 -13 2q-35 8 -53 32.5t-18 60.5q0 24 6.5 58t17.5 71.5t25 77.5t30 76.5t32 66.5t30 50q-9 -3 -23.5 -8t-30 -10.5t-29.5 -9t-23 -3.5t-19 4.5t-19 12t-14.5 17t-5.5 18.5q0 3 2 6t6 3
q5 0 9.5 -2t9.5 -2q11 0 27.5 4.5t34 11.5t34 14t27.5 12q16 7 39.5 17.5t39.5 12.5q5 -5 13 -12t15 -14.5t12 -15.5t5 -16q0 -17 -11.5 -38t-19.5 -36q-23 -45 -42 -90q-9 -21 -24 -58.5t-30 -78.5t-25.5 -78.5t-10.5 -58.5q60 60 116 122.5t110 128.5q6 7 11.5 14t10.5 15
q6 11 10.5 23t9.5 24q14 36 33 73.5t45 66.5q4 4 6 4t4.5 -2t4.5 -4q-2 -2 -3.5 -4.5t-1.5 -4.5l9 5l6 -4t1 -6l9 -3l-1 -10zM180 429h1l-1 1v-1zM165 397l1 1v1l-1 -1v-1zM163 391l1 -1v1h-1zM141 342q-1 -1 -1 -2q1 0 1 1v1zM134 322h1l-1 1v-1zM130 308l1 2l-1 1v-3z
M117 279l2 -1q1 2 1 5zM106 244l1 -1v1h-1zM134 68l-1 2l-3 -3h2zM212 -133l1 -2h3zM231 -154q-8 -8 -12 -19.5t-8 -22.5l7 6q4 9 6.5 18t6.5 18zM93 -199q-2 -3 -3.5 -6.5t-3.5 -6.5q5 5 7 13zM83 -218q-12 -20 -21.5 -40t-9.5 -45q9 20 15.5 42.5t15.5 42.5zM28 -284
q-1 -1 -4 -1l2 -2zM39 -242q-1 -5 -3.5 -10.5t-4.5 -11.5q2 5 7.5 16.5t5.5 13.5q-2 -2 -2.5 -4t-2.5 -4zM45 -270h-3l3 -2v2zM51 -309q1 0 1 -0.5t1 -0.5l-1 6q-1 -1 -1 -5zM158 -259l1 -1q-1 0 -1 1zM72 -342q47 51 74.5 111.5t52.5 123.5q-45 -38 -78 -83.5t-47 -104.5
q-2 -7 -3 -14t-1 -14q0 -5 0.5 -9.5t1.5 -9.5zM183 -214q7 18 15 35.5t12 36.5l-30 -69v-5zM191 -288q-1 -1 -1 -2l1 1v1zM197 -283q17 34 35 68t26 72q-2 -2 -3.5 -5.5t-3.5 -6.5q-14 -30 -25.5 -60t-27.5 -59zM252 246q4 4 5 7h-2zM176 113q3 3 3 4q-3 -3 -3 -4l-3.5 -3.5
t-3.5 -2.5l-1 -3l7 6zM203 139q28 34 57 67t56 68q-2 0 -4 -2q-8 -9 -18.5 -21t-21.5 -25t-21 -25t-16 -21q-8 -11 -25 -28t-27 -31q5 5 10 9t10 9zM322 308q2 0 3 1h-1q-1 -1 -2 -1z" />
    <glyph glyph-name="Z" unicode="Z" horiz-adv-x="516" 
d="M361 205l-1 -1v1h1zM281 362q59 0 109 -20t80 -74q14 -25 22 -53t8 -56q0 -35 -12 -70.5t-31 -69t-43.5 -63t-49.5 -51.5q-17 -15 -36.5 -28t-39.5 -24q-16 -9 -35 -18t-39.5 -16.5t-41 -12t-38.5 -4.5q-42 0 -79.5 21t-51.5 63q-3 9 -3 19q0 18 11.5 38t22.5 34
q54 72 120 132.5t144 104.5q11 6 21.5 10t22.5 6l-6 -13q6 4 9 4t6 -3l-8 -8q3 0 6.5 -1t6.5 0q-12 -11 -24 -21t-26 -19q-32 -20 -62 -42t-58 -48q-36 -35 -69 -72q-12 -14 -22.5 -28t-22.5 -28q19 15 34 35.5t32 37.5q25 27 52 52t56 48q15 11 30.5 21.5t30.5 21.5
q14 9 27.5 17.5t25.5 19.5v-8l5 7q0 -14 -14 -26q-11 -9 -23.5 -17t-23.5 -16l-46 -34t-44 -37q-20 -19 -44.5 -43t-47.5 -51t-41.5 -55t-25.5 -54q10 -3 19.5 -5t20.5 -2q25 0 52 7.5t53.5 19t51 25.5t45.5 28q27 18 55.5 48t52 65.5t38.5 73.5t15 71q0 37 -15 58.5
t-39 32.5t-53.5 14.5t-58.5 3.5q-37 0 -72.5 -10t-69.5 -23l-2 10l-1 -1q-7 3 -12 10t-5 15q0 12 6.5 27t15.5 23l80 72q26 23 52 44.5t52 44.5q14 11 28 22.5t27 24.5q2 2 4 7q-39 -10 -78.5 -18t-79.5 -16q-27 -5 -54.5 -9.5t-55.5 -4.5q-17 0 -35.5 5t-33.5 15t-24.5 25
t-9.5 35q2 2 5 2t4 -1l3 -3q17 -15 38.5 -18t43.5 -3q66 0 132 13.5t131 26.5q25 5 50 12t51 7q2 -4 5 -11t6 -14.5t5.5 -14.5t2.5 -10q0 -9 -16 -27t-40.5 -41t-54.5 -48.5t-57.5 -48.5t-49.5 -40.5t-31 -25.5l1 -2q7 1 14 1h14zM297 569q-1 1 -2 1l-1 -1h3zM307 572h-1v-1
h1v1zM346 580q0 1 -1 1v-1h1zM355 583l-1 -1h1v1zM367 585h-3v-1h2zM377 587h-3v-1h3v1zM415 595h1v1h-1v-1zM386 588q1 0 1 0.5t1 0.5h-2v-1zM397 591l-1 1l-4 -3zM377 495l1 -1l3 3v1zM186 306h-1v-1h1v1zM207 352q7 3 23.5 16t35 29.5t36.5 32.5t28 24q-32 -25 -62 -50
t-62 -50zM234 103q0 1 -1 1zM166 40l1 1h-1v-1zM142 54q2 1 6 5zM217 122q-7 -5 -13 -10t-12 -11q-6 -5 -11 -9.5t-10 -9.5q2 0 10.5 8.5l10.5 10.5zM288 190l1 1h-1v-1zM232 153q3 2 5.5 4t5.5 4l-3 -1zM168 101q-2 0 -7.5 -5.5t-12.5 -12t-13 -13t-8 -8.5q12 6 21.5 18
t19.5 21q8 8 16 15t17 13q8 5 16 11t14 13q-3 -2 -12.5 -9t-20.5 -16t-20 -16.5t-10 -10.5zM122 35q-1 -2 -2 -2.5t-2 -1.5h2l2 2v2zM352 -55q-9 -5 -16.5 -13.5t-16.5 -13.5l3 1q8 6 15.5 12.5t14.5 13.5zM338 -79q0 1 -1 1zM337 -46q-11 -8 -21.5 -16t-19.5 -17
q10 5 21.5 15t19.5 18l3 2l2 3q-2 -1 -2.5 -2t-2.5 -3zM269 -132q-3 -1 -4 -4l1 -1zM287 -122q12 4 28.5 14.5t32.5 24.5t29 28.5t19 25.5q-2 -1 -2.5 -2t-2.5 -3q-23 -26 -49.5 -47t-54.5 -41zM357 210q1 0 2 1v-1h-2z" />
    <glyph glyph-name="zero" unicode="0" horiz-adv-x="347" 
d="M100 456l-16 -6q4 13 14.5 26t25 22.5t30 15.5t29.5 6q36 0 70 -19t55 -48q11 -16 15.5 -33t4.5 -37q0 -35 -8.5 -72t-19.5 -71q-9 -27 -26 -62t-38 -70.5t-44.5 -66.5t-44.5 -49q-11 -10 -28.5 -16t-32.5 -6q-18 0 -34.5 8t-29.5 20q-16 14 -19 36t-3 42
q0 74 16.5 149.5t44.5 144.5q6 15 13.5 29.5t13.5 29.5q3 7 5.5 13.5t6.5 13.5zM81 27l4 -1q33 39 63 86t53 98t36.5 104t13.5 105q0 7 -1 17t-4 18.5t-8.5 14.5t-15.5 6q-3 0 -5 -1t-5 -2q-14 -4 -23.5 -11.5t-12.5 -21.5l-1 -1q-29 -66 -50 -134t-33 -140q-5 -27 -8.5 -54
t-3.5 -54q0 -8 0.5 -14.5t0.5 -14.5zM155 443q-11 -11 -23 -36.5t-23 -59.5t-21 -73t-17.5 -75t-12 -65.5t-4.5 -46.5v-8t1 -8q9 97 33 190.5t67 181.5zM300 342q-4 -11 -7 -26q-16 -65 -42 -124q-4 -11 -8.5 -20.5t-9.5 -19.5l-3 -8q27 46 45 95.5t25 102.5zM254 299
q-6 -9 -10.5 -21.5t-8.5 -26t-8 -25.5t-8 -19l2 -1q10 23 18.5 46t14.5 47zM269 284q-8 -8 -10.5 -20t-4.5 -23zM111 432q-8 -8 -11 -19zM218 200l-2 1q-1 -2 -1 -5zM95 402q-1 -3 -5 -9q5 5 5 9zM45 256h-1v-4h1v4zM270 289h-2l1 -3zM70 338l-3 -2l1 -1zM271 296h1v2h-1v-2
zM255 304h-2q0 -1 0.5 -1t0.5 -1q0 1 1 2zM283 227v1h-1v-1h1zM116 402h-1q0 -1 0.5 -1t0.5 -1v2zM221 127q0 2 1 3l-2 -3h1zM62 315v1l-1 -1h1zM289 245v1l-1 -1h1zM101 368v1l-1 -1h1z" />
    <glyph glyph-name="one" unicode="1" horiz-adv-x="267" 
d="M-9 12q8 17 28 26t36 17q5 61 22 116q16 53 33.5 105t35.5 104q5 14 11.5 28t9.5 28q-12 -5 -21 -5q-17 0 -28 11t-19 23q4 4 14.5 9.5t23.5 10.5t25 10t18 8t16 9.5t17 6.5q7 -4 12 -6.5t8.5 -5t7 -7t8.5 -11.5q4 -6 8.5 -10t4.5 -12q0 -4 -2 -10q-4 -12 -15.5 -42
t-26.5 -69.5t-31 -83.5t-29.5 -82t-22 -65.5t-7.5 -34.5q8 1 17 1.5t17 0.5q15 0 25 -2t18 -6.5t15.5 -11.5t17.5 -17q-11 -4 -22.5 -4.5t-22.5 -2.5q-27 -3 -52.5 -11.5t-49.5 -20.5q-4 -2 -11.5 -6l-15 -8t-15 -7t-11.5 -3q-8 0 -13 7l-7 -2l-4 6h1l-1 5q-5 0 -12 3l1 7z
M173 291l5 12q-2 0 -4 -2q-1 -4 -5 -12q2 0 4 2zM185 326q-3 -4 -7 -14q5 2 6 6t1 8zM197 353q-1 1 -3 1l-4 -15q4 10 7 14zM149 229h3q0 2 -0.5 3.5t-0.5 3.5q-2 -4 -2 -7zM167 275q3 3 3 8l-1 2q0 -4 -2 -10zM139 196h-1v-4q1 1 1 4zM213 398l-1 1v-3zM144 208l-1 1v-3z
M145 217h1v2q-1 -1 -1 -2zM130 169q0 1 0.5 1t0.5 1h-1v-2zM208 393q0 -1 1 -1v1h-1zM119 135h1v1zM197 360l1 -1v1h-1zM9 13h-1v-1z" />
    <glyph glyph-name="two" unicode="2" horiz-adv-x="371" 
d="M149 92q15 0 30.5 1.5t30.5 1.5q29 0 59 -6t53 -26l15 -12q-8 -5 -17.5 -6.5t-18.5 -1.5q-8 0 -16 0.5t-16 0.5q-24 0 -48 -2.5t-48 -7.5q-26 -5 -50 -12.5t-49 -15.5q-6 -2 -10 -2q-5 0 -8.5 0.5t-8.5 1.5l-3 5l-10 -3v6h-7l1 7l-6 -2l-10 9l3 8l-7 -3l-5 7.5t-3 8.5
t3.5 7.5l5.5 5.5q20 19 39 38t37 39q14 15 34.5 38t43 50t45 57t40.5 58.5t29.5 54.5t11.5 46q0 4 -0.5 7t-1.5 7q-8 2 -13 2q-6 0 -12 -1t-12 -3q-31 -8 -67 -25t-55 -44q-4 -5 -6.5 -11.5t-5.5 -12.5q-14 5 -28 15t-14 27q0 21 16 39t39 31.5t48 22.5t43 11q7 1 14 1.5
t14 0.5q19 0 33 -7t28 -20q14 -14 28 -32t14 -40q0 -25 -9.5 -52t-23.5 -53.5t-31 -50t-33 -42.5q-26 -31 -51.5 -61.5t-53.5 -59.5zM300 324q-39 -66 -89.5 -122t-98.5 -115q9 6 29.5 28.5t43.5 49t43.5 51.5t29.5 37q13 17 23.5 34t18.5 37zM242 300q-28 -38 -57.5 -73.5
t-58.5 -71.5q6 6 24.5 27.5t39 46t36.5 45t16 25.5v1zM146 430q-9 -5 -21 -15t-12 -21q7 10 16 18.5t17 17.5zM253 282q-7 -8 -12.5 -16.5t-12.5 -16.5l-28 -35q4 4 12 13.5t16.5 20t15.5 20.5t9 14zM173 183l-9 -13q3 3 6 5.5t3 7.5zM106 131l5 10l-4 -4t-2 -4zM118 426
l-4 -5q2 1 4 5zM113 443l-4 -4l5 4h-1zM125 433h-1l-2 -2zM196 162l-1 -1q1 0 2 1h-1zM253 313h-1q0 -1 -1 -2z" />
    <glyph glyph-name="three" unicode="3" horiz-adv-x="301" 
d="M217 336q32 -20 53 -50t21 -69q0 -32 -16.5 -71t-43 -73t-60 -57.5t-67.5 -23.5q-19 0 -37.5 7t-33.5 19t-24 29t-9 37q0 18 6.5 34.5t17 31.5t24.5 27t28 21q10 6 20.5 8t21.5 2q9 0 17.5 -9t14.5 -15l8 2l-4 -8q-15 -14 -31 -27t-29 -28.5t-21 -33.5t-7 -41q2 0 3 -0.5
t2 -0.5q6 0 11 2l10 4q25 10 49.5 32.5t44 50.5t31.5 59t12 58q0 12 -3 24q-2 11 -5 14.5t-15 3.5q-43 0 -77 -17q-6 -3 -11 -3q-6 0 -10 4l4 8l-10 -6q-3 6 -6.5 8.5t-7 5.5t-6 6.5t-2.5 11.5q0 6 3.5 10.5t8.5 8.5q28 21 54.5 42t52.5 45q13 13 22 25.5t12 30.5q1 4 0.5 7
t0.5 7q-13 5 -24 5q-21 0 -48 -9t-51.5 -25t-41.5 -36.5t-17 -44.5q0 -3 -1 -6t-2 -5q-18 9 -31 20t-13 34q0 21 16 41t39 36t48.5 26.5t43.5 12.5q5 1 10 1h10q34 0 60 -16t40 -48q5 -12 5 -24q0 -18 -6 -33t-15.5 -28t-21 -25t-23.5 -24q4 -4 6 -5zM54 476q-5 -3 -10 -6.5
t-6 -10.5zM49 453l1 -1v1h-1zM48 427l4.5 4.5l10.5 10.5t12 12.5t9 9.5q-12 -8 -21 -15.5t-16 -21.5h1zM246 409l4 4v1zM161 364q2 0 5 3l5 5l-9 -6zM197 396q-3 -2 -12 -10t-11 -11q1 0 4 3t7 6.5t7.5 7l4.5 4.5q3 3 6.5 6t6.5 7q2 0 2 2l-2 -2q-3 -3 -6.5 -6t-6.5 -7z
M188 347q13 8 24.5 19.5t21.5 22.5q4 5 6 9t5 9q-3 -2 -12 -10.5t-18.5 -18.5t-17.5 -19t-9 -12zM63 146q1 1 2 1v1zM37 139q8 10 14 20zM53 132l4.5 4.5t3.5 6.5zM54 100q4 3 9 9t10 13.5t10 14.5t8 11q-3 0 -7 -3.5t-8.5 -8t-8.5 -9t-5 -6.5q-3 -5 -4.5 -10.5t-3.5 -10.5z
M220 127q-2 0 -2.5 -2t-0.5 -4q1 2 5 6h-2zM217 156q-1 -1 -1 -3zM212 114q-4 -3 -9 -10.5t-8 -12.5q4 4 9.5 11t7.5 12zM208 141q-9 -15 -20 -29t-21 -28q12 14 22.5 27.5t18.5 29.5zM171 43l-1 -1h1v1zM182 52q11 6 22 18.5t21 27.5t17.5 30.5t11.5 27.5l-1 -1l-47 -72
q-5 -8 -12 -15.5t-12 -15.5zM224 80h-1v-1zM240 103h-1v-1zM244 110l-1 -1h1v1z" />
    <glyph glyph-name="four" unicode="4" horiz-adv-x="391" 
d="M371 460l4 2q10 -7 10 -17q0 -4 -4 -16t-9.5 -26.5t-10.5 -27.5t-7 -19l-42 -113q8 -6 15.5 -12.5t15.5 -11.5q-5 -14 -19.5 -16t-25.5 -4q-11 -32 -20 -63.5t-16 -63.5q-7 -34 -7.5 -68t-0.5 -68q-5 5 -10 8t-12 3q-11 0 -19 11.5t-13 27.5t-7.5 31.5t-2.5 24.5
q0 35 7.5 68t15.5 66q1 3 0.5 5.5t0.5 5.5l-13 -2l-50 -17q-17 -6 -37 -17.5t-38 -11.5q-6 0 -11 0.5t-10 3.5l-9 -2l-28 20v1q-4 3 -11 11t-7 13q0 4 1 7q8 28 16 55.5t18 54.5q4 11 15.5 39t24 58.5t22 56t9.5 32.5q0 5 -2 7.5t-4.5 4.5t-5 4.5t-3.5 7.5l1 -1v1l-8 6
q-1 11 12 11q12 0 26 -7.5t26 -19t19.5 -25.5t7.5 -26q0 -15 -8 -44.5t-19.5 -63t-22.5 -64.5t-17 -47q31 8 62.5 14t63.5 8q5 11 8 22t7 22q11 32 22 63t22 63q6 14 11.5 29t12.5 29q5 11 15 11l10 -5l-3 -11l9 8l9 -5v-10l4 4l9 -4q-1 -3 -1 -6.5v-6.5v-1l1 -2zM127 366
l-3 -3q-13 -30 -23 -60t-21 -61q8 7 13 25.5t9 29.5zM128 371h-1v-3zM270 192v-2h1q0 1 -1 2z" />
    <glyph glyph-name="five" unicode="5" horiz-adv-x="390" 
d="M122 185l21 -15l-2 -2l16 -2q-9 -12 -19.5 -21l-21 -18t-21.5 -19t-21 -25q-7 -11 -11 -20t-4 -22q0 -5 1.5 -10.5t2.5 -10.5h4q26 0 57 19.5t59.5 47.5t51.5 58.5t33 52.5q7 15 11 31t4 33q0 22 -8 40.5t-34 18.5q-32 0 -60.5 -8t-57.5 -21q-8 -4 -14 -4
q-18 0 -33.5 14.5t-15.5 32.5q0 3 3.5 14t8.5 24t9 24.5t6 15.5q7 16 15 31t15 31q2 5 3 11t3 11h-4q-1 2 -3 7t-2 7q0 10 11 10h18h58q29 0 58 3.5t58 3.5q8 0 16 -1.5t16 -3.5q5 -7 9 -13.5t10 -11.5l-17 -11l1 -2l18 7l7 -7q-6 -19 -28 -24q-17 -5 -34 -6.5t-34 -3.5
q-25 -4 -49.5 -6.5t-50.5 -3.5l-14 -40t-15 -40q12 2 23.5 3.5t23.5 1.5q25 0 51 -10.5t46.5 -28t33.5 -41.5t13 -51q0 -4 -0.5 -7t-0.5 -7q-3 -32 -22 -71t-47.5 -75t-62 -63t-64.5 -35q-20 -5 -37 -5t-37 6.5t-37.5 18.5t-29 28.5t-11.5 35.5q0 21 12.5 43t31 40t41 29.5
t43.5 11.5zM310 176q-17 -26 -32.5 -51t-35.5 -49q-3 -4 -5 -7t-4 -7q23 26 44.5 53t32.5 61zM73 113h-2q-4 0 -6.5 -4.5t-4.5 -6.5q-7 -8 -11.5 -16t-6.5 -19zM279 148v4l-1 -4q-7 -7 -12 -15.5t-10 -16.5q5 5 12 15.5zM268 164q-7 -8 -12.5 -17.5t-11.5 -18.5q14 14 24 36
zM22 98q2 3 4 6.5t4 7.5q-2 -2 -4.5 -6t-3.5 -8zM228 108q4 4 7 10q-2 -3 -3.5 -5.5t-3.5 -4.5zM37 92l4 5v2q-1 -2 -2.5 -3.5t-1.5 -3.5zM233 62h-2q-2 0 -2 -2v-1zM16 89q1 0 2 -1v3zM73 113l1 3h-1v-3zM364 481v-1l1 1h-1zM283 158v-1h1zM301 132v1h-1zM289 117l1 -1v1
h-1zM296 126l1 1h-1v-1zM286 162l-1 -1h1v1zM286 110v1h-1zM63 84v1l-1 -1h1z" />
    <glyph glyph-name="six" unicode="6" horiz-adv-x="323" 
d="M306 451l-31 19q-15 -2 -28 -9.5t-24 -18.5t-21 -24t-17 -24q-16 -24 -31 -49t-26 -51q21 7 46 7q46 0 82 -24q21 -14 39.5 -36t18.5 -49q0 -13 -3 -23q-8 -28 -25.5 -54.5t-41.5 -47.5t-52.5 -33.5t-58.5 -12.5q-41 0 -70.5 20.5t-48.5 55.5q-9 17 -11.5 34t-2.5 36
q0 29 7 58t18 57q10 26 31 68t48.5 82.5t59 70t63.5 29.5q29 0 49 -20t33 -44l2 -4t1 -4t-2 -4.5t-4 -4.5zM235 244l-6 2t-6 1q-38 0 -68 -15t-59 -38q-5 -4 -7 -9q-2 -4 -3 -13t-1.5 -19.5t-1 -20t-0.5 -14.5q0 -9 1 -19t8 -17q23 3 48.5 17.5t46.5 36t35 46.5t14 49v6.5
t-1 6.5zM225 473l-2 2q-18 -8 -30 -22q-6 -6 -19.5 -25t-27.5 -40.5t-24.5 -40.5t-10.5 -25q12 14 20.5 31t18.5 33q15 25 33.5 47t41.5 40zM285 170l-1 1l-46 -71l5 2q1 0 5.5 6.5t10.5 14.5t11 15t6 9q3 5 5 11zM152 460l37 36q-11 -6 -19.5 -14.5t-16.5 -18.5zM250 144
l9 16q-6 0 -9 -7t-5 -12zM241 176l-17 -29q5 8 9.5 13.5t7.5 15.5zM195 476q-8 -5 -12.5 -10.5t-9.5 -13.5zM102 303l5 9q-5 -3 -5 -8v-1zM288 143l-1 1v-1h1z" />
    <glyph glyph-name="seven" unicode="7" horiz-adv-x="301" 
d="M48 -4l-9 6l1 1q-4 0 -6 -1q-10 8 -16.5 17.5t-6.5 23.5q0 2 0.5 3.5t0.5 3.5q4 24 10 48.5t14 47.5q24 74 51 147t59 144q5 11 12 22l14 22q-20 -3 -40.5 -7t-40.5 -4q-34 0 -61 15q-13 8 -17.5 17t-12.5 20q0 10 10 10q9 0 18 -2t18 -2q14 0 33.5 3.5t40 8.5t40 11
t33.5 11q11 5 22 8t23 5q17 -9 24.5 -15t18.5 -22q3 -5 8.5 -9.5t5.5 -11.5q0 -5 -3.5 -12.5t-9 -15t-10.5 -14.5t-8 -11q-38 -57 -68.5 -118t-56.5 -124q-17 -42 -33.5 -83.5t-30.5 -84.5q-1 -3 -3.5 -13t-5.5 -20t-6.5 -18t-5.5 -8t-6 2v-1zM265 507l-2 2q-15 -14 -26 -33
t-22 -36q15 14 26.5 32t23.5 35z" />
    <glyph glyph-name="eight" unicode="8" horiz-adv-x="362" 
d="M116 297q-5 11 -9.5 18.5t-8.5 15t-6 16t-2 21.5q0 19 8 40q17 47 53.5 79.5t84.5 46.5q9 3 19 3q23 0 43.5 -16.5t34.5 -33.5q8 -11 10.5 -23.5t2.5 -25.5q0 -45 -21 -84t-54 -68q-12 -11 -24 -14.5t-26 -8.5l1 -4q12 -12 26.5 -24t27 -26t21 -30t8.5 -35q0 -18 -10 -38
q-21 -43 -58 -65.5t-85 -22.5q-29 0 -55.5 13t-49.5 30q-24 18 -35.5 45t-11.5 57q0 23 7 43q4 12 12 28.5t19 31.5t24.5 25.5t28.5 10.5q9 0 21 -5h4zM121 65l16 4t16 5q11 4 23 13t21.5 20t16 24t6.5 26q0 18 -8 32.5t-19.5 26.5t-24.5 23.5t-23 23.5q-15 -8 -25.5 -22.5
t-17.5 -31.5t-10.5 -35.5t-3.5 -34.5q0 -14 2.5 -23.5t6.5 -17t10 -15.5t14 -18zM189 303q16 18 32 37t28.5 39.5t20.5 43.5t8 48v4l-3 1q-15 -9 -33 -22.5t-33.5 -30.5t-25.5 -36t-10 -38q0 -13 4.5 -24t11.5 -22zM313 387q-8 -11 -13.5 -22t-13.5 -22q-5 -8 -12 -15.5
t-11 -15.5q-1 -2 -1 -6q15 18 31.5 37t19.5 44zM153 384q9 11 21.5 29.5t19.5 31.5q-32 -22 -41 -61zM68 188q6 17 14.5 31.5t16.5 30.5q1 2 1 6q-12 -15 -23 -32.5t-11 -37.5zM267 111q7 3 9.5 10t2.5 15q0 2 -0.5 4.5t-0.5 4.5q-4 -8 -6.5 -16.5t-4.5 -17.5zM34 221
q7 9 12.5 18t10.5 19q-3 0 -6.5 -5t-7 -11t-6 -12t-3.5 -9zM157 462l-2 2q-8 -9 -14 -18.5t-12 -19.5q8 9 14.5 18t13.5 18zM145 410l16 25q-5 -5 -10.5 -11t-5.5 -14zM247 341q5 7 9 13t7 14q-3 -5 -9.5 -13.5t-6.5 -13.5zM55 218q4 7 8 13.5t8 14.5q-6 -6 -9.5 -13
t-6.5 -15zM286 366q-6 -2 -8 -6.5t-4 -9.5zM234 130l2 -1q1 2 1 7q-2 -2 -2 -3.5t-1 -2.5zM254 129l3 2l-2 1zM64 181h2v3zM168 445l-1 1l-1 -3zM205 453l-2 -1q2 0 3 1h-1zM261 333h-1v-1zM308 347h-1l1 -1v1z" />
    <glyph glyph-name="nine" unicode="9" horiz-adv-x="299" 
d="M229 532q14 -8 25.5 -17t21.5 -22q4 -5 5.5 -11t-2.5 -14q-12 4 -23 9t-18 14q-5 7 -11.5 8t-14.5 -1q-16 -4 -29.5 -13.5t-24.5 -21.5q-24 -26 -40.5 -55.5t-24.5 -63.5q-5 -26 -5 -50.5t6 -50.5q2 -2 2 -6q13 6 21 14t16 18q17 23 27.5 49t19.5 52q4 19 6 41q1 5 1.5 9
t5.5 7q25 -5 45 -21q7 -6 9 -16q8 -46 11.5 -93.5t-4.5 -96.5q-8 -46 -24 -88.5t-49 -80.5q-14 -15 -28.5 -21.5t-32.5 -9.5q-60 -8 -97 32q-6 8 -5 14t9 16q-2 -5 3 -6q17 2 27.5 -6t18.5 -19q18 1 28.5 10.5t20.5 20.5q20 24 32 50t20 54q10 35 13 75q-5 -7 -11.5 -14.5
t-11.5 -14.5q-21 -20 -42 -22t-44 9q-30 13 -46.5 38t-19.5 60q-3 52 12 99.5t53 90.5q17 20 40 37q54 36 109 8zM134 469q-1 0 -1.5 -0.5t-1.5 -0.5q-17 -16 -27.5 -34.5t-18.5 -39.5l6 7q10 16 21 32.5t20 33.5zM161 236q14 12 21.5 26.5t11.5 30.5zM225 159
q-8 -17 -14.5 -34t-14.5 -34q2 3 4.5 5.5t4.5 5.5q5 14 9.5 28.5t10.5 28.5zM171 109q5 3 6.5 8t2.5 10zM146 265q0 1 1 2q2 2 4 3t6 4q0 2 0.5 3t0.5 3q-1 -2 -1 -3t-2 -3t-4.5 -3.5t-4.5 -2.5v-3zM95 448q0 -1 -1 -2.5t-1 -3.5q2 2 2 3t1 3q4 4 7 6v3q0 -1 -0.5 -1.5
t-0.5 -1.5q-2 -1 -3.5 -2.5zM161 286q-2 -2 -2 -3t-1 -3q3 3 4 6q0 1 1 3t1 4zM181 129l1 1q0 4 4 9v1q-1 0 -2 -1q0 -2 -1 -4.5t-2 -4.5v-1zM225 162q1 1 1.5 3.5t0.5 4.5h-1zM69 440q2 2 3.5 5t3.5 5q-4 -3 -7 -10zM86 433q0 3 -2 3v-4zM164 294q0 1 0.5 1t0.5 1v1h-1v-3z
M171 109q-3 -4 -3 -8q0 2 3 7v1zM192 77v4l-3 -4h3zM92 475q-1 -1 -1 -2.5t-1 -3.5h1q0 2 0.5 3t0.5 3zM84 393q-1 -1 -1 -4h1v4zM98 479q-1 0 -1.5 -0.5t-1.5 -0.5q2 0 2.5 0.5t2.5 0.5l-2 1v-1zM86 468h2l-2 -1q-3 -3 -3 -6zM140 475q0 -1 -0.5 -1.5t-0.5 -2.5q2 3 3 4h-2
zM84 436l7 4q-6 -3 -7 -3v-1zM145 260h1v4q0 -1 -1 -2v-2zM111 467q-1 0 -4 -3q1 1 2 1t2 2zM161 236q-2 -2 -2 -3q1 2 2 2v1zM138 471q-1 0 -1.5 -0.5t-1.5 -0.5v-1zM193 84l1.5 1.5t0.5 3.5zM186 143q0 1 1 2h-1v-2zM94 478q0 -1 -0.5 -1t-0.5 -1l2 2h-1zM195 123h1v1z
M112 468q-1 0 -1 -1z" />
    <glyph glyph-name="A" unicode="A" horiz-adv-x="396" 
d="M26 116l-10.5 -3.5t-15.5 -5.5t-15 -5t-9 -2q-4 0 -8 4l1 5l-10 2l15 17l-24 -9v2l5 7l-8 1l3 6q-5 1 -7 5.5t-3 8.5l3 6q-4 4 -4 10t1.5 8.5t6.5 6.5q8 7 25.5 13.5t38 12t39.5 10t31 7.5q10 23 22 45.5t23 45.5q10 20 20 39t21 39l89 165q17 31 35 64.5t42 59.5
q14 14 31.5 16t35.5 2l2 -7q3 3 7 3l3 -5q4 4 5 7l2 -3l-5 -40q-2 -13 -6 -25.5t-7 -25.5q-7 -27 -13 -54.5t-12 -54.5q-16 -69 -27 -137.5t-21 -138.5q-7 -48 -10.5 -96t-8.5 -96q-1 -6 -1 -11.5v-11.5t0.5 -15.5t1 -19.5t1.5 -19.5t3 -13.5q0 95 10 189t25.5 187
t35.5 185.5t41 184.5q1 3 1.5 6t3.5 5l6 -11l3 6q9 -2 9 -10q0 -30 -9 -60t-16 -59q-8 -30 -13.5 -60.5t-11.5 -61.5l-28 -150t-21 -151q-3 -35 -7 -70t-4 -70q0 -33 3.5 -65.5t7.5 -65.5l-3 -7l-6 7l-3 -3q-2 0 -3.5 1t-3.5 2l-5 -4h-4q-12 0 -19 2.5t-16 10.5
q-15 12 -23 28.5t-12 34.5t-5 37t-1 37q0 14 1 27t2 27q2 23 2 45.5t5 45.5q-8 1 -15.5 1.5t-15.5 0.5q-19 0 -37.5 -2.5t-37.5 -5.5q-7 -11 -12 -22.5t-10 -22.5q-11 -22 -21.5 -44t-22.5 -43l-6 -10.5t-5 -5t-7 -2.5t-11 -3l-1 12q-3 -4 -4.5 -8t-3.5 -9l-3 7l-7 -3v9t2 8
h-2l-7 -17l-3 5l-9 -2l-1 15l-6 -9q-3 2 -8 5.5t-5 7.5q0 23 11 51t20 48v2zM300 461q-4 -8 -13.5 -26t-21.5 -41t-24.5 -48t-23 -47.5t-17.5 -39t-7 -21.5q18 0 36.5 -2t34.5 -12q2 20 5.5 40.5t6.5 40.5q10 78 24 156zM345 547h-4q-2 -9 -4 -17.5t-4 -17.5l-31 -173
q-6 -32 -12.5 -66t-6.5 -67v-3h4q11 87 25.5 172.5t32.5 171.5zM302 166h2q8 44 13.5 87.5t12.5 88.5l11 71q4 24 9 48t9 48q3 20 7.5 38.5t9.5 37.5q-4 -6 -5 -9q-6 -16 -8 -32.5t-5 -33.5q-5 -32 -12.5 -62.5t-12.5 -62.5l-29 -188q-2 -8 -2 -15.5v-15.5zM302 149
q-3 -6 -5.5 -24t-4 -39t-2.5 -40t-1 -28v-9t1 -9q2 38 5 74.5t7 74.5zM45 150l-2 2q-5 0 -14.5 -2.5t-19.5 -6.5t-19.5 -7.5t-13.5 -6.5h7q4 0 12.5 2.5t18.5 6t18.5 7t12.5 5.5zM279 152h-1q-5 -35 -7 -70.5t-2 -70.5zM-38 166q4 0 11.5 2t16 5t16 6t10.5 5
q-14 -4 -27.5 -7.5t-26.5 -10.5zM-27 150q2 -1 2 -3q5 2 9 4t9 4q5 0 7 4q-14 -3 -27 -9zM328 37h-2v-18h2v18zM331 101h2v11h-2v-11zM336 139h2v10h-2v-10zM357 281h-2v-7h2v7zM338 157h2v7h-2v-7zM312 157h2v7h-2v-7zM330 90v-12h1v12h-1zM350 241h-2v-6h2v6zM330 66h-2
v-7q2 2 2 7zM366 339h-2v-5h2v5zM341 181h-1v-9h1v9zM328 279h2v4h-2v-4zM364 328h-2v-4h2v4zM376 395h-2q0 -3 2 -5v5zM320 221h1v7h-1v-7zM312 145h-2v-3h2v3zM348 400h2v4q-2 -2 -2 -4zM348 224h-1v-5h1v5zM383 433h1v5h-1v-5zM391 468h-2v-2h2v2zM399 512h1v4h-1v-4z
M358 292h-1v-4h1v4zM319 207h1q0 3 -1 5v-5zM19 24q-2 -1 -3 -3l1 -2q0 3 2 5zM374 383h-1v-3h1v3zM378 407h-2l2 -3v3zM352 254h-2l2 -3v3zM373 372h-2v-3zM353 261h2l-2 3v-3zM383 426v2q-2 0 -2 -2h2zM407 550l2 2h-2v-2zM409 558l1 2l-1 2v-4zM395 484v2h-2zM384 623
l-1 -2l1 -1v3zM367 349l-1 -2l1 -1v3zM5 159v1q-1 0 -2 -1h2zM3 124v-1l2 1h-2zM331 293h-1l1 -1v1z" />
    <glyph glyph-name="at" unicode="@" horiz-adv-x="555" 
d="M478 45q0 -8 -2.5 -12.5t-7.5 -9.5q-16 -16 -39 -26.5t-48 -17t-50.5 -9.5t-47.5 -3q-40 0 -79 13.5t-72 34.5q-59 38 -84 89t-25 120q0 61 24 126t65.5 118.5t98.5 88t123 34.5q30 0 58.5 -12t53 -31.5t44 -44.5t31.5 -51q11 -23 16.5 -49t5.5 -52q0 -46 -15.5 -86.5
t-43.5 -76.5q-17 -23 -40 -40.5t-53 -17.5q-23 0 -42 12t-30 32q-11 -11 -22.5 -21.5t-22.5 -21.5q-5 -5 -9 -8t-12 -3q-5 0 -11 2q-30 10 -43 34.5t-13 54.5q0 21 6.5 50t17.5 48q7 12 17 25t22.5 23.5t27 17t29.5 6.5q29 0 54.5 -20t32.5 -48l-3 -2q-11 3 -17.5 7.5
t-18.5 4.5q-18 0 -33 -10t-27 -25t-20.5 -32.5t-12.5 -32.5l-6 -25l2 -1q20 12 35.5 27.5t21.5 38.5q3 12 9.5 25.5t18.5 19.5q6 -3 11 -6.5t9 -9.5l9 -4l-1 -6h3q9 -4 9 -12q0 -11 -5 -22.5t-7 -22.5q-5 -25 -5 -46q0 -3 0.5 -5.5t1.5 -5.5q28 3 53.5 25.5t45 54t30.5 65.5
t11 60q0 51 -19 93.5t-64 70.5q-26 17 -57 17q-59 0 -109 -33t-86 -83.5t-56 -110t-20 -112.5q0 -33 5.5 -64t19 -58t35.5 -48.5t55 -34.5q15 -6 31 -8.5t32 -2.5q46 0 81 11t74 33l15 8l29 -11zM215 511q-2 -2 -6 -4q-13 -9 -26.5 -23t-26 -30t-23 -32.5t-17.5 -30.5
q-4 -8 -6.5 -16.5t-5.5 -16.5q5 6 8 13.5t7 15.5q7 15 19 33t26 35.5t28.5 32.5t27.5 24zM304 328q-11 -1 -22.5 -12t-14.5 -22zM503 244q-3 -3 -9 -11.5t-12.5 -18t-12 -18.5t-7.5 -13q4 5 8 8.5t7 8.5q8 11 13.5 22t12.5 22zM311 188l-2 3q-11 -13 -23.5 -24t-26.5 -22
l1 -2q4 5 9 8.5t10 7.5q8 7 15.5 14.5t16.5 14.5zM277 353q-8 -3 -14.5 -7.5t-10.5 -12.5l12 10t13 10zM137 473q5 5 12 10.5t10 13.5l-11.5 -11.5t-10.5 -12.5zM181 497q-12 -5 -15 -16zM108 437q7 6 10 12q-4 -4 -10 -12zM98 348h3q0 2 0.5 3.5t0.5 3.5q-2 -2 -2.5 -3.5
t-1.5 -3.5zM101 423q1 2 5 6q-5 0 -5 -4v-2zM305 219l-2 1q-2 -4 -2 -7q2 4 4 6zM165 504q0 -1 -0.5 -1t-0.5 -1l3.5 3.5l3.5 3.5zM98 342h-1v-2q0 1 1 2z" />
    <glyph glyph-name="ampersand" unicode="&#x26;" horiz-adv-x="322" 
d="M235 394l-7 -1q5 17 12 32t7 33q0 12 -4.5 22t-15.5 16l-49 -143l17 3q8 -9 19 -13l-1 -6l6 2q6 -4 6 -9q0 -4 -1.5 -7t-1.5 -8q-8 -2 -15 -1t-15 1q-15 0 -28 -6q-19 -57 -34 -114.5t-26 -116.5q12 5 25.5 12.5t25.5 17t19.5 22t7.5 27.5q0 12 -4.5 23t-8.5 22
q26 -1 45 -14.5t19 -41.5q0 -18 -10 -33.5t-25 -28t-32 -22t-32 -14.5q-8 -2 -15.5 -3.5t-15.5 -3.5q-4 -1 -6.5 -2t-2.5 -6l-5 6h-9l-3 -8l-1 12q-38 9 -57 38.5t-19 66.5q0 27 8 58t23.5 59t37 50t48.5 32q-18 14 -37 34t-19 45q0 21 10 41t26.5 36t36.5 26t41 10
q10 0 19.5 -2.5t18.5 -6.5l20 47h3l3 -6h-1v-1q1 1 3 1t2.5 -2t1.5 -3h2l5 -4l-16 -43q20 -16 36 -32.5t16 -45.5q0 -12 -3 -22q-1 -3 -4 -10t-7 -13.5t-8.5 -12t-7.5 -5.5t-7 4q-5 1 -9 3.5t-6 7.5l3 6zM153 357l50 145q-36 -9 -62 -36.5t-26 -66.5q0 -18 12.5 -26
t25.5 -16zM130 285q-6 -3 -12.5 -10t-11.5 -15.5t-9.5 -17t-7.5 -14.5q-11 -21 -17 -43t-6 -46q0 -17 2.5 -29.5t9.5 -27.5h3l2 12l37 155zM46 159q9 45 30 85q5 9 11 17t9 19h-1q-19 -24 -34 -57t-15 -64zM109 448q3 7 7.5 13t9.5 12v2q-3 -3 -10 -13t-7 -14zM214 130
q4 4 4 11q0 5 -1 7zM88 31l4 -7l-1 -1l-5 7zM37 237q3 8 7 13v3l-4 -8t-3 -8zM192 144h2v5h-1q0 -3 -1 -5zM85 75h1v4h-2q1 -1 1 -4zM99 87h-2q0 -2 2 -4v4zM93 121l1 -1v5h-1v-4zM105 119h-1q0 -4 1 -5v5zM111 194h1v4h-1v-4zM101 93v4h-2zM82 31v-3h-1q0 2 -1 3h2zM87 87
h1v4h-1v-4zM96 131h1q0 2 -1 3h-1q0 -2 1 -3zM99 145h-1v-4h1v4zM92 114h-1v-4h1v4zM89 99h1v3h-1v-3zM104 169h1v3h-1v-3zM103 163h-1v-3h1v3zM123 187v1q0 2 -1 3h-1zM108 180h-2l1 -3q0 2 1 3zM108 129h-2q0 -2 1 -2q0 1 1 2zM120 229h-1v-2h1v2zM22 197h1v3q-1 -1 -1 -3
zM114 205h-1v-2h1v2zM103 109h-1v-2h1v2zM113 156h1v2h-1v-2zM116 213h-1v-2h1v2zM109 189v-3h1zM107 490q0 1 -1 1q0 -2 -1 -2q1 0 1 0.5t1 0.5zM124 198q1 1 1 2h-1v-2zM101 153h-1v-2q1 1 1 2zM116 167q-1 0 -1 -1h1v1zM138 245v1h-1v-1h1zM133 272v1q-1 0 -1 -1h1z
M125 245l-1 -2v-1q1 1 1 3zM131 266q-1 0 -1 -1h1v1zM126 250h1v1h-1v-1zM64 285q-1 -1 -1 -2q1 1 1 2zM110 140h-1v-2q0 1 1 2zM111 147h1l-1 1v-1zM135 238h1l-1 1v-1zM138 287l-1 1v-1h1zM142 261l-1 -1h1v1zM246 383v-1l1 1h-1zM39 201h1v1zM100 114l1 1h-1v-1zM153 296
l-1 1v-1h1z" />
    <glyph glyph-name="B" unicode="B" horiz-adv-x="588" 
d="M478 166l9 2l1 -6l8 4q-7 -14 -31.5 -27.5t-55.5 -31t-61.5 -41.5t-49.5 -58l1 -2q9 2 17.5 3t17.5 3q27 8 57 23.5t55.5 37.5t42.5 49.5t17 58.5q0 21 -14.5 34t-34.5 19.5t-42.5 9t-37.5 2.5q-35 0 -69.5 -9t-64.5 -27q-2 -1 -4 -5q-6 -20 -8 -42t-2 -43
q0 -8 1.5 -15.5t1.5 -15.5q0 -5 -1 -8t-7 -3q-7 0 -13.5 2t-13.5 3q-22 15 -37 32t-15 46q0 60 14 117.5t28 115.5q5 20 9.5 38.5t11.5 37.5q7 18 15 35.5t16 34.5q-5 7 -10 13.5t-10 13.5q0 7 4 8t9 1q12 0 24.5 -9t23 -21.5t17.5 -27t7 -25.5v-17q0 -11 -3 -28t-7.5 -35
t-9 -34.5t-8.5 -27.5q6 -2 12.5 -3t12.5 -1q22 0 53.5 10t64 24.5t61 32t45.5 32.5q18 16 29.5 38t11.5 46q0 20 -10 37t-25 30q-12 10 -31.5 17t-40.5 11t-41.5 6t-36.5 2q-65 0 -128 -20q-29 -9 -64.5 -26.5t-66 -41.5t-51.5 -54t-21 -65q0 -2 2.5 -8t6.5 -12.5t7 -12.5
t5 -9v-10q-17 2 -30 12t-22 24.5t-14 31t-5 31.5q0 22 6.5 41t18.5 38q23 36 59.5 65t79 49.5t88.5 31t88 10.5q18 0 36.5 -0.5t36.5 -2.5q82 -11 129 -55.5t73 -121.5q9 -26 9 -53q0 -41 -14.5 -69t-38.5 -48t-54.5 -35.5t-61.5 -30.5q4 -4 6 -5q42 -27 74 -67.5t32 -93.5
q0 -45 -23.5 -82t-60 -63t-80.5 -40.5t-84 -14.5q-19 0 -38 7t-34.5 19.5t-25 30t-9.5 37.5q0 9 1.5 15t5.5 14q11 24 31.5 46t45.5 40.5t52 32t52 20.5q16 5 31.5 6t31.5 1l12 -13v-5l8 -2zM224 628h-4q-17 -6 -39 -16t-43 -22t-38.5 -27t-24.5 -32q19 18 36 31t34.5 24
t36 21t42.5 21zM411 306q14 3 37 12t46 21.5t42.5 26.5t27.5 26q-36 -26 -74 -47t-79 -39zM278 28q2 2 4 4.5t4 4.5q19 22 40 40t44 35l1 2q-12 -5 -26.5 -14.5t-28 -21t-24 -24.5t-14.5 -26zM522 59q-11 -10 -22 -20.5t-22 -20.5q-8 -7 -16 -13t-15 -14q15 3 32 18.5
t27 26.5q5 5 8 11t8 12zM517 412q-2 -2 -3.5 -2.5t-3.5 -1.5q-10 -5 -19 -11.5t-19 -11.5l-66 -35h4q5 0 21.5 8t35 18.5t33.5 20.5t17 15zM434 340l4 -1q9 3 22.5 9t27 13t24.5 15.5t17 16.5q-25 -11 -47 -28.5t-48 -24.5zM166 645v1q-7 -2 -18.5 -8.5t-24 -15t-23.5 -17
t-17 -13.5zM266 80q13 5 23 18t22 22q-12 -8 -26 -18.5t-19 -21.5zM429 30q25 12 44 38q-22 -18 -44 -38zM315 100l-36 -34q-1 -1 -1 -5l41 39h-4zM146 613q-3 -1 -10 -5t-14.5 -9t-14 -9.5t-7.5 -7.5q11 8 23 15.5t23 15.5zM454 22q8 6 17 12t14 16zM170 648l2 -2q8 6 12 8
zM247 233v-2l5 7q-5 -3 -5 -5zM397 347l1 -2l5 4q-4 0 -6 -2zM444 -10l-4 -3l2 -2q2 2 2 5zM429 30q-2 0 -4 -2l1 -2zM322 127h-3q-2 -1 -2.5 -2t-1.5 -2q2 2 7 4zM263 78l1 -1l1 3zM347 80l2 2h-1q0 -1 -0.5 -1t-0.5 -1zM237 632q1 1 3 1v1zM341 76h-1v-1zM480 -5v1l-1 -1
h1zM498 11l2 2zM452 20l2 2zM147 576v1l-1 -1h1zM508 20h1v1zM480 28h-1v-1zM123 588h1v1zM311 120l1 1q-1 0 -1 -1z" />
    <glyph glyph-name="a" unicode="a" horiz-adv-x="310" 
d="M300 102q2 5 5 8.5t6 8.5q-8 -20 -21 -45t-28.5 -49.5t-32.5 -46.5t-33 -35q-17 6 -27.5 11.5t-10.5 26.5q0 41 7.5 80.5t15.5 79.5l-34 -35q-8 -8 -17.5 -19t-20 -21t-22.5 -17t-25 -7q-9 0 -20 4t-20.5 11t-15.5 16t-6 20q0 22 10.5 51.5t27 58t36 53t37.5 37.5
q15 11 33 19.5t37 8.5t34.5 -9t29.5 -22q4 -4 4 -8q0 -2 -2 -6l-29 8q-27 -9 -47.5 -28t-37 -42.5t-29 -50t-23.5 -50.5l2 -2l16 12l96 86q13 12 20 25.5t24 20.5l1 -10l-3 -1q-2 -3 -1.5 -3.5t-2.5 -3.5l3 1l1 5l3 2q2 4 6 4q2 0 5 -3l-1 -7l4 2v1l5 -2q-6 -19 -12.5 -37
t-13.5 -36l-1 -1q1 0 1 1q3 3 3 4q8 17 14.5 33.5t14.5 32.5q9 -2 9 -9q0 -5 -1.5 -10t-3.5 -10q-5 -14 -14.5 -41t-19 -56.5t-16.5 -56t-7 -38.5q10 6 17.5 15.5t15.5 17.5h2q-10 -14 -21.5 -27t-18.5 -29h-1v-1q1 0 1 1q14 14 26 29.5t24 30.5q3 4 6 9t7 9l5 5
q-16 -27 -37 -52.5t-35 -53.5l32 37l-9 -17l7 5l1 -4q1 4 4 8t5 8h1v1l-1 -1h-2q2 6 4 10t7 8v-4l2 4l3 2l2 4q2 6 6.5 11t6.5 11q2 4 4.5 7.5t4.5 7.5h-1l2 4h-1l6 11l1 -4q1 4 2.5 7t3.5 6h-1l3 2q2 3 4 9v-1zM243 229q-1 -2 -1 -5q1 2 1 5zM242 223q-5 -2 -5 -5v-1
q0 -1 1 -2zM224 137q-1 -1 -1 -3zM227 147q-1 -1 -1 -5l1 2v3zM229 231q-6 -6 -8 -15zM222 129q-4 -9 -7 -20q4 5 5 10zM213 104l2 4h-1zM213 100q-1 -2 -1 -5h1v5zM207 78l1 -2v3zM203 58h1v2h-1v-2zM104 237q-1 0 -1 -1h1v1zM100 230q-1 -1 -2 -1h2v1zM93 253l3 2h-1z
M33 151q0 -1 -0.5 -1.5t-0.5 -1.5h1v3zM36 159q3 3 3 4q10 17 19 34t20 33q2 3 7 9.5t5 10.5l-2 -4q-5 -5 -13 -16.5t-15.5 -25t-14 -26t-9.5 -19.5q-2 -2 -2 -5zM88 215q-10 -14 -18 -27t-15 -29q8 14 16.5 27t16.5 27v2zM49 143l3 7q-2 -1 -2 -3t-2 -4h1zM51 96
q-1 -1 -1 -4h1v4zM55 105q14 38 33.5 75t45.5 68q-10 -6 -21.5 -21t-22 -32.5t-18.5 -34.5t-12 -28q-3 -8 -5 -17t-4 -17q2 2 4 7zM207 -36q-2 0 -2 -2zM208 -35q2 2 4.5 3.5t2.5 5.5zM215 -30q1 0 1 0.5t1 0.5q0 -1 -2 -1zM221 -22q0 2 0.5 3t0.5 3l-6 -9zM222 -21l1 1
q0 -1 -1 -1zM227 -19q-1 0 -1 -0.5t-1 -0.5h2v1zM234 -10h-1l-3 -2h1zM251 16q1 1 1 4q-1 -1 -1 -4z" />
    <glyph glyph-name="r" unicode="r" horiz-adv-x="300" 
d="M155 314q-9 -74 -40 -138.5t-74 -124.5q-9 -12 -19 -23t-24 -19l-35 12l2 3q13 13 23 26.5t20 28.5q75 119 100 258q-14 10 -30 20.5t-29.5 23.5t-22.5 28.5t-9 35.5q0 10 4 20.5t11.5 19.5t17 14.5t20.5 5.5q13 0 25 -6q25 -11 39.5 -32.5t17.5 -47.5q2 -17 3.5 -33
t2.5 -33q26 -15 52 -31t48 -36q24 -23 24 -54q0 -23 -10.5 -55t-18.5 -55q-7 -20 -15.5 -44.5t-16 -50t-13 -50.5t-5.5 -46q0 -22 7 -39l28 -7l-1 -8l1 -1l5 6h8q3 -6 3 -12q0 -7 -5 -12t-12 -8t-14.5 -4t-13.5 -1q-24 0 -41.5 12t-28.5 30t-16 40t-5 43q0 25 7 56.5
t17 64.5t21.5 64t20.5 55q5 11 11 31t6 31q0 18 -16 27t-30 15zM177 -60q2 11 3.5 21t3.5 21q8 38 20 74.5t25 73.5l16 46t10 47h-2q-18 -51 -34.5 -102t-32.5 -102q-5 -15 -7.5 -30t-2.5 -31v-9t1 -9zM108 377q0 3 0.5 6.5t0.5 6.5q0 7 -1 18t-3 22t-5 21t-7 15
q-16 -14 -16 -34q0 -16 8.5 -31.5t22.5 -23.5zM225 200l-49 -144q-5 -17 -8 -34t-7 -34l2 2q7 23 12.5 45.5t13.5 45.5q10 30 22 60t17 62zM210 217q-5 -6 -8 -15t-5 -17l-48 -146l-11 -40q7 14 11.5 29t9.5 30q13 40 26.5 79t24.5 80zM135 284q-1 0 -3 -5
q-11 -37 -24 -72.5t-29 -70.5q8 9 17 28.5t17.5 42t14 44t7.5 33.5zM85 206q4 8 6.5 14.5t4.5 14.5l-2 -1zM63 448q2 4 2.5 8t2.5 9q-6 -6 -6 -12q0 -3 1 -5zM49 128q4 2 5.5 6.5t2.5 9.5zM99 250q-5 -6 -3 -13zM42 475l-6 -9l2 -2q2 8 4 11zM159 -20h2q0 2 -0.5 2.5
t-0.5 2.5q-1 -2 -1 -5zM137 295h-1v-4h1v4zM212 223h-1v-4q1 1 1 4zM206 21h-1v-3h1v3zM203 9h1v3h-1v-3zM214 50l-1 -2l2 -1q0 2 -1 3zM217 57h-1v-3h1v3zM230 208h-2v-3zM139 306h-1v-3h1v3zM104 263h-1q0 -3 -1 -4q2 2 2 4zM197 -13h-1v-2h1v2zM245 139h-1v-2h1v2z
M233 107h1v2h-1v-2zM106 275l3 4h-1zM210 34q-1 0 -1 -2h1v2zM231 100q1 0 1 2h-1v-2zM111 287l-1 2v-3zM195 -25v2h-1q0 -1 1 -2zM246 144h1v1h-1v-1zM223 75v1h-1q0 -1 1 -1zM196 79l1 -1v1h-1zM192 65l1 1h-1v-1zM225 82q-1 0 -1 -1zM42 76l-1 -1h1v1zM194 73l1 -1v1h-1z
M262 191v1l-1 -1h1zM212 41l-1 -1h1v1zM248 152l1 -1v1h-1zM229 94l1 1h-1v-1zM225 162l-1 -1h1v1zM102 258l-1 -3q1 1 1 3zM210 119l-1 -1h1v1zM182 29v1l-1 -1h1z" />
    <glyph glyph-name="c" unicode="c" horiz-adv-x="242" 
d="M186 52l8 8q2 -3 8 -5q-2 -3 -3.5 -6.5t-3.5 -6.5q-6 -9 -18 -17.5t-26 -16t-28.5 -12t-24.5 -4.5q-23 0 -42 10.5t-32.5 27t-20.5 38t-7 42.5q0 24 9 58.5t26 66.5t40 54.5t52 22.5t53.5 -19.5t37.5 -44.5q5 -10 5 -19q0 -13 -4 -24.5t-4 -24.5q0 -8 2.5 -14.5
t4.5 -14.5q-24 3 -38 19.5t-14 40.5q0 20 10 43h-7q-6 0 -11.5 -1t-10.5 -5q-23 -17 -38 -41t-23.5 -51.5t-11.5 -56.5t-3 -56q0 -3 0.5 -5.5t1.5 -5.5q26 2 45 12t39 24q4 3 14 7l18 -14zM123 257l-9 -3q-6 -3 -13 -11.5t-13 -19t-11 -21t-7 -16.5h1q2 5 4 7.5t5 7.5
q11 16 20.5 29.5t23.5 26.5h-1zM59 245q6 3 14 13t12 16q-3 0 -6.5 -3.5t-7.5 -8.5t-7.5 -10t-4.5 -7zM81 242q5 5 9 8.5t8 8.5q-5 0 -11 -6t-6 -11zM185 243q-1 -1 -1 -2h1v2zM190 63q0 -1 -0.5 -1t-0.5 -1h1v2z" />
    <glyph glyph-name="d" unicode="d" horiz-adv-x="339" 
d="M325 -112v-2q0 -1 1 -1q0 -8 -10.5 -9.5t-15.5 -1.5q-30 0 -48 23q-12 16 -20.5 40.5t-14 52t-8.5 54.5t-6 47h-2q-11 -16 -21.5 -34t-24 -33.5t-30 -26t-37.5 -10.5q-26 0 -42.5 11.5t-27 29.5t-14.5 40t-4 43q0 24 7.5 51.5t22 51t36 39t49.5 15.5q25 0 46 -10t42 -21
q6 37 13.5 78t20 80.5t32.5 74.5t51 61q9 8 21 14.5t24 6.5q15 0 27 -7.5t21 -19t13.5 -26t4.5 -27.5q0 -26 -10.5 -57.5t-26 -62t-34.5 -58.5t-36 -47l-43 -47q-6 -6 -6 -18q0 -20 -0.5 -41t-0.5 -41q0 -17 0.5 -43.5t2 -54.5t5 -53t10.5 -40q5 -10 13.5 -14.5t19.5 -6.5z
M200 202h-2q-12 9 -23 22.5t-28 13.5q-6 0 -11 -4q-31 -26 -45 -66t-14 -79q0 -8 0.5 -18.5t2 -21t5 -20t8.5 -15.5q5 5 9.5 9t9.5 9q4 6 18.5 25.5t30 42t27.5 41.5t12 23v38zM283 257q2 0 6.5 5t9.5 11.5t9 12.5t6 8q13 16 29 39.5t30 48.5t23.5 50.5t9.5 46.5
q0 12 -1.5 23.5t-9.5 21.5q-11 -2 -18.5 -8t-14.5 -15q-20 -26 -32.5 -55.5t-21 -61t-14 -64t-11.5 -63.5zM339 287v6l3 2q8 14 16.5 26t18.5 24q-7 -18 -19 -34.5t-23 -33.5q8 5 12 14.5t12 14.5l1 -4l1 4q2 2 3.5 4.5t3.5 4.5l2 4q2 4 4 6l2 5l2 4h-2l7 11l1 -5q0 4 1.5 7
l3.5 7l2 4l5 6q0 5 4 10t4 10l3 4l3 10q3 3 6 10.5t5.5 17t4 18t1.5 12.5q0 3 -1.5 6t-3.5 5l-3 -1q-6 -19 -11.5 -38t-13.5 -37q-6 -13 -17.5 -35t-19.5 -33l-5 -6q-2 -4 -7 -11t-5 -9l-3 -2v-2q0 -4 2 -6zM412 465h-2l2 -7q-5 0 -5 -2.5t-1 -5.5q-4 -17 -11.5 -33.5
t-15.5 -32.5q-19 -38 -42.5 -72.5t-52.5 -65.5v-4q14 16 36 44.5t42.5 61t35 63.5t14.5 51v3zM81 194l-5 -2q-11 -23 -18 -43.5t-7 -46.5q0 -15 3 -30q3 32 6.5 62.5t20.5 59.5zM303 434v-3q1 2 2 3.5t2 3.5q11 21 22.5 41t28.5 38q-8 -3 -16.5 -13.5t-16 -23t-13.5 -25.5
t-9 -21zM44 156q-3 -8 -5.5 -16.5t-2.5 -17.5q0 -2 0.5 -4t0.5 -4l9 43zM28 169q-6 -14 -8 -27.5t-2 -27.5q2 14 4.5 27.5t5.5 27.5zM318 264q-2 -1 -5 -1l-13 -20q3 3 10 10.5t8 10.5zM322 516q-5 -5 -10 -11t-9 -13q11 11 19 24zM339 287q-1 1 -4 1l-2 1q-2 -2 -3 -4.5
t-3 -4.5v-5l5 7.5t7 4.5zM296 418q5 2 5 5.5t2 7.5q-4 -5 -7 -13zM323 262l8 5q-1 2 -0.5 2.5t0.5 2.5zM322 269q1 0 1 0.5t1 0.5l-3 1l-3 -2v-5q2 4 4 5zM46 158q2 4 2 6q-3 0 -3 -3v-1zM322 516l8 7h-2zM257 233h-1v-6h1v6zM300 487l3 5q-3 -3 -3 -5zM70 134h1v2h-1v-2z
M287 386v2l-1 -1q0 -1 1 -1zM331 264l1 3h-1v-3zM81 197h-1q0 -1 1 -2v2zM277 449v2q0 -1 -0.5 -1t-0.5 -1h1zM303 231h-1v-2q0 1 1 2zM260 260h1v1zM258 249l1 1h-1v-1z" />
    <glyph glyph-name="e" unicode="e" horiz-adv-x="223" 
d="M219 235q0 -27 -14.5 -50t-37 -39.5t-49 -26t-51.5 -9.5q-3 -6 -3 -16.5v-16.5q0 -4 0.5 -12t2.5 -16t5.5 -14t8.5 -6q16 0 27.5 9t16.5 23l1 1v-3q0 -7 -4.5 -12.5t-6.5 -11.5q8 4 11 10.5t8 13.5q2 -4 2 -5q0 -5 -3 -8.5t-4 -8.5l7 -1l-1 -3l2 -1v1h3l-1 2h1l1 4h1l2 4
v-4q4 4 4 10l4 5q-2 -22 -19 -35t-38 -13q-46 0 -71.5 28t-25.5 73q0 36 13.5 71t34.5 64q34 48 91 48q7 0 13.5 -1t13.5 -3l-20 37l8 2q30 -10 48.5 -33.5t18.5 -56.5zM160 198q-1 -1 -1 -4l-3 -2l3 1v1zM200 215q-2 -3 -5 -8t-6.5 -10.5t-6 -10.5t-2.5 -7q8 8 12.5 17
t7.5 19zM177 177q2 0 3 1q-2 0 -3 -1zM176 198h1l1 3zM176 177l-2 -2zM170 215q2 0 2 2h-2v-2zM165 204q2 4 2 5l-2 -4v-1zM166 253q-17 -4 -32 -14.5t-26.5 -24.5t-19.5 -31t-11 -33q13 1 29 12t29 25.5t22 31t9 30.5v4zM95 229q-1 0 -3 -2l4 2v1zM69 219q-1 -1 -1.5 -2.5
t-1.5 -1.5h1q2 2 2 4zM63 213q-1 -2 -1 -4q1 1 1 4zM35 188q-1 0 -1 -1h1v1zM40 203l-3 -5l2 -1zM41 205l-1 -1h1v1zM54 157q-1 -1 -1 -5h1v5zM56 227q0 2 0.5 2.5t0.5 2.5l3 1q-2 0 -3 -1l-5 -8l-2 -3v-1q-2 -2 -3.5 -4.5t-3.5 -5.5q5 2 7 10l2 4zM58 201v-2v1v1zM58 163
q5 17 15.5 31.5t17.5 31.5q-11 -11 -22 -29t-11 -34z" />
    </font>
</defs>
</svg>
